<?xml version="1.0" encoding="utf-8" standalone="no"?>
<!DOCTYPE svg PUBLIC "-//W3C//DTD SVG 1.1//EN"
  "http://www.w3.org/Graphics/SVG/1.1/DTD/svg11.dtd">
<svg xmlns:xlink="http://www.w3.org/1999/xlink" width="476.033937pt" height="309.529131pt" viewBox="0 0 476.033937 309.529131" xmlns="http://www.w3.org/2000/svg" version="1.1">
 <metadata>
  <rdf:RDF xmlns:dc="http://purl.org/dc/elements/1.1/" xmlns:cc="http://creativecommons.org/ns#" xmlns:rdf="http://www.w3.org/1999/02/22-rdf-syntax-ns#">
   <cc:Work>
    <dc:type rdf:resource="http://purl.org/dc/dcmitype/StillImage"/>
    <dc:date>2023-04-24T03:34:07.345727</dc:date>
    <dc:format>image/svg+xml</dc:format>
    <dc:creator>
     <cc:Agent>
      <dc:title>Matplotlib v3.7.1, https://matplotlib.org/</dc:title>
     </cc:Agent>
    </dc:creator>
   </cc:Work>
  </rdf:RDF>
 </metadata>
 <defs>
  <style type="text/css">*{stroke-linejoin: round; stroke-linecap: butt}</style>
 </defs>
 <g id="figure_1">
  <g id="patch_1">
   <path d="M 0 309.529131 
L 476.033937 309.529131 
L 476.033937 0 
L 0 0 
z
" style="fill: #ffffff; stroke: #ffffff; stroke-linejoin: miter"/>
  </g>
  <g id="axes_1">
   <g id="patch_2">
    <path d="M 38.393938 273.816444 
L 395.513938 273.816444 
L 395.513938 7.704444 
L 38.393938 7.704444 
z
" style="fill: #ffffff; stroke: #7f7f7f; stroke-linejoin: miter"/>
   </g>
   <g id="matplotlib.axis_1">
    <g id="xtick_1">
     <g id="line2d_1">
      <path d="M 54.626665 273.816444 
L 54.626665 7.704444 
" clip-path="url(#p66bff94a96)" style="fill: none; stroke: #e5e5e5; stroke-width: 0.8"/>
     </g>
     <g id="line2d_2">
      <path d="M 54.626665 273.816444 
" style="fill: none; stroke: #000000; stroke-width: 1.5"/>
      <defs>
       <path id="m1a305d5297" d="M 0 0 
L 0 2.75 
" style="stroke: #333333"/>
      </defs>
      <g>
       <use xlink:href="#m1a305d5297" x="54.626665" y="273.816444" style="stroke: #333333"/>
      </g>
     </g>
     <g id="text_1">
      <!-- −4 -->
      <g style="fill: #4d4d4d" transform="translate(48.140102 285.453069) scale(0.088 -0.088)">
       <defs>
        <path id="DejaVuSans-2212" d="M 678 2272 
L 4684 2272 
L 4684 1741 
L 678 1741 
L 678 2272 
z
" transform="scale(0.015625)"/>
        <path id="DejaVuSans-34" d="M 2419 4116 
L 825 1625 
L 2419 1625 
L 2419 4116 
z
M 2253 4666 
L 3047 4666 
L 3047 1625 
L 3713 1625 
L 3713 1100 
L 3047 1100 
L 3047 0 
L 2419 0 
L 2419 1100 
L 313 1100 
L 313 1709 
L 2253 4666 
z
" transform="scale(0.015625)"/>
       </defs>
       <use xlink:href="#DejaVuSans-2212"/>
       <use xlink:href="#DejaVuSans-34" x="83.789062"/>
      </g>
     </g>
    </g>
    <g id="xtick_2">
     <g id="line2d_3">
      <path d="M 135.790301 273.816444 
L 135.790301 7.704444 
" clip-path="url(#p66bff94a96)" style="fill: none; stroke: #e5e5e5; stroke-width: 0.8"/>
     </g>
     <g id="line2d_4">
      <path d="M 135.790301 273.816444 
" style="fill: none; stroke: #000000; stroke-width: 1.5"/>
      <g>
       <use xlink:href="#m1a305d5297" x="135.790301" y="273.816444" style="stroke: #333333"/>
      </g>
     </g>
     <g id="text_2">
      <!-- −2 -->
      <g style="fill: #4d4d4d" transform="translate(129.303739 285.453069) scale(0.088 -0.088)">
       <defs>
        <path id="DejaVuSans-32" d="M 1228 531 
L 3431 531 
L 3431 0 
L 469 0 
L 469 531 
Q 828 903 1448 1529 
Q 2069 2156 2228 2338 
Q 2531 2678 2651 2914 
Q 2772 3150 2772 3378 
Q 2772 3750 2511 3984 
Q 2250 4219 1831 4219 
Q 1534 4219 1204 4116 
Q 875 4013 500 3803 
L 500 4441 
Q 881 4594 1212 4672 
Q 1544 4750 1819 4750 
Q 2544 4750 2975 4387 
Q 3406 4025 3406 3419 
Q 3406 3131 3298 2873 
Q 3191 2616 2906 2266 
Q 2828 2175 2409 1742 
Q 1991 1309 1228 531 
z
" transform="scale(0.015625)"/>
       </defs>
       <use xlink:href="#DejaVuSans-2212"/>
       <use xlink:href="#DejaVuSans-32" x="83.789062"/>
      </g>
     </g>
    </g>
    <g id="xtick_3">
     <g id="line2d_5">
      <path d="M 216.953938 273.816444 
L 216.953938 7.704444 
" clip-path="url(#p66bff94a96)" style="fill: none; stroke: #e5e5e5; stroke-width: 0.8"/>
     </g>
     <g id="line2d_6">
      <path d="M 216.953938 273.816444 
" style="fill: none; stroke: #000000; stroke-width: 1.5"/>
      <g>
       <use xlink:href="#m1a305d5297" x="216.953938" y="273.816444" style="stroke: #333333"/>
      </g>
     </g>
     <g id="text_3">
      <!-- 0 -->
      <g style="fill: #4d4d4d" transform="translate(214.154438 285.453069) scale(0.088 -0.088)">
       <defs>
        <path id="DejaVuSans-30" d="M 2034 4250 
Q 1547 4250 1301 3770 
Q 1056 3291 1056 2328 
Q 1056 1369 1301 889 
Q 1547 409 2034 409 
Q 2525 409 2770 889 
Q 3016 1369 3016 2328 
Q 3016 3291 2770 3770 
Q 2525 4250 2034 4250 
z
M 2034 4750 
Q 2819 4750 3233 4129 
Q 3647 3509 3647 2328 
Q 3647 1150 3233 529 
Q 2819 -91 2034 -91 
Q 1250 -91 836 529 
Q 422 1150 422 2328 
Q 422 3509 836 4129 
Q 1250 4750 2034 4750 
z
" transform="scale(0.015625)"/>
       </defs>
       <use xlink:href="#DejaVuSans-30"/>
      </g>
     </g>
    </g>
    <g id="xtick_4">
     <g id="line2d_7">
      <path d="M 298.117574 273.816444 
L 298.117574 7.704444 
" clip-path="url(#p66bff94a96)" style="fill: none; stroke: #e5e5e5; stroke-width: 0.8"/>
     </g>
     <g id="line2d_8">
      <path d="M 298.117574 273.816444 
" style="fill: none; stroke: #000000; stroke-width: 1.5"/>
      <g>
       <use xlink:href="#m1a305d5297" x="298.117574" y="273.816444" style="stroke: #333333"/>
      </g>
     </g>
     <g id="text_4">
      <!-- 2 -->
      <g style="fill: #4d4d4d" transform="translate(295.318074 285.453069) scale(0.088 -0.088)">
       <use xlink:href="#DejaVuSans-32"/>
      </g>
     </g>
    </g>
    <g id="xtick_5">
     <g id="line2d_9">
      <path d="M 379.28121 273.816444 
L 379.28121 7.704444 
" clip-path="url(#p66bff94a96)" style="fill: none; stroke: #e5e5e5; stroke-width: 0.8"/>
     </g>
     <g id="line2d_10">
      <path d="M 379.28121 273.816444 
" style="fill: none; stroke: #000000; stroke-width: 1.5"/>
      <g>
       <use xlink:href="#m1a305d5297" x="379.28121" y="273.816444" style="stroke: #333333"/>
      </g>
     </g>
     <g id="text_5">
      <!-- 4 -->
      <g style="fill: #4d4d4d" transform="translate(376.48171 285.453069) scale(0.088 -0.088)">
       <use xlink:href="#DejaVuSans-34"/>
      </g>
     </g>
    </g>
    <g id="xtick_6">
     <g id="line2d_11">
      <path d="M 95.208483 273.816444 
L 95.208483 7.704444 
" clip-path="url(#p66bff94a96)" style="fill: none; stroke: #fafafa"/>
     </g>
    </g>
    <g id="xtick_7">
     <g id="line2d_12">
      <path d="M 176.372119 273.816444 
L 176.372119 7.704444 
" clip-path="url(#p66bff94a96)" style="fill: none; stroke: #fafafa"/>
     </g>
    </g>
    <g id="xtick_8">
     <g id="line2d_13">
      <path d="M 257.535756 273.816444 
L 257.535756 7.704444 
" clip-path="url(#p66bff94a96)" style="fill: none; stroke: #fafafa"/>
     </g>
    </g>
    <g id="xtick_9">
     <g id="line2d_14">
      <path d="M 338.699392 273.816444 
L 338.699392 7.704444 
" clip-path="url(#p66bff94a96)" style="fill: none; stroke: #fafafa"/>
     </g>
    </g>
    <g id="text_6">
     <!-- x -->
     <g transform="translate(207.938625 300.041475) scale(0.11 -0.11)">
      <defs>
       <path id="DejaVuSans-78" d="M 3513 3500 
L 2247 1797 
L 3578 0 
L 2900 0 
L 1881 1375 
L 863 0 
L 184 0 
L 1544 1831 
L 300 3500 
L 978 3500 
L 1906 2253 
L 2834 3500 
L 3513 3500 
z
" transform="scale(0.015625)"/>
      </defs>
      <use xlink:href="#DejaVuSans-78"/>
     </g>
    </g>
   </g>
   <g id="matplotlib.axis_2">
    <g id="ytick_1">
     <g id="line2d_15">
      <path d="M 38.393938 261.720444 
L 395.513938 261.720444 
" clip-path="url(#p66bff94a96)" style="fill: none; stroke: #e5e5e5; stroke-width: 0.8"/>
     </g>
     <g id="line2d_16">
      <path d="M 38.393938 261.720444 
" style="fill: none; stroke: #000000; stroke-width: 1.5"/>
      <defs>
       <path id="ma55352d00c" d="M 0 0 
L -2.75 0 
" style="stroke: #333333"/>
      </defs>
      <g>
       <use xlink:href="#ma55352d00c" x="38.393938" y="261.720444" style="stroke: #333333"/>
      </g>
     </g>
     <g id="text_7">
      <!-- 0 -->
      <g style="fill: #4d4d4d" transform="translate(27.844938 264.148694) scale(0.088 -0.088)">
       <use xlink:href="#DejaVuSans-30"/>
      </g>
     </g>
    </g>
    <g id="ytick_2">
     <g id="line2d_17">
      <path d="M 38.393938 178.299754 
L 395.513938 178.299754 
" clip-path="url(#p66bff94a96)" style="fill: none; stroke: #e5e5e5; stroke-width: 0.8"/>
     </g>
     <g id="line2d_18">
      <path d="M 38.393938 178.299754 
" style="fill: none; stroke: #000000; stroke-width: 1.5"/>
      <g>
       <use xlink:href="#ma55352d00c" x="38.393938" y="178.299754" style="stroke: #333333"/>
      </g>
     </g>
     <g id="text_8">
      <!-- 10 -->
      <g style="fill: #4d4d4d" transform="translate(22.245938 180.728004) scale(0.088 -0.088)">
       <defs>
        <path id="DejaVuSans-31" d="M 794 531 
L 1825 531 
L 1825 4091 
L 703 3866 
L 703 4441 
L 1819 4666 
L 2450 4666 
L 2450 531 
L 3481 531 
L 3481 0 
L 794 0 
L 794 531 
z
" transform="scale(0.015625)"/>
       </defs>
       <use xlink:href="#DejaVuSans-31"/>
       <use xlink:href="#DejaVuSans-30" x="63.623047"/>
      </g>
     </g>
    </g>
    <g id="ytick_3">
     <g id="line2d_19">
      <path d="M 38.393938 94.879065 
L 395.513938 94.879065 
" clip-path="url(#p66bff94a96)" style="fill: none; stroke: #e5e5e5; stroke-width: 0.8"/>
     </g>
     <g id="line2d_20">
      <path d="M 38.393938 94.879065 
" style="fill: none; stroke: #000000; stroke-width: 1.5"/>
      <g>
       <use xlink:href="#ma55352d00c" x="38.393938" y="94.879065" style="stroke: #333333"/>
      </g>
     </g>
     <g id="text_9">
      <!-- 20 -->
      <g style="fill: #4d4d4d" transform="translate(22.245938 97.307315) scale(0.088 -0.088)">
       <use xlink:href="#DejaVuSans-32"/>
       <use xlink:href="#DejaVuSans-30" x="63.623047"/>
      </g>
     </g>
    </g>
    <g id="ytick_4">
     <g id="line2d_21">
      <path d="M 38.393938 11.458375 
L 395.513938 11.458375 
" clip-path="url(#p66bff94a96)" style="fill: none; stroke: #e5e5e5; stroke-width: 0.8"/>
     </g>
     <g id="line2d_22">
      <path d="M 38.393938 11.458375 
" style="fill: none; stroke: #000000; stroke-width: 1.5"/>
      <g>
       <use xlink:href="#ma55352d00c" x="38.393938" y="11.458375" style="stroke: #333333"/>
      </g>
     </g>
     <g id="text_10">
      <!-- 30 -->
      <g style="fill: #4d4d4d" transform="translate(22.245938 13.886625) scale(0.088 -0.088)">
       <defs>
        <path id="DejaVuSans-33" d="M 2597 2516 
Q 3050 2419 3304 2112 
Q 3559 1806 3559 1356 
Q 3559 666 3084 287 
Q 2609 -91 1734 -91 
Q 1441 -91 1130 -33 
Q 819 25 488 141 
L 488 750 
Q 750 597 1062 519 
Q 1375 441 1716 441 
Q 2309 441 2620 675 
Q 2931 909 2931 1356 
Q 2931 1769 2642 2001 
Q 2353 2234 1838 2234 
L 1294 2234 
L 1294 2753 
L 1863 2753 
Q 2328 2753 2575 2939 
Q 2822 3125 2822 3475 
Q 2822 3834 2567 4026 
Q 2313 4219 1838 4219 
Q 1578 4219 1281 4162 
Q 984 4106 628 3988 
L 628 4550 
Q 988 4650 1302 4700 
Q 1616 4750 1894 4750 
Q 2613 4750 3031 4423 
Q 3450 4097 3450 3541 
Q 3450 3153 3228 2886 
Q 3006 2619 2597 2516 
z
" transform="scale(0.015625)"/>
       </defs>
       <use xlink:href="#DejaVuSans-33"/>
       <use xlink:href="#DejaVuSans-30" x="63.623047"/>
      </g>
     </g>
    </g>
    <g id="ytick_5">
     <g id="line2d_23">
      <path d="M 38.393938 220.010099 
L 395.513938 220.010099 
" clip-path="url(#p66bff94a96)" style="fill: none; stroke: #fafafa"/>
     </g>
    </g>
    <g id="ytick_6">
     <g id="line2d_24">
      <path d="M 38.393938 136.589409 
L 395.513938 136.589409 
" clip-path="url(#p66bff94a96)" style="fill: none; stroke: #fafafa"/>
     </g>
    </g>
    <g id="ytick_7">
     <g id="line2d_25">
      <path d="M 38.393938 53.16872 
L 395.513938 53.16872 
" clip-path="url(#p66bff94a96)" style="fill: none; stroke: #fafafa"/>
     </g>
    </g>
    <g id="text_11">
     <!-- $N(x)$ -->
     <g transform="translate(15.558281 150.747444) rotate(-90) scale(0.11 -0.11)">
      <defs>
       <path id="DejaVuSans-Oblique-4e" d="M 1081 4666 
L 1931 4666 
L 3219 666 
L 4000 4666 
L 4616 4666 
L 3706 0 
L 2853 0 
L 1569 4025 
L 788 0 
L 172 0 
L 1081 4666 
z
" transform="scale(0.015625)"/>
       <path id="DejaVuSans-28" d="M 1984 4856 
Q 1566 4138 1362 3434 
Q 1159 2731 1159 2009 
Q 1159 1288 1364 580 
Q 1569 -128 1984 -844 
L 1484 -844 
Q 1016 -109 783 600 
Q 550 1309 550 2009 
Q 550 2706 781 3412 
Q 1013 4119 1484 4856 
L 1984 4856 
z
" transform="scale(0.015625)"/>
       <path id="DejaVuSans-Oblique-78" d="M 3841 3500 
L 2234 1784 
L 3219 0 
L 2559 0 
L 1819 1388 
L 531 0 
L -166 0 
L 1556 1844 
L 641 3500 
L 1300 3500 
L 1972 2234 
L 3144 3500 
L 3841 3500 
z
" transform="scale(0.015625)"/>
       <path id="DejaVuSans-29" d="M 513 4856 
L 1013 4856 
Q 1481 4119 1714 3412 
Q 1947 2706 1947 2009 
Q 1947 1309 1714 600 
Q 1481 -109 1013 -844 
L 513 -844 
Q 928 -128 1133 580 
Q 1338 1288 1338 2009 
Q 1338 2731 1133 3434 
Q 928 4138 513 4856 
z
" transform="scale(0.015625)"/>
      </defs>
      <use xlink:href="#DejaVuSans-Oblique-4e" transform="translate(0 0.125)"/>
      <use xlink:href="#DejaVuSans-28" transform="translate(74.804688 0.125)"/>
      <use xlink:href="#DejaVuSans-Oblique-78" transform="translate(113.818359 0.125)"/>
      <use xlink:href="#DejaVuSans-29" transform="translate(172.998047 0.125)"/>
     </g>
    </g>
   </g>
   <g id="line2d_26">
    <path d="M 54.626665 44.826651 
L 56.331101 44.826651 
L 56.452847 53.16872 
L 60.186374 53.16872 
L 60.308119 61.510789 
L 64.163392 61.510789 
L 64.285138 69.852858 
L 68.221574 69.852858 
L 68.343319 78.194927 
L 72.360919 78.194927 
L 72.482665 86.536996 
L 76.662592 86.536996 
L 76.784338 94.879065 
L 81.045428 94.879065 
L 81.167174 103.221134 
L 85.590592 103.221134 
L 85.712338 111.563203 
L 90.298083 111.563203 
L 90.419828 119.905272 
L 95.127319 119.905272 
L 95.249065 128.247341 
L 100.159465 128.247341 
L 100.28121 136.589409 
L 105.394519 136.589409 
L 105.516265 144.931478 
L 110.873065 144.931478 
L 110.99481 153.273547 
L 116.554519 153.273547 
L 116.676265 161.615616 
L 122.520047 161.615616 
L 122.641792 169.957685 
L 128.810228 169.957685 
L 128.931974 178.299754 
L 135.425065 178.299754 
L 135.54681 186.641823 
L 142.486301 186.641823 
L 142.608047 194.983892 
L 149.953356 194.983892 
L 150.075101 203.325961 
L 157.947974 203.325961 
L 158.069719 211.66803 
L 166.510738 211.66803 
L 166.551319 220.010099 
L 166.591901 211.66803 
L 166.673065 211.66803 
L 166.79481 220.010099 
L 175.72281 220.010099 
L 175.763392 228.352168 
L 175.803974 220.010099 
L 175.925719 220.010099 
L 176.047465 228.352168 
L 185.827683 228.352168 
L 185.949428 236.694237 
L 196.297792 236.694237 
L 196.338374 245.036306 
L 196.378956 236.694237 
L 196.419538 236.694237 
L 196.541283 245.036306 
L 206.646156 245.036306 
L 206.767901 253.378375 
L 214.762519 253.378375 
L 214.884265 261.720444 
L 219.104774 261.720444 
L 219.226519 253.378375 
L 227.139974 253.378375 
L 227.261719 245.036306 
L 237.447756 245.036306 
L 237.528919 236.694237 
L 237.569501 245.036306 
L 237.610083 236.694237 
L 247.958447 236.694237 
L 248.080192 228.352168 
L 257.941574 228.352168 
L 258.063319 220.010099 
L 258.103901 220.010099 
L 258.144483 228.352168 
L 258.185065 220.010099 
L 267.194228 220.010099 
L 267.315974 211.66803 
L 267.356556 220.010099 
L 267.397138 211.66803 
L 275.919319 211.66803 
L 276.041065 203.325961 
L 283.832774 203.325961 
L 283.873356 194.983892 
L 283.913938 203.325961 
L 283.995101 203.325961 
L 284.116847 194.983892 
L 291.299828 194.983892 
L 291.34041 186.641823 
L 291.380992 194.983892 
L 291.502738 194.983892 
L 291.624483 186.641823 
L 298.361065 186.641823 
L 298.48281 178.299754 
L 305.097647 178.299754 
L 305.219392 169.957685 
L 311.266083 169.957685 
L 311.387828 161.615616 
L 311.509574 169.957685 
L 311.631319 161.615616 
L 317.272192 161.615616 
L 317.353356 153.273547 
L 317.393938 161.615616 
L 317.434519 153.273547 
L 322.872483 153.273547 
L 322.953647 144.931478 
L 323.03481 153.273547 
L 323.156556 144.931478 
L 328.39161 144.931478 
L 328.472774 136.589409 
L 328.553938 144.931478 
L 328.675683 136.589409 
L 333.504919 136.589409 
L 333.545501 128.247341 
L 333.586083 136.589409 
L 333.626665 136.589409 
L 333.667247 128.247341 
L 333.707828 136.589409 
L 333.74841 136.589409 
L 333.870156 128.247341 
L 338.699392 128.247341 
L 338.821138 119.905272 
L 343.731538 119.905272 
L 343.853283 111.563203 
L 348.195538 111.563203 
L 348.276701 103.221134 
L 348.357865 111.563203 
L 348.47961 103.221134 
L 352.700119 103.221134 
L 352.821865 94.879065 
L 352.862447 94.879065 
L 352.903028 103.221134 
L 352.94361 94.879065 
L 357.123538 94.879065 
L 357.245283 86.536996 
L 361.42521 86.536996 
L 361.465792 78.194927 
L 361.506374 86.536996 
L 361.546956 86.536996 
L 361.668701 78.194927 
L 365.523974 78.194927 
L 365.645719 69.852858 
L 365.686301 78.194927 
L 365.726883 69.852858 
L 369.622738 69.852858 
L 369.663319 61.510789 
L 369.703901 69.852858 
L 369.744483 69.852858 
L 369.866228 61.510789 
L 373.640338 61.510789 
L 373.721501 53.16872 
L 373.762083 61.510789 
L 373.802665 53.16872 
L 377.49561 53.16872 
L 377.617356 44.826651 
L 379.28121 44.826651 
L 379.28121 44.826651 
" clip-path="url(#p66bff94a96)" style="fill: none; stroke: #db5f57; stroke-width: 0.886227"/>
   </g>
   <g id="line2d_27">
    <path d="M 54.626665 19.800444 
L 54.707828 19.800444 
L 54.829574 28.142513 
L 57.629719 28.142513 
L 57.751465 36.484582 
L 60.592192 36.484582 
L 60.713938 44.826651 
L 63.635828 44.826651 
L 63.757574 53.16872 
L 66.720047 53.16872 
L 66.841792 61.510789 
L 69.885428 61.510789 
L 70.007174 69.852858 
L 73.131974 69.852858 
L 73.253719 78.194927 
L 76.459683 78.194927 
L 76.581428 86.536996 
L 79.827974 86.536996 
L 79.949719 94.879065 
L 83.31801 94.879065 
L 83.439756 103.221134 
L 86.848628 103.221134 
L 86.970374 111.563203 
L 90.541574 111.563203 
L 90.663319 119.905272 
L 94.315683 119.905272 
L 94.437428 128.247341 
L 98.211538 128.247341 
L 98.333283 136.589409 
L 102.229138 136.589409 
L 102.350883 144.931478 
L 106.409065 144.931478 
L 106.53081 153.273547 
L 110.710738 153.273547 
L 110.832483 161.615616 
L 115.255901 161.615616 
L 115.377647 169.957685 
L 120.003974 169.957685 
L 120.125719 178.299754 
L 124.954956 178.299754 
L 125.076701 186.641823 
L 130.230592 186.641823 
L 130.352338 194.983892 
L 135.830883 194.983892 
L 135.952628 203.325961 
L 141.836992 203.325961 
L 141.958738 211.66803 
L 148.370665 211.66803 
L 148.49241 220.010099 
L 155.63481 220.010099 
L 155.756556 228.352168 
L 163.832338 228.352168 
L 163.954083 236.694237 
L 173.571974 236.694237 
L 173.693719 245.036306 
L 186.274083 245.036306 
L 186.395828 253.378375 
L 247.59321 253.378375 
L 247.714956 245.036306 
L 260.295319 245.036306 
L 260.417065 236.694237 
L 270.034956 236.694237 
L 270.156701 228.352168 
L 278.232483 228.352168 
L 278.354228 220.010099 
L 285.496628 220.010099 
L 285.618374 211.66803 
L 292.030301 211.66803 
L 292.152047 203.325961 
L 298.03641 203.325961 
L 298.158156 194.983892 
L 303.636701 194.983892 
L 303.758447 186.641823 
L 308.912338 186.641823 
L 309.034083 178.299754 
L 313.863319 178.299754 
L 313.985065 169.957685 
L 318.611392 169.957685 
L 318.733138 161.615616 
L 323.156556 161.615616 
L 323.278301 153.273547 
L 327.458228 153.273547 
L 327.579974 144.931478 
L 331.638156 144.931478 
L 331.759901 136.589409 
L 335.655756 136.589409 
L 335.777501 128.247341 
L 339.55161 128.247341 
L 339.673356 119.905272 
L 343.325719 119.905272 
L 343.447465 111.563203 
L 347.018665 111.563203 
L 347.14041 103.221134 
L 350.549283 103.221134 
L 350.671028 94.879065 
L 354.039319 94.879065 
L 354.161065 86.536996 
L 357.40761 86.536996 
L 357.529356 78.194927 
L 360.735319 78.194927 
L 360.857065 69.852858 
L 363.981865 69.852858 
L 364.10361 61.510789 
L 367.147247 61.510789 
L 367.268992 53.16872 
L 370.231465 53.16872 
L 370.35321 44.826651 
L 373.275101 44.826651 
L 373.396847 36.484582 
L 376.237574 36.484582 
L 376.359319 28.142513 
L 379.159465 28.142513 
L 379.28121 19.800444 
L 379.28121 19.800444 
" clip-path="url(#p66bff94a96)" style="fill: none; stroke: #91db57; stroke-width: 0.886227"/>
   </g>
   <g id="line2d_28">
    <path d="M 54.626665 211.66803 
L 60.348701 211.66803 
L 60.470447 220.010099 
L 69.276701 220.010099 
L 69.398447 228.352168 
L 79.178665 228.352168 
L 79.30041 236.694237 
L 90.419828 236.694237 
L 90.541574 245.036306 
L 103.771247 245.036306 
L 103.892992 253.378375 
L 121.221428 253.378375 
L 121.343174 261.720444 
L 204.29241 261.720444 
L 204.414156 253.378375 
L 221.742592 253.378375 
L 221.864338 245.036306 
L 235.09401 245.036306 
L 235.215756 236.694237 
L 246.335174 236.694237 
L 246.456919 228.352168 
L 256.237138 228.352168 
L 256.358883 220.010099 
L 265.165138 220.010099 
L 265.286883 211.66803 
L 273.403247 211.66803 
L 273.524992 203.325961 
L 281.07321 203.325961 
L 281.194956 194.983892 
L 288.256192 194.983892 
L 288.377938 186.641823 
L 295.073938 186.641823 
L 295.195683 178.299754 
L 301.526447 178.299754 
L 301.648192 169.957685 
L 307.694883 169.957685 
L 307.816628 161.615616 
L 313.619828 161.615616 
L 313.741574 153.273547 
L 319.341865 153.273547 
L 319.46361 144.931478 
L 324.82041 144.931478 
L 324.942156 136.589409 
L 330.136628 136.589409 
L 330.258374 128.247341 
L 335.290519 128.247341 
L 335.412265 119.905272 
L 340.322665 119.905272 
L 340.44441 111.563203 
L 345.192483 111.563203 
L 345.314228 103.221134 
L 349.940556 103.221134 
L 350.062301 94.879065 
L 354.566883 94.879065 
L 354.688628 86.536996 
L 359.071465 86.536996 
L 359.19321 78.194927 
L 363.494883 78.194927 
L 363.616628 69.852858 
L 367.796556 69.852858 
L 367.918301 61.510789 
L 372.017065 61.510789 
L 372.13881 53.16872 
L 376.196992 53.16872 
L 376.318738 44.826651 
L 379.28121 44.826651 
L 379.28121 44.826651 
" clip-path="url(#p66bff94a96)" style="fill: none; stroke: #57d3db; stroke-width: 0.886227"/>
   </g>
   <g id="line2d_29">
    <path d="M 54.626665 44.826651 
L 55.64121 44.826651 
L 55.762956 53.16872 
L 59.739974 53.16872 
L 59.861719 61.510789 
L 63.919901 61.510789 
L 64.041647 69.852858 
L 68.221574 69.852858 
L 68.343319 78.194927 
L 72.563828 78.194927 
L 72.685574 86.536996 
L 77.027828 86.536996 
L 77.149574 94.879065 
L 81.613574 94.879065 
L 81.735319 103.221134 
L 86.280483 103.221134 
L 86.402228 111.563203 
L 91.109719 111.563203 
L 91.231465 119.905272 
L 96.020119 119.905272 
L 96.141865 128.247341 
L 101.133428 128.247341 
L 101.255174 136.589409 
L 106.368483 136.589409 
L 106.490228 144.931478 
L 111.765865 144.931478 
L 111.88761 153.273547 
L 117.366156 153.273547 
L 117.487901 161.615616 
L 123.169356 161.615616 
L 123.291101 169.957685 
L 129.216047 169.957685 
L 129.337792 178.299754 
L 135.54681 178.299754 
L 135.668556 186.641823 
L 142.161647 186.641823 
L 142.283392 194.983892 
L 149.141719 194.983892 
L 149.263465 203.325961 
L 156.568192 203.325961 
L 156.689938 211.66803 
L 164.481647 211.66803 
L 164.603392 220.010099 
L 173.04441 220.010099 
L 173.166156 228.352168 
L 182.459392 228.352168 
L 182.581138 236.694237 
L 192.929501 236.694237 
L 193.051247 245.036306 
L 205.104047 245.036306 
L 205.225792 253.378375 
L 228.763247 253.378375 
L 228.884992 245.036306 
L 240.937792 245.036306 
L 241.059538 236.694237 
L 251.407901 236.694237 
L 251.529647 228.352168 
L 260.822883 228.352168 
L 260.944628 220.010099 
L 269.385647 220.010099 
L 269.507392 211.66803 
L 277.299101 211.66803 
L 277.420847 203.325961 
L 284.725574 203.325961 
L 284.847319 194.983892 
L 291.705647 194.983892 
L 291.827392 186.641823 
L 298.320483 186.641823 
L 298.442228 178.299754 
L 304.651247 178.299754 
L 304.772992 169.957685 
L 310.697938 169.957685 
L 310.819683 161.615616 
L 316.501138 161.615616 
L 316.622883 153.273547 
L 322.101428 153.273547 
L 322.223174 144.931478 
L 327.49881 144.931478 
L 327.620556 136.589409 
L 332.733865 136.589409 
L 332.85561 128.247341 
L 337.847174 128.247341 
L 337.968919 119.905272 
L 342.757574 119.905272 
L 342.879319 111.563203 
L 347.58681 111.563203 
L 347.708556 103.221134 
L 352.253719 103.221134 
L 352.375465 94.879065 
L 356.839465 94.879065 
L 356.96121 86.536996 
L 361.303465 86.536996 
L 361.42521 78.194927 
L 365.645719 78.194927 
L 365.767465 69.852858 
L 369.947392 69.852858 
L 370.069138 61.510789 
L 374.127319 61.510789 
L 374.249065 53.16872 
L 378.226083 53.16872 
L 378.347828 44.826651 
L 379.28121 44.826651 
L 379.28121 44.826651 
" clip-path="url(#p66bff94a96)" style="fill: none; stroke: #a157db; stroke-width: 0.886227"/>
   </g>
   <g id="patch_3">
    <path d="M 402.713938 193.435413 
L 468.833938 193.435413 
L 468.833938 84.629475 
L 402.713938 84.629475 
z
" style="fill: #ffffff"/>
   </g>
   <g id="text_12">
    <!-- Method -->
    <g transform="translate(414.913938 108.223069) scale(0.11 -0.11)">
     <defs>
      <path id="DejaVuSans-4d" d="M 628 4666 
L 1569 4666 
L 2759 1491 
L 3956 4666 
L 4897 4666 
L 4897 0 
L 4281 0 
L 4281 4097 
L 3078 897 
L 2444 897 
L 1241 4097 
L 1241 0 
L 628 0 
L 628 4666 
z
" transform="scale(0.015625)"/>
      <path id="DejaVuSans-65" d="M 3597 1894 
L 3597 1613 
L 953 1613 
Q 991 1019 1311 708 
Q 1631 397 2203 397 
Q 2534 397 2845 478 
Q 3156 559 3463 722 
L 3463 178 
Q 3153 47 2828 -22 
Q 2503 -91 2169 -91 
Q 1331 -91 842 396 
Q 353 884 353 1716 
Q 353 2575 817 3079 
Q 1281 3584 2069 3584 
Q 2775 3584 3186 3129 
Q 3597 2675 3597 1894 
z
M 3022 2063 
Q 3016 2534 2758 2815 
Q 2500 3097 2075 3097 
Q 1594 3097 1305 2825 
Q 1016 2553 972 2059 
L 3022 2063 
z
" transform="scale(0.015625)"/>
      <path id="DejaVuSans-74" d="M 1172 4494 
L 1172 3500 
L 2356 3500 
L 2356 3053 
L 1172 3053 
L 1172 1153 
Q 1172 725 1289 603 
Q 1406 481 1766 481 
L 2356 481 
L 2356 0 
L 1766 0 
Q 1100 0 847 248 
Q 594 497 594 1153 
L 594 3053 
L 172 3053 
L 172 3500 
L 594 3500 
L 594 4494 
L 1172 4494 
z
" transform="scale(0.015625)"/>
      <path id="DejaVuSans-68" d="M 3513 2113 
L 3513 0 
L 2938 0 
L 2938 2094 
Q 2938 2591 2744 2837 
Q 2550 3084 2163 3084 
Q 1697 3084 1428 2787 
Q 1159 2491 1159 1978 
L 1159 0 
L 581 0 
L 581 4863 
L 1159 4863 
L 1159 2956 
Q 1366 3272 1645 3428 
Q 1925 3584 2291 3584 
Q 2894 3584 3203 3211 
Q 3513 2838 3513 2113 
z
" transform="scale(0.015625)"/>
      <path id="DejaVuSans-6f" d="M 1959 3097 
Q 1497 3097 1228 2736 
Q 959 2375 959 1747 
Q 959 1119 1226 758 
Q 1494 397 1959 397 
Q 2419 397 2687 759 
Q 2956 1122 2956 1747 
Q 2956 2369 2687 2733 
Q 2419 3097 1959 3097 
z
M 1959 3584 
Q 2709 3584 3137 3096 
Q 3566 2609 3566 1747 
Q 3566 888 3137 398 
Q 2709 -91 1959 -91 
Q 1206 -91 779 398 
Q 353 888 353 1747 
Q 353 2609 779 3096 
Q 1206 3584 1959 3584 
z
" transform="scale(0.015625)"/>
      <path id="DejaVuSans-64" d="M 2906 2969 
L 2906 4863 
L 3481 4863 
L 3481 0 
L 2906 0 
L 2906 525 
Q 2725 213 2448 61 
Q 2172 -91 1784 -91 
Q 1150 -91 751 415 
Q 353 922 353 1747 
Q 353 2572 751 3078 
Q 1150 3584 1784 3584 
Q 2172 3584 2448 3432 
Q 2725 3281 2906 2969 
z
M 947 1747 
Q 947 1113 1208 752 
Q 1469 391 1925 391 
Q 2381 391 2643 752 
Q 2906 1113 2906 1747 
Q 2906 2381 2643 2742 
Q 2381 3103 1925 3103 
Q 1469 3103 1208 2742 
Q 947 2381 947 1747 
z
" transform="scale(0.015625)"/>
     </defs>
     <use xlink:href="#DejaVuSans-4d"/>
     <use xlink:href="#DejaVuSans-65" x="86.279297"/>
     <use xlink:href="#DejaVuSans-74" x="147.802734"/>
     <use xlink:href="#DejaVuSans-68" x="187.011719"/>
     <use xlink:href="#DejaVuSans-6f" x="250.390625"/>
     <use xlink:href="#DejaVuSans-64" x="311.572266"/>
    </g>
   </g>
   <g id="patch_4">
    <path d="M 414.913938 127.715413 
L 430.753938 127.715413 
L 430.753938 111.875413 
L 414.913938 111.875413 
z
" clip-path="url(#p376b5a8fef)" style="fill: #f2f2f2; stroke: #cccccc; stroke-linejoin: miter"/>
   </g>
   <g id="line2d_30">
    <path d="M 414.913938 119.795413 
L 430.753938 119.795413 
" clip-path="url(#p376b5a8fef)" style="fill: none; stroke: #db5f57; stroke-width: 0.886227"/>
   </g>
   <g id="text_13">
    <!-- $N_{1}(x)$ -->
    <g transform="translate(433.753938 122.223663) scale(0.088 -0.088)">
     <use xlink:href="#DejaVuSans-Oblique-4e" transform="translate(0 0.125)"/>
     <use xlink:href="#DejaVuSans-31" transform="translate(74.804688 -16.28125) scale(0.7)"/>
     <use xlink:href="#DejaVuSans-28" transform="translate(122.075195 0.125)"/>
     <use xlink:href="#DejaVuSans-Oblique-78" transform="translate(161.088867 0.125)"/>
     <use xlink:href="#DejaVuSans-29" transform="translate(220.268555 0.125)"/>
    </g>
   </g>
   <g id="patch_5">
    <path d="M 414.913938 145.555413 
L 430.753938 145.555413 
L 430.753938 129.715413 
L 414.913938 129.715413 
z
" clip-path="url(#pcbcaa34fac)" style="fill: #f2f2f2; stroke: #cccccc; stroke-linejoin: miter"/>
   </g>
   <g id="line2d_31">
    <path d="M 414.913938 137.635413 
L 430.753938 137.635413 
" clip-path="url(#pcbcaa34fac)" style="fill: none; stroke: #91db57; stroke-width: 0.886227"/>
   </g>
   <g id="text_14">
    <!-- $N_{2}(x)$ -->
    <g transform="translate(433.753938 140.063663) scale(0.088 -0.088)">
     <use xlink:href="#DejaVuSans-Oblique-4e" transform="translate(0 0.125)"/>
     <use xlink:href="#DejaVuSans-32" transform="translate(74.804688 -16.28125) scale(0.7)"/>
     <use xlink:href="#DejaVuSans-28" transform="translate(122.075195 0.125)"/>
     <use xlink:href="#DejaVuSans-Oblique-78" transform="translate(161.088867 0.125)"/>
     <use xlink:href="#DejaVuSans-29" transform="translate(220.268555 0.125)"/>
    </g>
   </g>
   <g id="patch_6">
    <path d="M 414.913938 163.395413 
L 430.753938 163.395413 
L 430.753938 147.555413 
L 414.913938 147.555413 
z
" clip-path="url(#p3ed3681fcd)" style="fill: #f2f2f2; stroke: #cccccc; stroke-linejoin: miter"/>
   </g>
   <g id="line2d_32">
    <path d="M 414.913938 155.475413 
L 430.753938 155.475413 
" clip-path="url(#p3ed3681fcd)" style="fill: none; stroke: #57d3db; stroke-width: 0.886227"/>
   </g>
   <g id="text_15">
    <!-- $N_{3}(x)$ -->
    <g transform="translate(433.753938 157.903663) scale(0.088 -0.088)">
     <use xlink:href="#DejaVuSans-Oblique-4e" transform="translate(0 0.125)"/>
     <use xlink:href="#DejaVuSans-33" transform="translate(74.804688 -16.28125) scale(0.7)"/>
     <use xlink:href="#DejaVuSans-28" transform="translate(122.075195 0.125)"/>
     <use xlink:href="#DejaVuSans-Oblique-78" transform="translate(161.088867 0.125)"/>
     <use xlink:href="#DejaVuSans-29" transform="translate(220.268555 0.125)"/>
    </g>
   </g>
   <g id="patch_7">
    <path d="M 414.913938 181.235413 
L 430.753938 181.235413 
L 430.753938 165.395413 
L 414.913938 165.395413 
z
" clip-path="url(#p495f7f075b)" style="fill: #f2f2f2; stroke: #cccccc; stroke-linejoin: miter"/>
   </g>
   <g id="line2d_33">
    <path d="M 414.913938 173.315413 
L 430.753938 173.315413 
" clip-path="url(#p495f7f075b)" style="fill: none; stroke: #a157db; stroke-width: 0.886227"/>
   </g>
   <g id="text_16">
    <!-- $N_{4}(x)$ -->
    <g transform="translate(433.753938 175.743663) scale(0.088 -0.088)">
     <use xlink:href="#DejaVuSans-Oblique-4e" transform="translate(0 0.125)"/>
     <use xlink:href="#DejaVuSans-34" transform="translate(74.804688 -16.28125) scale(0.7)"/>
     <use xlink:href="#DejaVuSans-28" transform="translate(122.075195 0.125)"/>
     <use xlink:href="#DejaVuSans-Oblique-78" transform="translate(161.088867 0.125)"/>
     <use xlink:href="#DejaVuSans-29" transform="translate(220.268555 0.125)"/>
    </g>
   </g>
  </g>
 </g>
 <defs>
  <clipPath id="p66bff94a96">
   <rect x="38.393938" y="7.704444" width="357.12" height="266.112"/>
  </clipPath>
  <clipPath id="p376b5a8fef">
   <path d="M 414.913938 127.715413 
L 414.913938 111.875413 
L 430.753938 111.875413 
L 430.753938 127.715413 
"/>
  </clipPath>
  <clipPath id="pcbcaa34fac">
   <path d="M 414.913938 145.555413 
L 414.913938 129.715413 
L 430.753938 129.715413 
L 430.753938 145.555413 
"/>
  </clipPath>
  <clipPath id="p3ed3681fcd">
   <path d="M 414.913938 163.395413 
L 414.913938 147.555413 
L 430.753938 147.555413 
L 430.753938 163.395413 
"/>
  </clipPath>
  <clipPath id="p495f7f075b">
   <path d="M 414.913938 181.235413 
L 414.913938 165.395413 
L 430.753938 165.395413 
L 430.753938 181.235413 
"/>
  </clipPath>
 </defs>
</svg>
