<?xml version="1.0" encoding="utf-8" standalone="no"?>
<!DOCTYPE svg PUBLIC "-//W3C//DTD SVG 1.1//EN"
  "http://www.w3.org/Graphics/SVG/1.1/DTD/svg11.dtd">
<svg xmlns:xlink="http://www.w3.org/1999/xlink" width="411.109687pt" height="323.324688pt" viewBox="0 0 411.109687 323.324688" xmlns="http://www.w3.org/2000/svg" version="1.1">
 <metadata>
  <rdf:RDF xmlns:dc="http://purl.org/dc/elements/1.1/" xmlns:cc="http://creativecommons.org/ns#" xmlns:rdf="http://www.w3.org/1999/02/22-rdf-syntax-ns#">
   <cc:Work>
    <dc:type rdf:resource="http://purl.org/dc/dcmitype/StillImage"/>
    <dc:date>2023-04-24T04:08:09.963860</dc:date>
    <dc:format>image/svg+xml</dc:format>
    <dc:creator>
     <cc:Agent>
      <dc:title>Matplotlib v3.7.1, https://matplotlib.org/</dc:title>
     </cc:Agent>
    </dc:creator>
   </cc:Work>
  </rdf:RDF>
 </metadata>
 <defs>
  <style type="text/css">*{stroke-linejoin: round; stroke-linecap: butt}</style>
 </defs>
 <g id="figure_1">
  <g id="patch_1">
   <path d="M 0 323.324688 
L 411.109687 323.324688 
L 411.109687 0 
L 0 0 
z
" style="fill: #ffffff; stroke: #ffffff; stroke-linejoin: miter"/>
  </g>
  <g id="axes_1">
   <g id="patch_2">
    <path d="M 46.789688 287.612 
L 162.469688 287.612 
L 162.469688 21.5 
L 46.789688 21.5 
z
" style="fill: #ffffff; stroke: #7f7f7f; stroke-linejoin: miter"/>
   </g>
   <g id="matplotlib.axis_1">
    <g id="xtick_1">
     <g id="line2d_1">
      <path d="M 52.047869 287.612 
L 52.047869 21.5 
" clip-path="url(#p0b47123393)" style="fill: none; stroke: #e5e5e5; stroke-width: 0.8"/>
     </g>
     <g id="line2d_2">
      <path d="M 52.047869 287.612 
" style="fill: none; stroke: #000000; stroke-width: 1.5"/>
      <defs>
       <path id="m56a01b4de3" d="M 0 0 
L 0 2.75 
" style="stroke: #333333"/>
      </defs>
      <g>
       <use xlink:href="#m56a01b4de3" x="52.047869" y="287.612" style="stroke: #333333"/>
      </g>
     </g>
     <g id="text_1">
      <!-- −4 -->
      <g style="fill: #4d4d4d" transform="translate(45.561307 299.248625) scale(0.088 -0.088)">
       <defs>
        <path id="DejaVuSans-2212" d="M 678 2272 
L 4684 2272 
L 4684 1741 
L 678 1741 
L 678 2272 
z
" transform="scale(0.015625)"/>
        <path id="DejaVuSans-34" d="M 2419 4116 
L 825 1625 
L 2419 1625 
L 2419 4116 
z
M 2253 4666 
L 3047 4666 
L 3047 1625 
L 3713 1625 
L 3713 1100 
L 3047 1100 
L 3047 0 
L 2419 0 
L 2419 1100 
L 313 1100 
L 313 1709 
L 2253 4666 
z
" transform="scale(0.015625)"/>
       </defs>
       <use xlink:href="#DejaVuSans-2212"/>
       <use xlink:href="#DejaVuSans-34" x="83.789062"/>
      </g>
     </g>
    </g>
    <g id="xtick_2">
     <g id="line2d_3">
      <path d="M 78.338778 287.612 
L 78.338778 21.5 
" clip-path="url(#p0b47123393)" style="fill: none; stroke: #e5e5e5; stroke-width: 0.8"/>
     </g>
     <g id="line2d_4">
      <path d="M 78.338778 287.612 
" style="fill: none; stroke: #000000; stroke-width: 1.5"/>
      <g>
       <use xlink:href="#m56a01b4de3" x="78.338778" y="287.612" style="stroke: #333333"/>
      </g>
     </g>
     <g id="text_2">
      <!-- −2 -->
      <g style="fill: #4d4d4d" transform="translate(71.852216 299.248625) scale(0.088 -0.088)">
       <defs>
        <path id="DejaVuSans-32" d="M 1228 531 
L 3431 531 
L 3431 0 
L 469 0 
L 469 531 
Q 828 903 1448 1529 
Q 2069 2156 2228 2338 
Q 2531 2678 2651 2914 
Q 2772 3150 2772 3378 
Q 2772 3750 2511 3984 
Q 2250 4219 1831 4219 
Q 1534 4219 1204 4116 
Q 875 4013 500 3803 
L 500 4441 
Q 881 4594 1212 4672 
Q 1544 4750 1819 4750 
Q 2544 4750 2975 4387 
Q 3406 4025 3406 3419 
Q 3406 3131 3298 2873 
Q 3191 2616 2906 2266 
Q 2828 2175 2409 1742 
Q 1991 1309 1228 531 
z
" transform="scale(0.015625)"/>
       </defs>
       <use xlink:href="#DejaVuSans-2212"/>
       <use xlink:href="#DejaVuSans-32" x="83.789062"/>
      </g>
     </g>
    </g>
    <g id="xtick_3">
     <g id="line2d_5">
      <path d="M 104.629688 287.612 
L 104.629688 21.5 
" clip-path="url(#p0b47123393)" style="fill: none; stroke: #e5e5e5; stroke-width: 0.8"/>
     </g>
     <g id="line2d_6">
      <path d="M 104.629688 287.612 
" style="fill: none; stroke: #000000; stroke-width: 1.5"/>
      <g>
       <use xlink:href="#m56a01b4de3" x="104.629688" y="287.612" style="stroke: #333333"/>
      </g>
     </g>
     <g id="text_3">
      <!-- 0 -->
      <g style="fill: #4d4d4d" transform="translate(101.830188 299.248625) scale(0.088 -0.088)">
       <defs>
        <path id="DejaVuSans-30" d="M 2034 4250 
Q 1547 4250 1301 3770 
Q 1056 3291 1056 2328 
Q 1056 1369 1301 889 
Q 1547 409 2034 409 
Q 2525 409 2770 889 
Q 3016 1369 3016 2328 
Q 3016 3291 2770 3770 
Q 2525 4250 2034 4250 
z
M 2034 4750 
Q 2819 4750 3233 4129 
Q 3647 3509 3647 2328 
Q 3647 1150 3233 529 
Q 2819 -91 2034 -91 
Q 1250 -91 836 529 
Q 422 1150 422 2328 
Q 422 3509 836 4129 
Q 1250 4750 2034 4750 
z
" transform="scale(0.015625)"/>
       </defs>
       <use xlink:href="#DejaVuSans-30"/>
      </g>
     </g>
    </g>
    <g id="xtick_4">
     <g id="line2d_7">
      <path d="M 130.920597 287.612 
L 130.920597 21.5 
" clip-path="url(#p0b47123393)" style="fill: none; stroke: #e5e5e5; stroke-width: 0.8"/>
     </g>
     <g id="line2d_8">
      <path d="M 130.920597 287.612 
" style="fill: none; stroke: #000000; stroke-width: 1.5"/>
      <g>
       <use xlink:href="#m56a01b4de3" x="130.920597" y="287.612" style="stroke: #333333"/>
      </g>
     </g>
     <g id="text_4">
      <!-- 2 -->
      <g style="fill: #4d4d4d" transform="translate(128.121097 299.248625) scale(0.088 -0.088)">
       <use xlink:href="#DejaVuSans-32"/>
      </g>
     </g>
    </g>
    <g id="xtick_5">
     <g id="line2d_9">
      <path d="M 157.211506 287.612 
L 157.211506 21.5 
" clip-path="url(#p0b47123393)" style="fill: none; stroke: #e5e5e5; stroke-width: 0.8"/>
     </g>
     <g id="line2d_10">
      <path d="M 157.211506 287.612 
" style="fill: none; stroke: #000000; stroke-width: 1.5"/>
      <g>
       <use xlink:href="#m56a01b4de3" x="157.211506" y="287.612" style="stroke: #333333"/>
      </g>
     </g>
     <g id="text_5">
      <!-- 4 -->
      <g style="fill: #4d4d4d" transform="translate(154.412006 299.248625) scale(0.088 -0.088)">
       <use xlink:href="#DejaVuSans-34"/>
      </g>
     </g>
    </g>
    <g id="xtick_6">
     <g id="line2d_11">
      <path d="M 65.193324 287.612 
L 65.193324 21.5 
" clip-path="url(#p0b47123393)" style="fill: none; stroke: #fafafa"/>
     </g>
    </g>
    <g id="xtick_7">
     <g id="line2d_12">
      <path d="M 91.484233 287.612 
L 91.484233 21.5 
" clip-path="url(#p0b47123393)" style="fill: none; stroke: #fafafa"/>
     </g>
    </g>
    <g id="xtick_8">
     <g id="line2d_13">
      <path d="M 117.775142 287.612 
L 117.775142 21.5 
" clip-path="url(#p0b47123393)" style="fill: none; stroke: #fafafa"/>
     </g>
    </g>
    <g id="xtick_9">
     <g id="line2d_14">
      <path d="M 144.066051 287.612 
L 144.066051 21.5 
" clip-path="url(#p0b47123393)" style="fill: none; stroke: #fafafa"/>
     </g>
    </g>
   </g>
   <g id="matplotlib.axis_2">
    <g id="ytick_1">
     <g id="line2d_15">
      <path d="M 46.789688 275.516 
L 162.469688 275.516 
" clip-path="url(#p0b47123393)" style="fill: none; stroke: #e5e5e5; stroke-width: 0.8"/>
     </g>
     <g id="line2d_16">
      <path d="M 46.789688 275.516 
" style="fill: none; stroke: #000000; stroke-width: 1.5"/>
      <defs>
       <path id="mb26bd75274" d="M 0 0 
L -2.75 0 
" style="stroke: #333333"/>
      </defs>
      <g>
       <use xlink:href="#mb26bd75274" x="46.789688" y="275.516" style="stroke: #333333"/>
      </g>
     </g>
     <g id="text_6">
      <!-- 0 -->
      <g style="fill: #4d4d4d" transform="translate(36.240688 277.94425) scale(0.088 -0.088)">
       <use xlink:href="#DejaVuSans-30"/>
      </g>
     </g>
    </g>
    <g id="ytick_2">
     <g id="line2d_17">
      <path d="M 46.789688 215.036 
L 162.469688 215.036 
" clip-path="url(#p0b47123393)" style="fill: none; stroke: #e5e5e5; stroke-width: 0.8"/>
     </g>
     <g id="line2d_18">
      <path d="M 46.789688 215.036 
" style="fill: none; stroke: #000000; stroke-width: 1.5"/>
      <g>
       <use xlink:href="#mb26bd75274" x="46.789688" y="215.036" style="stroke: #333333"/>
      </g>
     </g>
     <g id="text_7">
      <!-- 0.25 -->
      <g style="fill: #4d4d4d" transform="translate(22.245938 217.46425) scale(0.088 -0.088)">
       <defs>
        <path id="DejaVuSans-2e" d="M 684 794 
L 1344 794 
L 1344 0 
L 684 0 
L 684 794 
z
" transform="scale(0.015625)"/>
        <path id="DejaVuSans-35" d="M 691 4666 
L 3169 4666 
L 3169 4134 
L 1269 4134 
L 1269 2991 
Q 1406 3038 1543 3061 
Q 1681 3084 1819 3084 
Q 2600 3084 3056 2656 
Q 3513 2228 3513 1497 
Q 3513 744 3044 326 
Q 2575 -91 1722 -91 
Q 1428 -91 1123 -41 
Q 819 9 494 109 
L 494 744 
Q 775 591 1075 516 
Q 1375 441 1709 441 
Q 2250 441 2565 725 
Q 2881 1009 2881 1497 
Q 2881 1984 2565 2268 
Q 2250 2553 1709 2553 
Q 1456 2553 1204 2497 
Q 953 2441 691 2322 
L 691 4666 
z
" transform="scale(0.015625)"/>
       </defs>
       <use xlink:href="#DejaVuSans-30"/>
       <use xlink:href="#DejaVuSans-2e" x="63.623047"/>
       <use xlink:href="#DejaVuSans-32" x="95.410156"/>
       <use xlink:href="#DejaVuSans-35" x="159.033203"/>
      </g>
     </g>
    </g>
    <g id="ytick_3">
     <g id="line2d_19">
      <path d="M 46.789688 154.556 
L 162.469688 154.556 
" clip-path="url(#p0b47123393)" style="fill: none; stroke: #e5e5e5; stroke-width: 0.8"/>
     </g>
     <g id="line2d_20">
      <path d="M 46.789688 154.556 
" style="fill: none; stroke: #000000; stroke-width: 1.5"/>
      <g>
       <use xlink:href="#mb26bd75274" x="46.789688" y="154.556" style="stroke: #333333"/>
      </g>
     </g>
     <g id="text_8">
      <!-- 0.50 -->
      <g style="fill: #4d4d4d" transform="translate(22.245938 156.98425) scale(0.088 -0.088)">
       <use xlink:href="#DejaVuSans-30"/>
       <use xlink:href="#DejaVuSans-2e" x="63.623047"/>
       <use xlink:href="#DejaVuSans-35" x="95.410156"/>
       <use xlink:href="#DejaVuSans-30" x="159.033203"/>
      </g>
     </g>
    </g>
    <g id="ytick_4">
     <g id="line2d_21">
      <path d="M 46.789688 94.076 
L 162.469688 94.076 
" clip-path="url(#p0b47123393)" style="fill: none; stroke: #e5e5e5; stroke-width: 0.8"/>
     </g>
     <g id="line2d_22">
      <path d="M 46.789688 94.076 
" style="fill: none; stroke: #000000; stroke-width: 1.5"/>
      <g>
       <use xlink:href="#mb26bd75274" x="46.789688" y="94.076" style="stroke: #333333"/>
      </g>
     </g>
     <g id="text_9">
      <!-- 0.75 -->
      <g style="fill: #4d4d4d" transform="translate(22.245938 96.50425) scale(0.088 -0.088)">
       <defs>
        <path id="DejaVuSans-37" d="M 525 4666 
L 3525 4666 
L 3525 4397 
L 1831 0 
L 1172 0 
L 2766 4134 
L 525 4134 
L 525 4666 
z
" transform="scale(0.015625)"/>
       </defs>
       <use xlink:href="#DejaVuSans-30"/>
       <use xlink:href="#DejaVuSans-2e" x="63.623047"/>
       <use xlink:href="#DejaVuSans-37" x="95.410156"/>
       <use xlink:href="#DejaVuSans-35" x="159.033203"/>
      </g>
     </g>
    </g>
    <g id="ytick_5">
     <g id="line2d_23">
      <path d="M 46.789688 33.596 
L 162.469688 33.596 
" clip-path="url(#p0b47123393)" style="fill: none; stroke: #e5e5e5; stroke-width: 0.8"/>
     </g>
     <g id="line2d_24">
      <path d="M 46.789688 33.596 
" style="fill: none; stroke: #000000; stroke-width: 1.5"/>
      <g>
       <use xlink:href="#mb26bd75274" x="46.789688" y="33.596" style="stroke: #333333"/>
      </g>
     </g>
     <g id="text_10">
      <!-- 1 -->
      <g style="fill: #4d4d4d" transform="translate(36.240688 36.02425) scale(0.088 -0.088)">
       <defs>
        <path id="DejaVuSans-31" d="M 794 531 
L 1825 531 
L 1825 4091 
L 703 3866 
L 703 4441 
L 1819 4666 
L 2450 4666 
L 2450 531 
L 3481 531 
L 3481 0 
L 794 0 
L 794 531 
z
" transform="scale(0.015625)"/>
       </defs>
       <use xlink:href="#DejaVuSans-31"/>
      </g>
     </g>
    </g>
    <g id="ytick_6">
     <g id="line2d_25">
      <path d="M 46.789688 245.276 
L 162.469688 245.276 
" clip-path="url(#p0b47123393)" style="fill: none; stroke: #fafafa"/>
     </g>
    </g>
    <g id="ytick_7">
     <g id="line2d_26">
      <path d="M 46.789688 184.796 
L 162.469688 184.796 
" clip-path="url(#p0b47123393)" style="fill: none; stroke: #fafafa"/>
     </g>
    </g>
    <g id="ytick_8">
     <g id="line2d_27">
      <path d="M 46.789688 124.316 
L 162.469688 124.316 
" clip-path="url(#p0b47123393)" style="fill: none; stroke: #fafafa"/>
     </g>
    </g>
    <g id="ytick_9">
     <g id="line2d_28">
      <path d="M 46.789688 63.836 
L 162.469688 63.836 
" clip-path="url(#p0b47123393)" style="fill: none; stroke: #fafafa"/>
     </g>
    </g>
    <g id="text_11">
     <!-- $\Phi(x)$ -->
     <g transform="translate(15.558281 164.708) rotate(-90) scale(0.11 -0.11)">
      <defs>
       <path id="DejaVuSans-3a6" d="M 2206 3644 
Q 1738 3578 1431 3306 
Q 1025 2947 1025 2328 
Q 1025 1713 1431 1353 
Q 1738 1081 2206 1016 
L 2206 3644 
z
M 2838 1016 
Q 3306 1081 3613 1353 
Q 4013 1713 4013 2328 
Q 4013 2947 3613 3306 
Q 3306 3578 2838 3644 
L 2838 1016 
z
M 2206 494 
Q 1444 563 950 981 
Q 359 1481 359 2328 
Q 359 3175 950 3678 
Q 1441 4100 2206 4169 
L 2206 4666 
L 2838 4666 
L 2838 4169 
Q 3600 4097 4091 3678 
Q 4678 3175 4678 2328 
Q 4678 1484 4091 981 
Q 3600 563 2838 491 
L 2838 0 
L 2206 0 
L 2206 494 
z
" transform="scale(0.015625)"/>
       <path id="DejaVuSans-28" d="M 1984 4856 
Q 1566 4138 1362 3434 
Q 1159 2731 1159 2009 
Q 1159 1288 1364 580 
Q 1569 -128 1984 -844 
L 1484 -844 
Q 1016 -109 783 600 
Q 550 1309 550 2009 
Q 550 2706 781 3412 
Q 1013 4119 1484 4856 
L 1984 4856 
z
" transform="scale(0.015625)"/>
       <path id="DejaVuSans-Oblique-78" d="M 3841 3500 
L 2234 1784 
L 3219 0 
L 2559 0 
L 1819 1388 
L 531 0 
L -166 0 
L 1556 1844 
L 641 3500 
L 1300 3500 
L 1972 2234 
L 3144 3500 
L 3841 3500 
z
" transform="scale(0.015625)"/>
       <path id="DejaVuSans-29" d="M 513 4856 
L 1013 4856 
Q 1481 4119 1714 3412 
Q 1947 2706 1947 2009 
Q 1947 1309 1714 600 
Q 1481 -109 1013 -844 
L 513 -844 
Q 928 -128 1133 580 
Q 1338 1288 1338 2009 
Q 1338 2731 1133 3434 
Q 928 4138 513 4856 
z
" transform="scale(0.015625)"/>
      </defs>
      <use xlink:href="#DejaVuSans-3a6" transform="translate(0 0.125)"/>
      <use xlink:href="#DejaVuSans-28" transform="translate(78.710938 0.125)"/>
      <use xlink:href="#DejaVuSans-Oblique-78" transform="translate(117.724609 0.125)"/>
      <use xlink:href="#DejaVuSans-29" transform="translate(176.904297 0.125)"/>
     </g>
    </g>
   </g>
   <g id="line2d_29">
    <path d="M 52.047869 275.508338 
L 61.90696 275.376406 
L 66.113506 275.105992 
L 69.005506 274.702142 
L 71.240233 274.175129 
L 73.212051 273.478021 
L 74.92096 272.634581 
L 76.498415 271.602367 
L 77.944415 270.392553 
L 79.390415 268.880388 
L 80.836415 267.013022 
L 82.15096 264.96032 
L 83.59696 262.258955 
L 85.04296 259.038316 
L 86.48896 255.244719 
L 87.93496 250.829923 
L 89.512415 245.258597 
L 91.089869 238.86391 
L 92.798778 230.988174 
L 94.639142 221.416085 
L 96.61096 209.972396 
L 98.845688 195.690007 
L 101.606233 176.55962 
L 111.728233 104.865273 
L 113.96296 91.379092 
L 115.934778 80.744883 
L 117.775142 71.977879 
L 119.484051 64.861284 
L 121.061506 59.154793 
L 122.63896 54.242288 
L 124.216415 50.073684 
L 125.662415 46.853045 
L 127.108415 44.15168 
L 128.554415 41.913089 
L 130.000415 40.080283 
L 131.446415 38.597735 
L 132.892415 37.412919 
L 134.469869 36.403189 
L 136.178778 35.579148 
L 138.019142 34.936871 
L 140.122415 34.43473 
L 142.751506 34.047378 
L 146.169324 33.786838 
L 151.296051 33.642598 
L 157.211506 33.603662 
L 157.211506 33.603662 
" clip-path="url(#p0b47123393)" style="fill: none; stroke-dasharray: 3.27904,1.417963; stroke-dashoffset: 0; stroke: #000000; stroke-width: 0.886227"/>
   </g>
   <g id="line2d_30">
    <path d="M 52.047869 275.504099 
L 60.855324 275.409015 
L 65.324778 275.180677 
L 68.479688 274.797606 
L 70.845869 274.284364 
L 72.817688 273.63999 
L 74.526597 272.850671 
L 76.104051 271.888748 
L 77.550051 270.746257 
L 78.996051 269.32442 
L 80.442051 267.563219 
L 81.756597 265.608481 
L 83.071142 263.296234 
L 84.517142 260.278209 
L 85.963142 256.695422 
L 87.409142 252.505053 
L 88.986597 247.204344 
L 90.301142 242.171199 
L 91.878597 235.353167 
L 94.244778 223.557148 
L 96.216597 212.366171 
L 98.451324 198.30191 
L 101.080415 180.29774 
L 105.28696 149.730422 
L 109.493506 119.661217 
L 112.254051 101.559069 
L 114.357324 89.154621 
L 116.329142 78.77964 
L 118.169506 70.245187 
L 119.878415 63.347322 
L 121.455869 57.857673 
L 123.033324 53.131282 
L 124.479324 49.442728 
L 125.925324 46.326556 
L 127.371324 43.717207 
L 128.817324 41.548878 
L 130.263324 39.787459 
L 131.709324 38.365695 
L 133.286778 37.132387 
L 134.864233 36.192285 
L 136.573142 35.420803 
L 138.413506 34.827615 
L 140.779688 34.314502 
L 143.408778 33.978959 
L 147.089506 33.743571 
L 152.347688 33.628659 
L 157.211506 33.607854 
L 157.211506 33.607854 
" clip-path="url(#p0b47123393)" style="fill: none; stroke: #ffa500; stroke-opacity: 0.8; stroke-width: 0.886227"/>
   </g>
   <g id="patch_3">
    <path d="M 46.789688 21.5 
L 162.469688 21.5 
L 162.469688 7.2 
L 46.789688 7.2 
z
" style="fill: #cccccc; stroke: #7f7f7f; stroke-linejoin: miter"/>
   </g>
   <g id="text_12">
    <!-- DTS (Fitted) -->
    <g style="fill: #1a1a1a" transform="translate(78.544563 16.77825) scale(0.088 -0.088)">
     <defs>
      <path id="DejaVuSans-44" d="M 1259 4147 
L 1259 519 
L 2022 519 
Q 2988 519 3436 956 
Q 3884 1394 3884 2338 
Q 3884 3275 3436 3711 
Q 2988 4147 2022 4147 
L 1259 4147 
z
M 628 4666 
L 1925 4666 
Q 3281 4666 3915 4102 
Q 4550 3538 4550 2338 
Q 4550 1131 3912 565 
Q 3275 0 1925 0 
L 628 0 
L 628 4666 
z
" transform="scale(0.015625)"/>
      <path id="DejaVuSans-54" d="M -19 4666 
L 3928 4666 
L 3928 4134 
L 2272 4134 
L 2272 0 
L 1638 0 
L 1638 4134 
L -19 4134 
L -19 4666 
z
" transform="scale(0.015625)"/>
      <path id="DejaVuSans-53" d="M 3425 4513 
L 3425 3897 
Q 3066 4069 2747 4153 
Q 2428 4238 2131 4238 
Q 1616 4238 1336 4038 
Q 1056 3838 1056 3469 
Q 1056 3159 1242 3001 
Q 1428 2844 1947 2747 
L 2328 2669 
Q 3034 2534 3370 2195 
Q 3706 1856 3706 1288 
Q 3706 609 3251 259 
Q 2797 -91 1919 -91 
Q 1588 -91 1214 -16 
Q 841 59 441 206 
L 441 856 
Q 825 641 1194 531 
Q 1563 422 1919 422 
Q 2459 422 2753 634 
Q 3047 847 3047 1241 
Q 3047 1584 2836 1778 
Q 2625 1972 2144 2069 
L 1759 2144 
Q 1053 2284 737 2584 
Q 422 2884 422 3419 
Q 422 4038 858 4394 
Q 1294 4750 2059 4750 
Q 2388 4750 2728 4690 
Q 3069 4631 3425 4513 
z
" transform="scale(0.015625)"/>
      <path id="DejaVuSans-20" transform="scale(0.015625)"/>
      <path id="DejaVuSans-46" d="M 628 4666 
L 3309 4666 
L 3309 4134 
L 1259 4134 
L 1259 2759 
L 3109 2759 
L 3109 2228 
L 1259 2228 
L 1259 0 
L 628 0 
L 628 4666 
z
" transform="scale(0.015625)"/>
      <path id="DejaVuSans-69" d="M 603 3500 
L 1178 3500 
L 1178 0 
L 603 0 
L 603 3500 
z
M 603 4863 
L 1178 4863 
L 1178 4134 
L 603 4134 
L 603 4863 
z
" transform="scale(0.015625)"/>
      <path id="DejaVuSans-74" d="M 1172 4494 
L 1172 3500 
L 2356 3500 
L 2356 3053 
L 1172 3053 
L 1172 1153 
Q 1172 725 1289 603 
Q 1406 481 1766 481 
L 2356 481 
L 2356 0 
L 1766 0 
Q 1100 0 847 248 
Q 594 497 594 1153 
L 594 3053 
L 172 3053 
L 172 3500 
L 594 3500 
L 594 4494 
L 1172 4494 
z
" transform="scale(0.015625)"/>
      <path id="DejaVuSans-65" d="M 3597 1894 
L 3597 1613 
L 953 1613 
Q 991 1019 1311 708 
Q 1631 397 2203 397 
Q 2534 397 2845 478 
Q 3156 559 3463 722 
L 3463 178 
Q 3153 47 2828 -22 
Q 2503 -91 2169 -91 
Q 1331 -91 842 396 
Q 353 884 353 1716 
Q 353 2575 817 3079 
Q 1281 3584 2069 3584 
Q 2775 3584 3186 3129 
Q 3597 2675 3597 1894 
z
M 3022 2063 
Q 3016 2534 2758 2815 
Q 2500 3097 2075 3097 
Q 1594 3097 1305 2825 
Q 1016 2553 972 2059 
L 3022 2063 
z
" transform="scale(0.015625)"/>
      <path id="DejaVuSans-64" d="M 2906 2969 
L 2906 4863 
L 3481 4863 
L 3481 0 
L 2906 0 
L 2906 525 
Q 2725 213 2448 61 
Q 2172 -91 1784 -91 
Q 1150 -91 751 415 
Q 353 922 353 1747 
Q 353 2572 751 3078 
Q 1150 3584 1784 3584 
Q 2172 3584 2448 3432 
Q 2725 3281 2906 2969 
z
M 947 1747 
Q 947 1113 1208 752 
Q 1469 391 1925 391 
Q 2381 391 2643 752 
Q 2906 1113 2906 1747 
Q 2906 2381 2643 2742 
Q 2381 3103 1925 3103 
Q 1469 3103 1208 2742 
Q 947 2381 947 1747 
z
" transform="scale(0.015625)"/>
     </defs>
     <use xlink:href="#DejaVuSans-44"/>
     <use xlink:href="#DejaVuSans-54" x="77.001953"/>
     <use xlink:href="#DejaVuSans-53" x="138.085938"/>
     <use xlink:href="#DejaVuSans-20" x="201.5625"/>
     <use xlink:href="#DejaVuSans-28" x="233.349609"/>
     <use xlink:href="#DejaVuSans-46" x="272.363281"/>
     <use xlink:href="#DejaVuSans-69" x="322.632812"/>
     <use xlink:href="#DejaVuSans-74" x="350.416016"/>
     <use xlink:href="#DejaVuSans-74" x="389.625"/>
     <use xlink:href="#DejaVuSans-65" x="428.833984"/>
     <use xlink:href="#DejaVuSans-64" x="490.357422"/>
     <use xlink:href="#DejaVuSans-29" x="553.833984"/>
    </g>
   </g>
  </g>
  <g id="axes_2">
   <g id="patch_4">
    <path d="M 167.509688 287.612 
L 283.189687 287.612 
L 283.189687 21.5 
L 167.509688 21.5 
z
" style="fill: #ffffff; stroke: #7f7f7f; stroke-linejoin: miter"/>
   </g>
   <g id="matplotlib.axis_3">
    <g id="xtick_10">
     <g id="line2d_31">
      <path d="M 172.767869 287.612 
L 172.767869 21.5 
" clip-path="url(#p1cc80afb18)" style="fill: none; stroke: #e5e5e5; stroke-width: 0.8; stroke-linecap: square"/>
     </g>
     <g id="line2d_32">
      <path d="M 172.767869 287.612 
" style="fill: none; stroke: #000000; stroke-width: 1.5; stroke-linecap: square"/>
      <g>
       <use xlink:href="#m56a01b4de3" x="172.767869" y="287.612" style="stroke: #333333"/>
      </g>
     </g>
     <g id="text_13">
      <!-- −4 -->
      <g style="fill: #4d4d4d" transform="translate(166.281307 299.248625) scale(0.088 -0.088)">
       <use xlink:href="#DejaVuSans-2212"/>
       <use xlink:href="#DejaVuSans-34" x="83.789062"/>
      </g>
     </g>
    </g>
    <g id="xtick_11">
     <g id="line2d_33">
      <path d="M 199.058778 287.612 
L 199.058778 21.5 
" clip-path="url(#p1cc80afb18)" style="fill: none; stroke: #e5e5e5; stroke-width: 0.8; stroke-linecap: square"/>
     </g>
     <g id="line2d_34">
      <path d="M 199.058778 287.612 
" style="fill: none; stroke: #000000; stroke-width: 1.5; stroke-linecap: square"/>
      <g>
       <use xlink:href="#m56a01b4de3" x="199.058778" y="287.612" style="stroke: #333333"/>
      </g>
     </g>
     <g id="text_14">
      <!-- −2 -->
      <g style="fill: #4d4d4d" transform="translate(192.572216 299.248625) scale(0.088 -0.088)">
       <use xlink:href="#DejaVuSans-2212"/>
       <use xlink:href="#DejaVuSans-32" x="83.789062"/>
      </g>
     </g>
    </g>
    <g id="xtick_12">
     <g id="line2d_35">
      <path d="M 225.349688 287.612 
L 225.349688 21.5 
" clip-path="url(#p1cc80afb18)" style="fill: none; stroke: #e5e5e5; stroke-width: 0.8; stroke-linecap: square"/>
     </g>
     <g id="line2d_36">
      <path d="M 225.349688 287.612 
" style="fill: none; stroke: #000000; stroke-width: 1.5; stroke-linecap: square"/>
      <g>
       <use xlink:href="#m56a01b4de3" x="225.349688" y="287.612" style="stroke: #333333"/>
      </g>
     </g>
     <g id="text_15">
      <!-- 0 -->
      <g style="fill: #4d4d4d" transform="translate(222.550188 299.248625) scale(0.088 -0.088)">
       <use xlink:href="#DejaVuSans-30"/>
      </g>
     </g>
    </g>
    <g id="xtick_13">
     <g id="line2d_37">
      <path d="M 251.640597 287.612 
L 251.640597 21.5 
" clip-path="url(#p1cc80afb18)" style="fill: none; stroke: #e5e5e5; stroke-width: 0.8; stroke-linecap: square"/>
     </g>
     <g id="line2d_38">
      <path d="M 251.640597 287.612 
" style="fill: none; stroke: #000000; stroke-width: 1.5; stroke-linecap: square"/>
      <g>
       <use xlink:href="#m56a01b4de3" x="251.640597" y="287.612" style="stroke: #333333"/>
      </g>
     </g>
     <g id="text_16">
      <!-- 2 -->
      <g style="fill: #4d4d4d" transform="translate(248.841097 299.248625) scale(0.088 -0.088)">
       <use xlink:href="#DejaVuSans-32"/>
      </g>
     </g>
    </g>
    <g id="xtick_14">
     <g id="line2d_39">
      <path d="M 277.931506 287.612 
L 277.931506 21.5 
" clip-path="url(#p1cc80afb18)" style="fill: none; stroke: #e5e5e5; stroke-width: 0.8; stroke-linecap: square"/>
     </g>
     <g id="line2d_40">
      <path d="M 277.931506 287.612 
" style="fill: none; stroke: #000000; stroke-width: 1.5; stroke-linecap: square"/>
      <g>
       <use xlink:href="#m56a01b4de3" x="277.931506" y="287.612" style="stroke: #333333"/>
      </g>
     </g>
     <g id="text_17">
      <!-- 4 -->
      <g style="fill: #4d4d4d" transform="translate(275.132006 299.248625) scale(0.088 -0.088)">
       <use xlink:href="#DejaVuSans-34"/>
      </g>
     </g>
    </g>
    <g id="xtick_15">
     <g id="line2d_41">
      <path d="M 185.913324 287.612 
L 185.913324 21.5 
" clip-path="url(#p1cc80afb18)" style="fill: none; stroke: #fafafa; stroke-linecap: square"/>
     </g>
    </g>
    <g id="xtick_16">
     <g id="line2d_42">
      <path d="M 212.204233 287.612 
L 212.204233 21.5 
" clip-path="url(#p1cc80afb18)" style="fill: none; stroke: #fafafa; stroke-linecap: square"/>
     </g>
    </g>
    <g id="xtick_17">
     <g id="line2d_43">
      <path d="M 238.495142 287.612 
L 238.495142 21.5 
" clip-path="url(#p1cc80afb18)" style="fill: none; stroke: #fafafa; stroke-linecap: square"/>
     </g>
    </g>
    <g id="xtick_18">
     <g id="line2d_44">
      <path d="M 264.786051 287.612 
L 264.786051 21.5 
" clip-path="url(#p1cc80afb18)" style="fill: none; stroke: #fafafa; stroke-linecap: square"/>
     </g>
    </g>
   </g>
   <g id="matplotlib.axis_4">
    <g id="ytick_10">
     <g id="line2d_45">
      <path d="M 167.509688 275.516 
L 283.189687 275.516 
" clip-path="url(#p1cc80afb18)" style="fill: none; stroke: #e5e5e5; stroke-width: 0.8; stroke-linecap: square"/>
     </g>
    </g>
    <g id="ytick_11">
     <g id="line2d_46">
      <path d="M 167.509688 215.036 
L 283.189687 215.036 
" clip-path="url(#p1cc80afb18)" style="fill: none; stroke: #e5e5e5; stroke-width: 0.8; stroke-linecap: square"/>
     </g>
    </g>
    <g id="ytick_12">
     <g id="line2d_47">
      <path d="M 167.509688 154.556 
L 283.189687 154.556 
" clip-path="url(#p1cc80afb18)" style="fill: none; stroke: #e5e5e5; stroke-width: 0.8; stroke-linecap: square"/>
     </g>
    </g>
    <g id="ytick_13">
     <g id="line2d_48">
      <path d="M 167.509688 94.076 
L 283.189687 94.076 
" clip-path="url(#p1cc80afb18)" style="fill: none; stroke: #e5e5e5; stroke-width: 0.8; stroke-linecap: square"/>
     </g>
    </g>
    <g id="ytick_14">
     <g id="line2d_49">
      <path d="M 167.509688 33.596 
L 283.189687 33.596 
" clip-path="url(#p1cc80afb18)" style="fill: none; stroke: #e5e5e5; stroke-width: 0.8; stroke-linecap: square"/>
     </g>
    </g>
    <g id="ytick_15">
     <g id="line2d_50">
      <path d="M 167.509688 245.276 
L 283.189687 245.276 
" clip-path="url(#p1cc80afb18)" style="fill: none; stroke: #fafafa; stroke-linecap: square"/>
     </g>
    </g>
    <g id="ytick_16">
     <g id="line2d_51">
      <path d="M 167.509688 184.796 
L 283.189687 184.796 
" clip-path="url(#p1cc80afb18)" style="fill: none; stroke: #fafafa; stroke-linecap: square"/>
     </g>
    </g>
    <g id="ytick_17">
     <g id="line2d_52">
      <path d="M 167.509688 124.316 
L 283.189687 124.316 
" clip-path="url(#p1cc80afb18)" style="fill: none; stroke: #fafafa; stroke-linecap: square"/>
     </g>
    </g>
    <g id="ytick_18">
     <g id="line2d_53">
      <path d="M 167.509688 63.836 
L 283.189687 63.836 
" clip-path="url(#p1cc80afb18)" style="fill: none; stroke: #fafafa; stroke-linecap: square"/>
     </g>
    </g>
   </g>
   <g id="line2d_54">
    <path d="M 172.767869 275.508338 
L 182.62696 275.376406 
L 186.833506 275.105992 
L 189.725506 274.702142 
L 191.960233 274.175129 
L 193.932051 273.478021 
L 195.64096 272.634581 
L 197.218415 271.602367 
L 198.664415 270.392553 
L 200.110415 268.880388 
L 201.556415 267.013022 
L 202.87096 264.96032 
L 204.31696 262.258955 
L 205.76296 259.038316 
L 207.20896 255.244719 
L 208.65496 250.829923 
L 210.232415 245.258597 
L 211.809869 238.86391 
L 213.518778 230.988174 
L 215.359142 221.416085 
L 217.33096 209.972396 
L 219.565688 195.690007 
L 222.326233 176.55962 
L 232.448233 104.865273 
L 234.68296 91.379092 
L 236.654778 80.744883 
L 238.495142 71.977879 
L 240.204051 64.861284 
L 241.781506 59.154793 
L 243.35896 54.242288 
L 244.936415 50.073684 
L 246.382415 46.853045 
L 247.828415 44.15168 
L 249.274415 41.913089 
L 250.720415 40.080283 
L 252.166415 38.597735 
L 253.612415 37.412919 
L 255.189869 36.403189 
L 256.898778 35.579148 
L 258.739142 34.936871 
L 260.842415 34.43473 
L 263.471506 34.047378 
L 266.889324 33.786838 
L 272.016051 33.642598 
L 277.931506 33.603662 
L 277.931506 33.603662 
" clip-path="url(#p1cc80afb18)" style="fill: none; stroke-dasharray: 3.27904,1.417963; stroke-dashoffset: 0; stroke: #000000; stroke-width: 0.886227"/>
   </g>
   <g id="line2d_55">
    <path d="M 172.767869 275.508338 
L 182.62696 275.376406 
L 186.833506 275.105992 
L 189.725506 274.702142 
L 191.960233 274.175129 
L 193.932051 273.47802 
L 195.64096 272.634588 
L 197.218415 271.602363 
L 198.664415 270.392546 
L 200.110415 268.880401 
L 201.556415 267.01302 
L 202.87096 264.960329 
L 204.31696 262.258953 
L 205.76296 259.038321 
L 207.20896 255.244725 
L 208.65496 250.829999 
L 210.232415 245.258582 
L 211.809869 238.86391 
L 213.518778 230.988205 
L 215.359142 221.416156 
L 217.33096 209.972372 
L 219.565688 195.6899 
L 222.326233 176.559592 
L 232.448233 104.86539 
L 234.68296 91.379076 
L 236.654778 80.744998 
L 238.495142 71.977818 
L 240.204051 64.861257 
L 241.781506 59.154848 
L 243.35896 54.242179 
L 244.936415 50.073655 
L 246.382415 46.852974 
L 247.828415 44.151695 
L 249.274415 41.91321 
L 250.720415 40.080182 
L 252.166415 38.597696 
L 253.612415 37.413014 
L 255.189869 36.40324 
L 256.898778 35.57926 
L 258.739142 34.936963 
L 260.842415 34.434737 
L 263.471506 34.047423 
L 266.889324 33.786875 
L 272.016051 33.642691 
L 277.931506 33.603741 
L 277.931506 33.603741 
" clip-path="url(#p1cc80afb18)" style="fill: none; stroke: #ffa500; stroke-opacity: 0.8; stroke-width: 0.886227"/>
   </g>
   <g id="patch_5">
    <path d="M 167.509688 21.5 
L 283.189687 21.5 
L 283.189687 7.2 
L 167.509688 7.2 
z
" style="fill: #cccccc; stroke: #7f7f7f; stroke-linejoin: miter"/>
   </g>
   <g id="text_18">
    <!-- Erfc -->
    <g style="fill: #1a1a1a" transform="translate(216.792375 16.77825) scale(0.088 -0.088)">
     <defs>
      <path id="DejaVuSans-45" d="M 628 4666 
L 3578 4666 
L 3578 4134 
L 1259 4134 
L 1259 2753 
L 3481 2753 
L 3481 2222 
L 1259 2222 
L 1259 531 
L 3634 531 
L 3634 0 
L 628 0 
L 628 4666 
z
" transform="scale(0.015625)"/>
      <path id="DejaVuSans-72" d="M 2631 2963 
Q 2534 3019 2420 3045 
Q 2306 3072 2169 3072 
Q 1681 3072 1420 2755 
Q 1159 2438 1159 1844 
L 1159 0 
L 581 0 
L 581 3500 
L 1159 3500 
L 1159 2956 
Q 1341 3275 1631 3429 
Q 1922 3584 2338 3584 
Q 2397 3584 2469 3576 
Q 2541 3569 2628 3553 
L 2631 2963 
z
" transform="scale(0.015625)"/>
      <path id="DejaVuSans-66" d="M 2375 4863 
L 2375 4384 
L 1825 4384 
Q 1516 4384 1395 4259 
Q 1275 4134 1275 3809 
L 1275 3500 
L 2222 3500 
L 2222 3053 
L 1275 3053 
L 1275 0 
L 697 0 
L 697 3053 
L 147 3053 
L 147 3500 
L 697 3500 
L 697 3744 
Q 697 4328 969 4595 
Q 1241 4863 1831 4863 
L 2375 4863 
z
" transform="scale(0.015625)"/>
      <path id="DejaVuSans-63" d="M 3122 3366 
L 3122 2828 
Q 2878 2963 2633 3030 
Q 2388 3097 2138 3097 
Q 1578 3097 1268 2742 
Q 959 2388 959 1747 
Q 959 1106 1268 751 
Q 1578 397 2138 397 
Q 2388 397 2633 464 
Q 2878 531 3122 666 
L 3122 134 
Q 2881 22 2623 -34 
Q 2366 -91 2075 -91 
Q 1284 -91 818 406 
Q 353 903 353 1747 
Q 353 2603 823 3093 
Q 1294 3584 2113 3584 
Q 2378 3584 2631 3529 
Q 2884 3475 3122 3366 
z
" transform="scale(0.015625)"/>
     </defs>
     <use xlink:href="#DejaVuSans-45"/>
     <use xlink:href="#DejaVuSans-72" x="63.183594"/>
     <use xlink:href="#DejaVuSans-66" x="104.296875"/>
     <use xlink:href="#DejaVuSans-63" x="139.501953"/>
    </g>
   </g>
  </g>
  <g id="axes_3">
   <g id="patch_6">
    <path d="M 288.229688 287.612 
L 403.909687 287.612 
L 403.909687 21.5 
L 288.229688 21.5 
z
" style="fill: #ffffff; stroke: #7f7f7f; stroke-linejoin: miter"/>
   </g>
   <g id="matplotlib.axis_5">
    <g id="xtick_19">
     <g id="line2d_56">
      <path d="M 293.487869 287.612 
L 293.487869 21.5 
" clip-path="url(#p44fde14231)" style="fill: none; stroke: #e5e5e5; stroke-width: 0.8; stroke-linecap: square"/>
     </g>
     <g id="line2d_57">
      <path d="M 293.487869 287.612 
" style="fill: none; stroke: #000000; stroke-width: 1.5; stroke-linecap: square"/>
      <g>
       <use xlink:href="#m56a01b4de3" x="293.487869" y="287.612" style="stroke: #333333"/>
      </g>
     </g>
     <g id="text_19">
      <!-- −4 -->
      <g style="fill: #4d4d4d" transform="translate(287.001307 299.248625) scale(0.088 -0.088)">
       <use xlink:href="#DejaVuSans-2212"/>
       <use xlink:href="#DejaVuSans-34" x="83.789062"/>
      </g>
     </g>
    </g>
    <g id="xtick_20">
     <g id="line2d_58">
      <path d="M 319.778778 287.612 
L 319.778778 21.5 
" clip-path="url(#p44fde14231)" style="fill: none; stroke: #e5e5e5; stroke-width: 0.8; stroke-linecap: square"/>
     </g>
     <g id="line2d_59">
      <path d="M 319.778778 287.612 
" style="fill: none; stroke: #000000; stroke-width: 1.5; stroke-linecap: square"/>
      <g>
       <use xlink:href="#m56a01b4de3" x="319.778778" y="287.612" style="stroke: #333333"/>
      </g>
     </g>
     <g id="text_20">
      <!-- −2 -->
      <g style="fill: #4d4d4d" transform="translate(313.292216 299.248625) scale(0.088 -0.088)">
       <use xlink:href="#DejaVuSans-2212"/>
       <use xlink:href="#DejaVuSans-32" x="83.789062"/>
      </g>
     </g>
    </g>
    <g id="xtick_21">
     <g id="line2d_60">
      <path d="M 346.069687 287.612 
L 346.069687 21.5 
" clip-path="url(#p44fde14231)" style="fill: none; stroke: #e5e5e5; stroke-width: 0.8; stroke-linecap: square"/>
     </g>
     <g id="line2d_61">
      <path d="M 346.069687 287.612 
" style="fill: none; stroke: #000000; stroke-width: 1.5; stroke-linecap: square"/>
      <g>
       <use xlink:href="#m56a01b4de3" x="346.069687" y="287.612" style="stroke: #333333"/>
      </g>
     </g>
     <g id="text_21">
      <!-- 0 -->
      <g style="fill: #4d4d4d" transform="translate(343.270187 299.248625) scale(0.088 -0.088)">
       <use xlink:href="#DejaVuSans-30"/>
      </g>
     </g>
    </g>
    <g id="xtick_22">
     <g id="line2d_62">
      <path d="M 372.360597 287.612 
L 372.360597 21.5 
" clip-path="url(#p44fde14231)" style="fill: none; stroke: #e5e5e5; stroke-width: 0.8; stroke-linecap: square"/>
     </g>
     <g id="line2d_63">
      <path d="M 372.360597 287.612 
" style="fill: none; stroke: #000000; stroke-width: 1.5; stroke-linecap: square"/>
      <g>
       <use xlink:href="#m56a01b4de3" x="372.360597" y="287.612" style="stroke: #333333"/>
      </g>
     </g>
     <g id="text_22">
      <!-- 2 -->
      <g style="fill: #4d4d4d" transform="translate(369.561097 299.248625) scale(0.088 -0.088)">
       <use xlink:href="#DejaVuSans-32"/>
      </g>
     </g>
    </g>
    <g id="xtick_23">
     <g id="line2d_64">
      <path d="M 398.651506 287.612 
L 398.651506 21.5 
" clip-path="url(#p44fde14231)" style="fill: none; stroke: #e5e5e5; stroke-width: 0.8; stroke-linecap: square"/>
     </g>
     <g id="line2d_65">
      <path d="M 398.651506 287.612 
" style="fill: none; stroke: #000000; stroke-width: 1.5; stroke-linecap: square"/>
      <g>
       <use xlink:href="#m56a01b4de3" x="398.651506" y="287.612" style="stroke: #333333"/>
      </g>
     </g>
     <g id="text_23">
      <!-- 4 -->
      <g style="fill: #4d4d4d" transform="translate(395.852006 299.248625) scale(0.088 -0.088)">
       <use xlink:href="#DejaVuSans-34"/>
      </g>
     </g>
    </g>
    <g id="xtick_24">
     <g id="line2d_66">
      <path d="M 306.633324 287.612 
L 306.633324 21.5 
" clip-path="url(#p44fde14231)" style="fill: none; stroke: #fafafa; stroke-linecap: square"/>
     </g>
    </g>
    <g id="xtick_25">
     <g id="line2d_67">
      <path d="M 332.924233 287.612 
L 332.924233 21.5 
" clip-path="url(#p44fde14231)" style="fill: none; stroke: #fafafa; stroke-linecap: square"/>
     </g>
    </g>
    <g id="xtick_26">
     <g id="line2d_68">
      <path d="M 359.215142 287.612 
L 359.215142 21.5 
" clip-path="url(#p44fde14231)" style="fill: none; stroke: #fafafa; stroke-linecap: square"/>
     </g>
    </g>
    <g id="xtick_27">
     <g id="line2d_69">
      <path d="M 385.506051 287.612 
L 385.506051 21.5 
" clip-path="url(#p44fde14231)" style="fill: none; stroke: #fafafa; stroke-linecap: square"/>
     </g>
    </g>
    <g id="text_24">
     <!-- x -->
     <g transform="translate(216.334375 313.837031) scale(0.11 -0.11)">
      <defs>
       <path id="DejaVuSans-78" d="M 3513 3500 
L 2247 1797 
L 3578 0 
L 2900 0 
L 1881 1375 
L 863 0 
L 184 0 
L 1544 1831 
L 300 3500 
L 978 3500 
L 1906 2253 
L 2834 3500 
L 3513 3500 
z
" transform="scale(0.015625)"/>
      </defs>
      <use xlink:href="#DejaVuSans-78"/>
     </g>
    </g>
   </g>
   <g id="matplotlib.axis_6">
    <g id="ytick_19">
     <g id="line2d_70">
      <path d="M 288.229688 275.516 
L 403.909687 275.516 
" clip-path="url(#p44fde14231)" style="fill: none; stroke: #e5e5e5; stroke-width: 0.8; stroke-linecap: square"/>
     </g>
    </g>
    <g id="ytick_20">
     <g id="line2d_71">
      <path d="M 288.229688 215.036 
L 403.909687 215.036 
" clip-path="url(#p44fde14231)" style="fill: none; stroke: #e5e5e5; stroke-width: 0.8; stroke-linecap: square"/>
     </g>
    </g>
    <g id="ytick_21">
     <g id="line2d_72">
      <path d="M 288.229688 154.556 
L 403.909687 154.556 
" clip-path="url(#p44fde14231)" style="fill: none; stroke: #e5e5e5; stroke-width: 0.8; stroke-linecap: square"/>
     </g>
    </g>
    <g id="ytick_22">
     <g id="line2d_73">
      <path d="M 288.229688 94.076 
L 403.909687 94.076 
" clip-path="url(#p44fde14231)" style="fill: none; stroke: #e5e5e5; stroke-width: 0.8; stroke-linecap: square"/>
     </g>
    </g>
    <g id="ytick_23">
     <g id="line2d_74">
      <path d="M 288.229688 33.596 
L 403.909687 33.596 
" clip-path="url(#p44fde14231)" style="fill: none; stroke: #e5e5e5; stroke-width: 0.8; stroke-linecap: square"/>
     </g>
    </g>
    <g id="ytick_24">
     <g id="line2d_75">
      <path d="M 288.229688 245.276 
L 403.909687 245.276 
" clip-path="url(#p44fde14231)" style="fill: none; stroke: #fafafa; stroke-linecap: square"/>
     </g>
    </g>
    <g id="ytick_25">
     <g id="line2d_76">
      <path d="M 288.229688 184.796 
L 403.909687 184.796 
" clip-path="url(#p44fde14231)" style="fill: none; stroke: #fafafa; stroke-linecap: square"/>
     </g>
    </g>
    <g id="ytick_26">
     <g id="line2d_77">
      <path d="M 288.229688 124.316 
L 403.909687 124.316 
" clip-path="url(#p44fde14231)" style="fill: none; stroke: #fafafa; stroke-linecap: square"/>
     </g>
    </g>
    <g id="ytick_27">
     <g id="line2d_78">
      <path d="M 288.229688 63.836 
L 403.909687 63.836 
" clip-path="url(#p44fde14231)" style="fill: none; stroke: #fafafa; stroke-linecap: square"/>
     </g>
    </g>
   </g>
   <g id="line2d_79">
    <path d="M 293.487869 275.508338 
L 303.34696 275.376406 
L 307.553506 275.105992 
L 310.445506 274.702142 
L 312.680233 274.175129 
L 314.652051 273.478021 
L 316.36096 272.634581 
L 317.938415 271.602367 
L 319.384415 270.392553 
L 320.830415 268.880388 
L 322.276415 267.013022 
L 323.59096 264.96032 
L 325.03696 262.258955 
L 326.48296 259.038316 
L 327.92896 255.244719 
L 329.37496 250.829923 
L 330.952415 245.258597 
L 332.529869 238.86391 
L 334.238778 230.988174 
L 336.079142 221.416085 
L 338.05096 209.972396 
L 340.285687 195.690007 
L 343.046233 176.55962 
L 353.168233 104.865273 
L 355.40296 91.379092 
L 357.374778 80.744883 
L 359.215142 71.977879 
L 360.924051 64.861284 
L 362.501506 59.154793 
L 364.07896 54.242288 
L 365.656415 50.073684 
L 367.102415 46.853045 
L 368.548415 44.15168 
L 369.994415 41.913089 
L 371.440415 40.080283 
L 372.886415 38.597735 
L 374.332415 37.412919 
L 375.909869 36.403189 
L 377.618778 35.579148 
L 379.459142 34.936871 
L 381.562415 34.43473 
L 384.191506 34.047378 
L 387.609324 33.786838 
L 392.736051 33.642598 
L 398.651506 33.603662 
L 398.651506 33.603662 
" clip-path="url(#p44fde14231)" style="fill: none; stroke-dasharray: 3.27904,1.417963; stroke-dashoffset: 0; stroke: #000000; stroke-width: 0.886227"/>
   </g>
   <g id="line2d_80">
    <path d="M 293.487869 275.508344 
L 303.34696 275.376406 
L 307.553506 275.105992 
L 310.445506 274.702142 
L 312.680233 274.175129 
L 314.652051 273.47802 
L 316.36096 272.634588 
L 317.938415 271.602363 
L 319.384415 270.392546 
L 320.830415 268.880376 
L 322.276415 267.01302 
L 323.59096 264.960329 
L 325.03696 262.258953 
L 326.48296 259.038321 
L 327.92896 255.244725 
L 329.37496 250.829999 
L 330.952415 245.258582 
L 332.529869 238.86391 
L 334.238778 230.988205 
L 336.079142 221.416156 
L 338.05096 209.972372 
L 340.285687 195.6899 
L 343.046233 176.559592 
L 353.168233 104.86539 
L 355.40296 91.379076 
L 357.374778 80.744998 
L 359.215142 71.977818 
L 360.924051 64.861257 
L 362.501506 59.154848 
L 364.07896 54.242179 
L 365.656415 50.073655 
L 367.102415 46.852974 
L 368.548415 44.151695 
L 369.994415 41.91321 
L 371.440415 40.080182 
L 372.886415 38.597696 
L 374.332415 37.413014 
L 375.909869 36.40324 
L 377.618778 35.57926 
L 379.459142 34.936963 
L 381.562415 34.434737 
L 384.191506 34.047423 
L 387.609324 33.786875 
L 392.736051 33.642691 
L 398.651506 33.603741 
L 398.651506 33.603741 
" clip-path="url(#p44fde14231)" style="fill: none; stroke: #ffa500; stroke-opacity: 0.8; stroke-width: 0.886227"/>
   </g>
   <g id="patch_7">
    <path d="M 288.229688 21.5 
L 403.909687 21.5 
L 403.909687 7.2 
L 288.229688 7.2 
z
" style="fill: #cccccc; stroke: #7f7f7f; stroke-linejoin: miter"/>
   </g>
   <g id="text_25">
    <!-- TS30 -->
    <g style="fill: #1a1a1a" transform="translate(334.989937 16.77825) scale(0.088 -0.088)">
     <defs>
      <path id="DejaVuSans-33" d="M 2597 2516 
Q 3050 2419 3304 2112 
Q 3559 1806 3559 1356 
Q 3559 666 3084 287 
Q 2609 -91 1734 -91 
Q 1441 -91 1130 -33 
Q 819 25 488 141 
L 488 750 
Q 750 597 1062 519 
Q 1375 441 1716 441 
Q 2309 441 2620 675 
Q 2931 909 2931 1356 
Q 2931 1769 2642 2001 
Q 2353 2234 1838 2234 
L 1294 2234 
L 1294 2753 
L 1863 2753 
Q 2328 2753 2575 2939 
Q 2822 3125 2822 3475 
Q 2822 3834 2567 4026 
Q 2313 4219 1838 4219 
Q 1578 4219 1281 4162 
Q 984 4106 628 3988 
L 628 4550 
Q 988 4650 1302 4700 
Q 1616 4750 1894 4750 
Q 2613 4750 3031 4423 
Q 3450 4097 3450 3541 
Q 3450 3153 3228 2886 
Q 3006 2619 2597 2516 
z
" transform="scale(0.015625)"/>
     </defs>
     <use xlink:href="#DejaVuSans-54"/>
     <use xlink:href="#DejaVuSans-53" x="61.083984"/>
     <use xlink:href="#DejaVuSans-33" x="124.560547"/>
     <use xlink:href="#DejaVuSans-30" x="188.183594"/>
    </g>
   </g>
  </g>
 </g>
 <defs>
  <clipPath id="p0b47123393">
   <rect x="46.789688" y="21.5" width="115.68" height="266.112"/>
  </clipPath>
  <clipPath id="p1cc80afb18">
   <rect x="167.509688" y="21.5" width="115.68" height="266.112"/>
  </clipPath>
  <clipPath id="p44fde14231">
   <rect x="288.229688" y="21.5" width="115.68" height="266.112"/>
  </clipPath>
 </defs>
</svg>
