<?xml version="1.0" encoding="utf-8" standalone="no"?>
<!DOCTYPE svg PUBLIC "-//W3C//DTD SVG 1.1//EN"
  "http://www.w3.org/Graphics/SVG/1.1/DTD/svg11.dtd">
<svg xmlns:xlink="http://www.w3.org/1999/xlink" width="411.109687pt" height="323.611491pt" viewBox="0 0 411.109687 323.611491" xmlns="http://www.w3.org/2000/svg" version="1.1">
 <metadata>
  <rdf:RDF xmlns:dc="http://purl.org/dc/elements/1.1/" xmlns:cc="http://creativecommons.org/ns#" xmlns:rdf="http://www.w3.org/1999/02/22-rdf-syntax-ns#">
   <cc:Work>
    <dc:type rdf:resource="http://purl.org/dc/dcmitype/StillImage"/>
    <dc:date>2023-04-23T21:19:51.661233</dc:date>
    <dc:format>image/svg+xml</dc:format>
    <dc:creator>
     <cc:Agent>
      <dc:title>Matplotlib v3.7.1, https://matplotlib.org/</dc:title>
     </cc:Agent>
    </dc:creator>
   </cc:Work>
  </rdf:RDF>
 </metadata>
 <defs>
  <style type="text/css">*{stroke-linejoin: round; stroke-linecap: butt}</style>
 </defs>
 <g id="figure_1">
  <g id="patch_1">
   <path d="M 0 323.611491 
L 411.109687 323.611491 
L 411.109687 0 
L 0 0 
z
" style="fill: #ffffff; stroke: #ffffff; stroke-linejoin: miter"/>
  </g>
  <g id="axes_1">
   <g id="patch_2">
    <path d="M 46.789688 145.172804 
L 162.469688 145.172804 
L 162.469688 21.786804 
L 46.789688 21.786804 
z
" style="fill: #ffffff; stroke: #7f7f7f; stroke-linejoin: miter"/>
   </g>
   <g id="matplotlib.axis_1">
    <g id="xtick_1">
     <g id="line2d_1">
      <path d="M 52.047869 145.172804 
L 52.047869 21.786804 
" clip-path="url(#p2b8bad131c)" style="fill: none; stroke: #e5e5e5; stroke-width: 0.8"/>
     </g>
    </g>
    <g id="xtick_2">
     <g id="line2d_2">
      <path d="M 78.338778 145.172804 
L 78.338778 21.786804 
" clip-path="url(#p2b8bad131c)" style="fill: none; stroke: #e5e5e5; stroke-width: 0.8"/>
     </g>
    </g>
    <g id="xtick_3">
     <g id="line2d_3">
      <path d="M 104.629688 145.172804 
L 104.629688 21.786804 
" clip-path="url(#p2b8bad131c)" style="fill: none; stroke: #e5e5e5; stroke-width: 0.8"/>
     </g>
    </g>
    <g id="xtick_4">
     <g id="line2d_4">
      <path d="M 130.920597 145.172804 
L 130.920597 21.786804 
" clip-path="url(#p2b8bad131c)" style="fill: none; stroke: #e5e5e5; stroke-width: 0.8"/>
     </g>
    </g>
    <g id="xtick_5">
     <g id="line2d_5">
      <path d="M 157.211506 145.172804 
L 157.211506 21.786804 
" clip-path="url(#p2b8bad131c)" style="fill: none; stroke: #e5e5e5; stroke-width: 0.8"/>
     </g>
    </g>
    <g id="xtick_6">
     <g id="line2d_6">
      <path d="M 65.193324 145.172804 
L 65.193324 21.786804 
" clip-path="url(#p2b8bad131c)" style="fill: none; stroke: #fafafa"/>
     </g>
    </g>
    <g id="xtick_7">
     <g id="line2d_7">
      <path d="M 91.484233 145.172804 
L 91.484233 21.786804 
" clip-path="url(#p2b8bad131c)" style="fill: none; stroke: #fafafa"/>
     </g>
    </g>
    <g id="xtick_8">
     <g id="line2d_8">
      <path d="M 117.775142 145.172804 
L 117.775142 21.786804 
" clip-path="url(#p2b8bad131c)" style="fill: none; stroke: #fafafa"/>
     </g>
    </g>
    <g id="xtick_9">
     <g id="line2d_9">
      <path d="M 144.066051 145.172804 
L 144.066051 21.786804 
" clip-path="url(#p2b8bad131c)" style="fill: none; stroke: #fafafa"/>
     </g>
    </g>
   </g>
   <g id="matplotlib.axis_2">
    <g id="ytick_1">
     <g id="line2d_10">
      <path d="M 46.789688 139.564349 
L 162.469688 139.564349 
" clip-path="url(#p2b8bad131c)" style="fill: none; stroke: #e5e5e5; stroke-width: 0.8"/>
     </g>
     <g id="line2d_11">
      <path d="M 46.789688 139.564349 
" style="fill: none; stroke: #000000; stroke-width: 1.5"/>
      <defs>
       <path id="mc29494a062" d="M 0 0 
L -2.75 0 
" style="stroke: #333333"/>
      </defs>
      <g>
       <use xlink:href="#mc29494a062" x="46.789688" y="139.564349" style="stroke: #333333"/>
      </g>
     </g>
     <g id="text_1">
      <!-- 0 -->
      <g style="fill: #4d4d4d" transform="translate(36.240688 141.992599) scale(0.088 -0.088)">
       <defs>
        <path id="DejaVuSans-30" d="M 2034 4250 
Q 1547 4250 1301 3770 
Q 1056 3291 1056 2328 
Q 1056 1369 1301 889 
Q 1547 409 2034 409 
Q 2525 409 2770 889 
Q 3016 1369 3016 2328 
Q 3016 3291 2770 3770 
Q 2525 4250 2034 4250 
z
M 2034 4750 
Q 2819 4750 3233 4129 
Q 3647 3509 3647 2328 
Q 3647 1150 3233 529 
Q 2819 -91 2034 -91 
Q 1250 -91 836 529 
Q 422 1150 422 2328 
Q 422 3509 836 4129 
Q 1250 4750 2034 4750 
z
" transform="scale(0.015625)"/>
       </defs>
       <use xlink:href="#DejaVuSans-30"/>
      </g>
     </g>
    </g>
    <g id="ytick_2">
     <g id="line2d_12">
      <path d="M 46.789688 111.522077 
L 162.469688 111.522077 
" clip-path="url(#p2b8bad131c)" style="fill: none; stroke: #e5e5e5; stroke-width: 0.8"/>
     </g>
     <g id="line2d_13">
      <path d="M 46.789688 111.522077 
" style="fill: none; stroke: #000000; stroke-width: 1.5"/>
      <g>
       <use xlink:href="#mc29494a062" x="46.789688" y="111.522077" style="stroke: #333333"/>
      </g>
     </g>
     <g id="text_2">
      <!-- 0.25 -->
      <g style="fill: #4d4d4d" transform="translate(22.245938 113.950327) scale(0.088 -0.088)">
       <defs>
        <path id="DejaVuSans-2e" d="M 684 794 
L 1344 794 
L 1344 0 
L 684 0 
L 684 794 
z
" transform="scale(0.015625)"/>
        <path id="DejaVuSans-32" d="M 1228 531 
L 3431 531 
L 3431 0 
L 469 0 
L 469 531 
Q 828 903 1448 1529 
Q 2069 2156 2228 2338 
Q 2531 2678 2651 2914 
Q 2772 3150 2772 3378 
Q 2772 3750 2511 3984 
Q 2250 4219 1831 4219 
Q 1534 4219 1204 4116 
Q 875 4013 500 3803 
L 500 4441 
Q 881 4594 1212 4672 
Q 1544 4750 1819 4750 
Q 2544 4750 2975 4387 
Q 3406 4025 3406 3419 
Q 3406 3131 3298 2873 
Q 3191 2616 2906 2266 
Q 2828 2175 2409 1742 
Q 1991 1309 1228 531 
z
" transform="scale(0.015625)"/>
        <path id="DejaVuSans-35" d="M 691 4666 
L 3169 4666 
L 3169 4134 
L 1269 4134 
L 1269 2991 
Q 1406 3038 1543 3061 
Q 1681 3084 1819 3084 
Q 2600 3084 3056 2656 
Q 3513 2228 3513 1497 
Q 3513 744 3044 326 
Q 2575 -91 1722 -91 
Q 1428 -91 1123 -41 
Q 819 9 494 109 
L 494 744 
Q 775 591 1075 516 
Q 1375 441 1709 441 
Q 2250 441 2565 725 
Q 2881 1009 2881 1497 
Q 2881 1984 2565 2268 
Q 2250 2553 1709 2553 
Q 1456 2553 1204 2497 
Q 953 2441 691 2322 
L 691 4666 
z
" transform="scale(0.015625)"/>
       </defs>
       <use xlink:href="#DejaVuSans-30"/>
       <use xlink:href="#DejaVuSans-2e" x="63.623047"/>
       <use xlink:href="#DejaVuSans-32" x="95.410156"/>
       <use xlink:href="#DejaVuSans-35" x="159.033203"/>
      </g>
     </g>
    </g>
    <g id="ytick_3">
     <g id="line2d_14">
      <path d="M 46.789688 83.479804 
L 162.469688 83.479804 
" clip-path="url(#p2b8bad131c)" style="fill: none; stroke: #e5e5e5; stroke-width: 0.8"/>
     </g>
     <g id="line2d_15">
      <path d="M 46.789688 83.479804 
" style="fill: none; stroke: #000000; stroke-width: 1.5"/>
      <g>
       <use xlink:href="#mc29494a062" x="46.789688" y="83.479804" style="stroke: #333333"/>
      </g>
     </g>
     <g id="text_3">
      <!-- 0.50 -->
      <g style="fill: #4d4d4d" transform="translate(22.245938 85.908054) scale(0.088 -0.088)">
       <use xlink:href="#DejaVuSans-30"/>
       <use xlink:href="#DejaVuSans-2e" x="63.623047"/>
       <use xlink:href="#DejaVuSans-35" x="95.410156"/>
       <use xlink:href="#DejaVuSans-30" x="159.033203"/>
      </g>
     </g>
    </g>
    <g id="ytick_4">
     <g id="line2d_16">
      <path d="M 46.789688 55.437531 
L 162.469688 55.437531 
" clip-path="url(#p2b8bad131c)" style="fill: none; stroke: #e5e5e5; stroke-width: 0.8"/>
     </g>
     <g id="line2d_17">
      <path d="M 46.789688 55.437531 
" style="fill: none; stroke: #000000; stroke-width: 1.5"/>
      <g>
       <use xlink:href="#mc29494a062" x="46.789688" y="55.437531" style="stroke: #333333"/>
      </g>
     </g>
     <g id="text_4">
      <!-- 0.75 -->
      <g style="fill: #4d4d4d" transform="translate(22.245938 57.865781) scale(0.088 -0.088)">
       <defs>
        <path id="DejaVuSans-37" d="M 525 4666 
L 3525 4666 
L 3525 4397 
L 1831 0 
L 1172 0 
L 2766 4134 
L 525 4134 
L 525 4666 
z
" transform="scale(0.015625)"/>
       </defs>
       <use xlink:href="#DejaVuSans-30"/>
       <use xlink:href="#DejaVuSans-2e" x="63.623047"/>
       <use xlink:href="#DejaVuSans-37" x="95.410156"/>
       <use xlink:href="#DejaVuSans-35" x="159.033203"/>
      </g>
     </g>
    </g>
    <g id="ytick_5">
     <g id="line2d_18">
      <path d="M 46.789688 27.395258 
L 162.469688 27.395258 
" clip-path="url(#p2b8bad131c)" style="fill: none; stroke: #e5e5e5; stroke-width: 0.8"/>
     </g>
     <g id="line2d_19">
      <path d="M 46.789688 27.395258 
" style="fill: none; stroke: #000000; stroke-width: 1.5"/>
      <g>
       <use xlink:href="#mc29494a062" x="46.789688" y="27.395258" style="stroke: #333333"/>
      </g>
     </g>
     <g id="text_5">
      <!-- 1 -->
      <g style="fill: #4d4d4d" transform="translate(36.240688 29.823508) scale(0.088 -0.088)">
       <defs>
        <path id="DejaVuSans-31" d="M 794 531 
L 1825 531 
L 1825 4091 
L 703 3866 
L 703 4441 
L 1819 4666 
L 2450 4666 
L 2450 531 
L 3481 531 
L 3481 0 
L 794 0 
L 794 531 
z
" transform="scale(0.015625)"/>
       </defs>
       <use xlink:href="#DejaVuSans-31"/>
      </g>
     </g>
    </g>
    <g id="ytick_6">
     <g id="line2d_20">
      <path d="M 46.789688 125.543213 
L 162.469688 125.543213 
" clip-path="url(#p2b8bad131c)" style="fill: none; stroke: #fafafa"/>
     </g>
    </g>
    <g id="ytick_7">
     <g id="line2d_21">
      <path d="M 46.789688 97.50094 
L 162.469688 97.50094 
" clip-path="url(#p2b8bad131c)" style="fill: none; stroke: #fafafa"/>
     </g>
    </g>
    <g id="ytick_8">
     <g id="line2d_22">
      <path d="M 46.789688 69.458668 
L 162.469688 69.458668 
" clip-path="url(#p2b8bad131c)" style="fill: none; stroke: #fafafa"/>
     </g>
    </g>
    <g id="ytick_9">
     <g id="line2d_23">
      <path d="M 46.789688 41.416395 
L 162.469688 41.416395 
" clip-path="url(#p2b8bad131c)" style="fill: none; stroke: #fafafa"/>
     </g>
    </g>
    <g id="text_6">
     <!-- $\Phi(x)$ -->
     <g transform="translate(15.558281 164.994804) rotate(-90) scale(0.11 -0.11)">
      <defs>
       <path id="DejaVuSans-3a6" d="M 2206 3644 
Q 1738 3578 1431 3306 
Q 1025 2947 1025 2328 
Q 1025 1713 1431 1353 
Q 1738 1081 2206 1016 
L 2206 3644 
z
M 2838 1016 
Q 3306 1081 3613 1353 
Q 4013 1713 4013 2328 
Q 4013 2947 3613 3306 
Q 3306 3578 2838 3644 
L 2838 1016 
z
M 2206 494 
Q 1444 563 950 981 
Q 359 1481 359 2328 
Q 359 3175 950 3678 
Q 1441 4100 2206 4169 
L 2206 4666 
L 2838 4666 
L 2838 4169 
Q 3600 4097 4091 3678 
Q 4678 3175 4678 2328 
Q 4678 1484 4091 981 
Q 3600 563 2838 491 
L 2838 0 
L 2206 0 
L 2206 494 
z
" transform="scale(0.015625)"/>
       <path id="DejaVuSans-28" d="M 1984 4856 
Q 1566 4138 1362 3434 
Q 1159 2731 1159 2009 
Q 1159 1288 1364 580 
Q 1569 -128 1984 -844 
L 1484 -844 
Q 1016 -109 783 600 
Q 550 1309 550 2009 
Q 550 2706 781 3412 
Q 1013 4119 1484 4856 
L 1984 4856 
z
" transform="scale(0.015625)"/>
       <path id="DejaVuSans-Oblique-78" d="M 3841 3500 
L 2234 1784 
L 3219 0 
L 2559 0 
L 1819 1388 
L 531 0 
L -166 0 
L 1556 1844 
L 641 3500 
L 1300 3500 
L 1972 2234 
L 3144 3500 
L 3841 3500 
z
" transform="scale(0.015625)"/>
       <path id="DejaVuSans-29" d="M 513 4856 
L 1013 4856 
Q 1481 4119 1714 3412 
Q 1947 2706 1947 2009 
Q 1947 1309 1714 600 
Q 1481 -109 1013 -844 
L 513 -844 
Q 928 -128 1133 580 
Q 1338 1288 1338 2009 
Q 1338 2731 1133 3434 
Q 928 4138 513 4856 
z
" transform="scale(0.015625)"/>
      </defs>
      <use xlink:href="#DejaVuSans-3a6" transform="translate(0 0.125)"/>
      <use xlink:href="#DejaVuSans-28" transform="translate(78.710938 0.125)"/>
      <use xlink:href="#DejaVuSans-Oblique-78" transform="translate(117.724609 0.125)"/>
      <use xlink:href="#DejaVuSans-29" transform="translate(176.904297 0.125)"/>
     </g>
    </g>
   </g>
   <g id="line2d_24">
    <path d="M 52.047869 139.560797 
L 64.536051 139.436005 
L 69.13696 139.175462 
L 72.291869 138.785127 
L 74.789506 138.262763 
L 76.892778 137.609334 
L 78.864597 136.760358 
L 80.573506 135.792667 
L 82.282415 134.565482 
L 83.859869 133.164718 
L 85.437324 131.471906 
L 87.014778 129.455371 
L 88.592233 127.087508 
L 90.301142 124.101103 
L 92.010051 120.660761 
L 93.850415 116.445396 
L 95.822233 111.361799 
L 98.05696 104.955974 
L 100.686051 96.705821 
L 104.629687 83.479804 
L 109.493506 67.292822 
L 112.122597 59.289289 
L 114.357324 53.15489 
L 116.329142 48.340923 
L 118.169506 44.389437 
L 120.009869 40.967773 
L 121.718778 38.253281 
L 123.427688 35.960323 
L 125.136597 34.055852 
L 126.845506 32.50052 
L 128.554415 31.251576 
L 130.263324 30.265448 
L 132.103688 29.448951 
L 134.20696 28.766466 
L 136.573142 28.242069 
L 139.465142 27.846693 
L 143.145869 27.585364 
L 148.66696 27.440581 
L 157.211506 27.398811 
L 157.211506 27.398811 
" clip-path="url(#p2b8bad131c)" style="fill: none; stroke-dasharray: 3.27904,1.417963; stroke-dashoffset: 0; stroke: #000000; stroke-width: 0.886227"/>
   </g>
   <g id="line2d_25">
    <path d="M 52.047869 139.560797 
L 64.536051 139.436004 
L 69.13696 139.175462 
L 72.291869 138.785128 
L 74.789506 138.262762 
L 76.892778 137.609332 
L 78.864597 136.760358 
L 80.573506 135.792664 
L 82.282415 134.565478 
L 83.859869 133.164721 
L 85.437324 131.47191 
L 87.014778 129.455368 
L 88.592233 127.087557 
L 90.301142 124.101055 
L 92.010051 120.660717 
L 93.850415 116.445402 
L 95.822233 111.361787 
L 98.05696 104.955922 
L 100.686051 96.705774 
L 104.629687 83.479804 
L 109.493506 67.292795 
L 112.122597 59.289306 
L 114.357324 53.15489 
L 116.329142 48.340929 
L 118.169506 44.389437 
L 120.009869 40.967718 
L 121.718778 38.253226 
L 123.427688 35.960378 
L 125.136597 34.055859 
L 126.845506 32.500522 
L 128.554415 31.251632 
L 130.263324 30.265441 
L 132.103688 29.448962 
L 134.20696 28.766413 
L 136.573142 28.242023 
L 139.465142 27.846739 
L 143.145869 27.585385 
L 148.66696 27.440575 
L 157.211506 27.398848 
L 157.211506 27.398848 
" clip-path="url(#p2b8bad131c)" style="fill: none; stroke: #ffa500; stroke-opacity: 0.8; stroke-width: 0.886227"/>
   </g>
   <g id="patch_3">
    <path d="M 46.789688 21.786804 
L 162.469688 21.786804 
L 162.469688 7.2 
L 46.789688 7.2 
z
" style="fill: #cccccc; stroke: #7f7f7f; stroke-linejoin: miter"/>
   </g>
   <g id="text_7">
    <!-- Erfc -->
    <g style="fill: #1a1a1a" transform="translate(96.072375 16.921652) scale(0.088 -0.088)">
     <defs>
      <path id="DejaVuSans-45" d="M 628 4666 
L 3578 4666 
L 3578 4134 
L 1259 4134 
L 1259 2753 
L 3481 2753 
L 3481 2222 
L 1259 2222 
L 1259 531 
L 3634 531 
L 3634 0 
L 628 0 
L 628 4666 
z
" transform="scale(0.015625)"/>
      <path id="DejaVuSans-72" d="M 2631 2963 
Q 2534 3019 2420 3045 
Q 2306 3072 2169 3072 
Q 1681 3072 1420 2755 
Q 1159 2438 1159 1844 
L 1159 0 
L 581 0 
L 581 3500 
L 1159 3500 
L 1159 2956 
Q 1341 3275 1631 3429 
Q 1922 3584 2338 3584 
Q 2397 3584 2469 3576 
Q 2541 3569 2628 3553 
L 2631 2963 
z
" transform="scale(0.015625)"/>
      <path id="DejaVuSans-66" d="M 2375 4863 
L 2375 4384 
L 1825 4384 
Q 1516 4384 1395 4259 
Q 1275 4134 1275 3809 
L 1275 3500 
L 2222 3500 
L 2222 3053 
L 1275 3053 
L 1275 0 
L 697 0 
L 697 3053 
L 147 3053 
L 147 3500 
L 697 3500 
L 697 3744 
Q 697 4328 969 4595 
Q 1241 4863 1831 4863 
L 2375 4863 
z
" transform="scale(0.015625)"/>
      <path id="DejaVuSans-63" d="M 3122 3366 
L 3122 2828 
Q 2878 2963 2633 3030 
Q 2388 3097 2138 3097 
Q 1578 3097 1268 2742 
Q 959 2388 959 1747 
Q 959 1106 1268 751 
Q 1578 397 2138 397 
Q 2388 397 2633 464 
Q 2878 531 3122 666 
L 3122 134 
Q 2881 22 2623 -34 
Q 2366 -91 2075 -91 
Q 1284 -91 818 406 
Q 353 903 353 1747 
Q 353 2603 823 3093 
Q 1294 3584 2113 3584 
Q 2378 3584 2631 3529 
Q 2884 3475 3122 3366 
z
" transform="scale(0.015625)"/>
     </defs>
     <use xlink:href="#DejaVuSans-45"/>
     <use xlink:href="#DejaVuSans-72" x="63.183594"/>
     <use xlink:href="#DejaVuSans-66" x="104.296875"/>
     <use xlink:href="#DejaVuSans-63" x="139.501953"/>
    </g>
   </g>
  </g>
  <g id="axes_2">
   <g id="patch_4">
    <path d="M 167.509688 145.172804 
L 283.189687 145.172804 
L 283.189687 21.786804 
L 167.509688 21.786804 
z
" style="fill: #ffffff; stroke: #7f7f7f; stroke-linejoin: miter"/>
   </g>
   <g id="matplotlib.axis_3">
    <g id="xtick_10">
     <g id="line2d_26">
      <path d="M 172.767869 145.172804 
L 172.767869 21.786804 
" clip-path="url(#p828c56e3ac)" style="fill: none; stroke: #e5e5e5; stroke-width: 0.8; stroke-linecap: square"/>
     </g>
    </g>
    <g id="xtick_11">
     <g id="line2d_27">
      <path d="M 199.058778 145.172804 
L 199.058778 21.786804 
" clip-path="url(#p828c56e3ac)" style="fill: none; stroke: #e5e5e5; stroke-width: 0.8; stroke-linecap: square"/>
     </g>
    </g>
    <g id="xtick_12">
     <g id="line2d_28">
      <path d="M 225.349688 145.172804 
L 225.349688 21.786804 
" clip-path="url(#p828c56e3ac)" style="fill: none; stroke: #e5e5e5; stroke-width: 0.8; stroke-linecap: square"/>
     </g>
    </g>
    <g id="xtick_13">
     <g id="line2d_29">
      <path d="M 251.640597 145.172804 
L 251.640597 21.786804 
" clip-path="url(#p828c56e3ac)" style="fill: none; stroke: #e5e5e5; stroke-width: 0.8; stroke-linecap: square"/>
     </g>
    </g>
    <g id="xtick_14">
     <g id="line2d_30">
      <path d="M 277.931506 145.172804 
L 277.931506 21.786804 
" clip-path="url(#p828c56e3ac)" style="fill: none; stroke: #e5e5e5; stroke-width: 0.8; stroke-linecap: square"/>
     </g>
    </g>
    <g id="xtick_15">
     <g id="line2d_31">
      <path d="M 185.913324 145.172804 
L 185.913324 21.786804 
" clip-path="url(#p828c56e3ac)" style="fill: none; stroke: #fafafa; stroke-linecap: square"/>
     </g>
    </g>
    <g id="xtick_16">
     <g id="line2d_32">
      <path d="M 212.204233 145.172804 
L 212.204233 21.786804 
" clip-path="url(#p828c56e3ac)" style="fill: none; stroke: #fafafa; stroke-linecap: square"/>
     </g>
    </g>
    <g id="xtick_17">
     <g id="line2d_33">
      <path d="M 238.495142 145.172804 
L 238.495142 21.786804 
" clip-path="url(#p828c56e3ac)" style="fill: none; stroke: #fafafa; stroke-linecap: square"/>
     </g>
    </g>
    <g id="xtick_18">
     <g id="line2d_34">
      <path d="M 264.786051 145.172804 
L 264.786051 21.786804 
" clip-path="url(#p828c56e3ac)" style="fill: none; stroke: #fafafa; stroke-linecap: square"/>
     </g>
    </g>
   </g>
   <g id="matplotlib.axis_4">
    <g id="ytick_10">
     <g id="line2d_35">
      <path d="M 167.509688 139.564349 
L 283.189687 139.564349 
" clip-path="url(#p828c56e3ac)" style="fill: none; stroke: #e5e5e5; stroke-width: 0.8; stroke-linecap: square"/>
     </g>
    </g>
    <g id="ytick_11">
     <g id="line2d_36">
      <path d="M 167.509688 111.522077 
L 283.189687 111.522077 
" clip-path="url(#p828c56e3ac)" style="fill: none; stroke: #e5e5e5; stroke-width: 0.8; stroke-linecap: square"/>
     </g>
    </g>
    <g id="ytick_12">
     <g id="line2d_37">
      <path d="M 167.509688 83.479804 
L 283.189687 83.479804 
" clip-path="url(#p828c56e3ac)" style="fill: none; stroke: #e5e5e5; stroke-width: 0.8; stroke-linecap: square"/>
     </g>
    </g>
    <g id="ytick_13">
     <g id="line2d_38">
      <path d="M 167.509688 55.437531 
L 283.189687 55.437531 
" clip-path="url(#p828c56e3ac)" style="fill: none; stroke: #e5e5e5; stroke-width: 0.8; stroke-linecap: square"/>
     </g>
    </g>
    <g id="ytick_14">
     <g id="line2d_39">
      <path d="M 167.509688 27.395258 
L 283.189687 27.395258 
" clip-path="url(#p828c56e3ac)" style="fill: none; stroke: #e5e5e5; stroke-width: 0.8; stroke-linecap: square"/>
     </g>
    </g>
    <g id="ytick_15">
     <g id="line2d_40">
      <path d="M 167.509688 125.543213 
L 283.189687 125.543213 
" clip-path="url(#p828c56e3ac)" style="fill: none; stroke: #fafafa; stroke-linecap: square"/>
     </g>
    </g>
    <g id="ytick_16">
     <g id="line2d_41">
      <path d="M 167.509688 97.50094 
L 283.189687 97.50094 
" clip-path="url(#p828c56e3ac)" style="fill: none; stroke: #fafafa; stroke-linecap: square"/>
     </g>
    </g>
    <g id="ytick_17">
     <g id="line2d_42">
      <path d="M 167.509688 69.458668 
L 283.189687 69.458668 
" clip-path="url(#p828c56e3ac)" style="fill: none; stroke: #fafafa; stroke-linecap: square"/>
     </g>
    </g>
    <g id="ytick_18">
     <g id="line2d_43">
      <path d="M 167.509688 41.416395 
L 283.189687 41.416395 
" clip-path="url(#p828c56e3ac)" style="fill: none; stroke: #fafafa; stroke-linecap: square"/>
     </g>
    </g>
   </g>
   <g id="line2d_44">
    <path d="M 172.767869 139.560797 
L 185.256051 139.436005 
L 189.85696 139.175462 
L 193.011869 138.785127 
L 195.509506 138.262763 
L 197.612778 137.609334 
L 199.584597 136.760358 
L 201.293506 135.792667 
L 203.002415 134.565482 
L 204.579869 133.164718 
L 206.157324 131.471906 
L 207.734778 129.455371 
L 209.312233 127.087508 
L 211.021142 124.101103 
L 212.730051 120.660761 
L 214.570415 116.445396 
L 216.542233 111.361799 
L 218.77696 104.955974 
L 221.406051 96.705821 
L 225.349687 83.479804 
L 230.213506 67.292822 
L 232.842597 59.289289 
L 235.077324 53.15489 
L 237.049142 48.340923 
L 238.889506 44.389437 
L 240.729869 40.967773 
L 242.438778 38.253281 
L 244.147688 35.960323 
L 245.856597 34.055852 
L 247.565506 32.50052 
L 249.274415 31.251576 
L 250.983324 30.265448 
L 252.823688 29.448951 
L 254.92696 28.766466 
L 257.293142 28.242069 
L 260.185142 27.846693 
L 263.865869 27.585364 
L 269.38696 27.440581 
L 277.931506 27.398811 
L 277.931506 27.398811 
" clip-path="url(#p828c56e3ac)" style="fill: none; stroke-dasharray: 3.27904,1.417963; stroke-dashoffset: 0; stroke: #000000; stroke-width: 0.886227"/>
   </g>
   <g id="line2d_45">
    <path d="M 184.730233 31.392853 
L 185.650415 57.760553 
L 186.570597 78.110494 
L 187.490778 93.70469 
L 188.41096 105.562869 
L 189.331142 114.503643 
L 190.251324 121.180845 
L 191.171506 126.112247 
L 191.960233 129.260968 
L 192.74896 131.631246 
L 193.537688 133.38648 
L 194.326415 134.656918 
L 195.115142 135.545611 
L 195.903869 136.13331 
L 196.824051 136.521292 
L 197.744233 136.658968 
L 198.795869 136.577859 
L 199.97896 136.246175 
L 201.293506 135.633485 
L 202.739506 134.700305 
L 204.185506 133.509619 
L 205.76296 131.912578 
L 207.340415 129.987453 
L 208.917869 127.712451 
L 210.626778 124.829818 
L 212.335688 121.495255 
L 214.176051 117.39267 
L 216.147869 112.423467 
L 218.251142 106.519447 
L 220.748778 98.828013 
L 224.166597 87.501739 
L 230.607869 66.046259 
L 233.23696 58.157968 
L 235.471688 52.145368 
L 237.443506 47.449634 
L 239.283869 43.611993 
L 240.992778 40.522295 
L 242.701688 37.876338 
L 244.410597 35.65124 
L 245.988051 33.947167 
L 247.565506 32.558626 
L 249.011506 31.554713 
L 250.457506 30.816752 
L 251.772051 30.406999 
L 252.823688 30.298082 
L 253.743869 30.404755 
L 254.664051 30.752928 
L 255.452778 31.29706 
L 256.241506 32.130477 
L 257.030233 33.330798 
L 257.81896 34.996958 
L 258.607687 37.254361 
L 259.396415 40.26038 
L 260.185142 44.211312 
L 260.973869 49.350115 
L 261.762597 55.975831 
L 262.551324 64.454692 
L 263.340051 75.232459 
L 264.128778 88.849114 
L 264.917506 105.955798 
L 265.837688 131.376152 
L 265.969142 135.566766 
L 265.969142 135.566766 
" clip-path="url(#p828c56e3ac)" style="fill: none; stroke: #ffa500; stroke-opacity: 0.8; stroke-width: 0.886227"/>
   </g>
   <g id="patch_5">
    <path d="M 167.509688 21.786804 
L 283.189687 21.786804 
L 283.189687 7.2 
L 167.509688 7.2 
z
" style="fill: #cccccc; stroke: #7f7f7f; stroke-linejoin: miter"/>
   </g>
   <g id="text_8">
    <!-- TS05 -->
    <g style="fill: #1a1a1a" transform="translate(214.269938 16.921652) scale(0.088 -0.088)">
     <defs>
      <path id="DejaVuSans-54" d="M -19 4666 
L 3928 4666 
L 3928 4134 
L 2272 4134 
L 2272 0 
L 1638 0 
L 1638 4134 
L -19 4134 
L -19 4666 
z
" transform="scale(0.015625)"/>
      <path id="DejaVuSans-53" d="M 3425 4513 
L 3425 3897 
Q 3066 4069 2747 4153 
Q 2428 4238 2131 4238 
Q 1616 4238 1336 4038 
Q 1056 3838 1056 3469 
Q 1056 3159 1242 3001 
Q 1428 2844 1947 2747 
L 2328 2669 
Q 3034 2534 3370 2195 
Q 3706 1856 3706 1288 
Q 3706 609 3251 259 
Q 2797 -91 1919 -91 
Q 1588 -91 1214 -16 
Q 841 59 441 206 
L 441 856 
Q 825 641 1194 531 
Q 1563 422 1919 422 
Q 2459 422 2753 634 
Q 3047 847 3047 1241 
Q 3047 1584 2836 1778 
Q 2625 1972 2144 2069 
L 1759 2144 
Q 1053 2284 737 2584 
Q 422 2884 422 3419 
Q 422 4038 858 4394 
Q 1294 4750 2059 4750 
Q 2388 4750 2728 4690 
Q 3069 4631 3425 4513 
z
" transform="scale(0.015625)"/>
     </defs>
     <use xlink:href="#DejaVuSans-54"/>
     <use xlink:href="#DejaVuSans-53" x="61.083984"/>
     <use xlink:href="#DejaVuSans-30" x="124.560547"/>
     <use xlink:href="#DejaVuSans-35" x="188.183594"/>
    </g>
   </g>
  </g>
  <g id="axes_3">
   <g id="patch_6">
    <path d="M 288.229688 145.172804 
L 403.909687 145.172804 
L 403.909687 21.786804 
L 288.229688 21.786804 
z
" style="fill: #ffffff; stroke: #7f7f7f; stroke-linejoin: miter"/>
   </g>
   <g id="matplotlib.axis_5">
    <g id="xtick_19">
     <g id="line2d_46">
      <path d="M 293.487869 145.172804 
L 293.487869 21.786804 
" clip-path="url(#p3d2e91994e)" style="fill: none; stroke: #e5e5e5; stroke-width: 0.8; stroke-linecap: square"/>
     </g>
    </g>
    <g id="xtick_20">
     <g id="line2d_47">
      <path d="M 319.778778 145.172804 
L 319.778778 21.786804 
" clip-path="url(#p3d2e91994e)" style="fill: none; stroke: #e5e5e5; stroke-width: 0.8; stroke-linecap: square"/>
     </g>
    </g>
    <g id="xtick_21">
     <g id="line2d_48">
      <path d="M 346.069687 145.172804 
L 346.069687 21.786804 
" clip-path="url(#p3d2e91994e)" style="fill: none; stroke: #e5e5e5; stroke-width: 0.8; stroke-linecap: square"/>
     </g>
    </g>
    <g id="xtick_22">
     <g id="line2d_49">
      <path d="M 372.360597 145.172804 
L 372.360597 21.786804 
" clip-path="url(#p3d2e91994e)" style="fill: none; stroke: #e5e5e5; stroke-width: 0.8; stroke-linecap: square"/>
     </g>
    </g>
    <g id="xtick_23">
     <g id="line2d_50">
      <path d="M 398.651506 145.172804 
L 398.651506 21.786804 
" clip-path="url(#p3d2e91994e)" style="fill: none; stroke: #e5e5e5; stroke-width: 0.8; stroke-linecap: square"/>
     </g>
    </g>
    <g id="xtick_24">
     <g id="line2d_51">
      <path d="M 306.633324 145.172804 
L 306.633324 21.786804 
" clip-path="url(#p3d2e91994e)" style="fill: none; stroke: #fafafa; stroke-linecap: square"/>
     </g>
    </g>
    <g id="xtick_25">
     <g id="line2d_52">
      <path d="M 332.924233 145.172804 
L 332.924233 21.786804 
" clip-path="url(#p3d2e91994e)" style="fill: none; stroke: #fafafa; stroke-linecap: square"/>
     </g>
    </g>
    <g id="xtick_26">
     <g id="line2d_53">
      <path d="M 359.215142 145.172804 
L 359.215142 21.786804 
" clip-path="url(#p3d2e91994e)" style="fill: none; stroke: #fafafa; stroke-linecap: square"/>
     </g>
    </g>
    <g id="xtick_27">
     <g id="line2d_54">
      <path d="M 385.506051 145.172804 
L 385.506051 21.786804 
" clip-path="url(#p3d2e91994e)" style="fill: none; stroke: #fafafa; stroke-linecap: square"/>
     </g>
    </g>
   </g>
   <g id="matplotlib.axis_6">
    <g id="ytick_19">
     <g id="line2d_55">
      <path d="M 288.229688 139.564349 
L 403.909687 139.564349 
" clip-path="url(#p3d2e91994e)" style="fill: none; stroke: #e5e5e5; stroke-width: 0.8; stroke-linecap: square"/>
     </g>
    </g>
    <g id="ytick_20">
     <g id="line2d_56">
      <path d="M 288.229688 111.522077 
L 403.909687 111.522077 
" clip-path="url(#p3d2e91994e)" style="fill: none; stroke: #e5e5e5; stroke-width: 0.8; stroke-linecap: square"/>
     </g>
    </g>
    <g id="ytick_21">
     <g id="line2d_57">
      <path d="M 288.229688 83.479804 
L 403.909687 83.479804 
" clip-path="url(#p3d2e91994e)" style="fill: none; stroke: #e5e5e5; stroke-width: 0.8; stroke-linecap: square"/>
     </g>
    </g>
    <g id="ytick_22">
     <g id="line2d_58">
      <path d="M 288.229688 55.437531 
L 403.909687 55.437531 
" clip-path="url(#p3d2e91994e)" style="fill: none; stroke: #e5e5e5; stroke-width: 0.8; stroke-linecap: square"/>
     </g>
    </g>
    <g id="ytick_23">
     <g id="line2d_59">
      <path d="M 288.229688 27.395258 
L 403.909687 27.395258 
" clip-path="url(#p3d2e91994e)" style="fill: none; stroke: #e5e5e5; stroke-width: 0.8; stroke-linecap: square"/>
     </g>
    </g>
    <g id="ytick_24">
     <g id="line2d_60">
      <path d="M 288.229688 125.543213 
L 403.909687 125.543213 
" clip-path="url(#p3d2e91994e)" style="fill: none; stroke: #fafafa; stroke-linecap: square"/>
     </g>
    </g>
    <g id="ytick_25">
     <g id="line2d_61">
      <path d="M 288.229688 97.50094 
L 403.909687 97.50094 
" clip-path="url(#p3d2e91994e)" style="fill: none; stroke: #fafafa; stroke-linecap: square"/>
     </g>
    </g>
    <g id="ytick_26">
     <g id="line2d_62">
      <path d="M 288.229688 69.458668 
L 403.909687 69.458668 
" clip-path="url(#p3d2e91994e)" style="fill: none; stroke: #fafafa; stroke-linecap: square"/>
     </g>
    </g>
    <g id="ytick_27">
     <g id="line2d_63">
      <path d="M 288.229688 41.416395 
L 403.909687 41.416395 
" clip-path="url(#p3d2e91994e)" style="fill: none; stroke: #fafafa; stroke-linecap: square"/>
     </g>
    </g>
   </g>
   <g id="line2d_64">
    <path d="M 293.487869 139.560797 
L 305.976051 139.436005 
L 310.57696 139.175462 
L 313.731869 138.785127 
L 316.229506 138.262763 
L 318.332778 137.609334 
L 320.304597 136.760358 
L 322.013506 135.792667 
L 323.722415 134.565482 
L 325.299869 133.164718 
L 326.877324 131.471906 
L 328.454778 129.455371 
L 330.032233 127.087508 
L 331.741142 124.101103 
L 333.450051 120.660761 
L 335.290415 116.445396 
L 337.262233 111.361799 
L 339.49696 104.955974 
L 342.126051 96.705821 
L 346.069687 83.479804 
L 350.933506 67.292822 
L 353.562597 59.289289 
L 355.797324 53.15489 
L 357.769142 48.340923 
L 359.609506 44.389437 
L 361.449869 40.967773 
L 363.158778 38.253281 
L 364.867687 35.960323 
L 366.576597 34.055852 
L 368.285506 32.50052 
L 369.994415 31.251576 
L 371.703324 30.265448 
L 373.543687 29.448951 
L 375.64696 28.766466 
L 378.013142 28.242069 
L 380.905142 27.846693 
L 384.585869 27.585364 
L 390.10696 27.440581 
L 398.651506 27.398811 
L 398.651506 27.398811 
" clip-path="url(#p3d2e91994e)" style="fill: none; stroke-dasharray: 3.27904,1.417963; stroke-dashoffset: 0; stroke: #000000; stroke-width: 0.886227"/>
   </g>
   <g id="line2d_65">
    <path d="M 309.525324 139.558161 
L 311.497142 139.170976 
L 315.835142 138.365553 
L 318.069869 137.704653 
L 320.041688 136.88906 
L 321.882051 135.875792 
L 323.59096 134.670087 
L 325.168415 133.292145 
L 326.745869 131.62492 
L 328.323324 129.636487 
L 329.900778 127.298771 
L 331.609688 124.346817 
L 333.318597 120.9417 
L 335.15896 116.76385 
L 337.130778 111.718148 
L 339.365506 105.34986 
L 341.994597 97.133026 
L 345.806778 84.374689 
L 350.933506 67.292795 
L 353.562597 59.289306 
L 355.797324 53.15489 
L 357.769142 48.340929 
L 359.609506 44.389437 
L 361.449869 40.967718 
L 363.158778 38.253226 
L 364.867687 35.960378 
L 366.576597 34.055859 
L 368.285506 32.500522 
L 369.994415 31.25152 
L 371.834778 30.199149 
L 373.675142 29.398598 
L 375.778415 28.7285 
L 378.276051 28.179208 
L 382.614051 27.401428 
L 382.614051 27.401428 
" clip-path="url(#p3d2e91994e)" style="fill: none; stroke: #ffa500; stroke-opacity: 0.8; stroke-width: 0.886227"/>
   </g>
   <g id="patch_7">
    <path d="M 288.229688 21.786804 
L 403.909687 21.786804 
L 403.909687 7.2 
L 288.229688 7.2 
z
" style="fill: #cccccc; stroke: #7f7f7f; stroke-linejoin: miter"/>
   </g>
   <g id="text_9">
    <!-- TS10 -->
    <g style="fill: #1a1a1a" transform="translate(334.989937 16.921652) scale(0.088 -0.088)">
     <use xlink:href="#DejaVuSans-54"/>
     <use xlink:href="#DejaVuSans-53" x="61.083984"/>
     <use xlink:href="#DejaVuSans-31" x="124.560547"/>
     <use xlink:href="#DejaVuSans-30" x="188.183594"/>
    </g>
   </g>
  </g>
  <g id="axes_4">
   <g id="patch_8">
    <path d="M 46.789688 287.898804 
L 162.469688 287.898804 
L 162.469688 164.512804 
L 46.789688 164.512804 
z
" style="fill: #ffffff; stroke: #7f7f7f; stroke-linejoin: miter"/>
   </g>
   <g id="matplotlib.axis_7">
    <g id="xtick_28">
     <g id="line2d_66">
      <path d="M 52.047869 287.898804 
L 52.047869 164.512804 
" clip-path="url(#pea0c61a66e)" style="fill: none; stroke: #e5e5e5; stroke-width: 0.8; stroke-linecap: square"/>
     </g>
     <g id="line2d_67">
      <path d="M 52.047869 287.898804 
" style="fill: none; stroke: #000000; stroke-width: 1.5; stroke-linecap: square"/>
      <defs>
       <path id="mcc4e1cf4f1" d="M 0 0 
L 0 2.75 
" style="stroke: #333333"/>
      </defs>
      <g>
       <use xlink:href="#mcc4e1cf4f1" x="52.047869" y="287.898804" style="stroke: #333333"/>
      </g>
     </g>
     <g id="text_10">
      <!-- −4 -->
      <g style="fill: #4d4d4d" transform="translate(45.561307 299.535429) scale(0.088 -0.088)">
       <defs>
        <path id="DejaVuSans-2212" d="M 678 2272 
L 4684 2272 
L 4684 1741 
L 678 1741 
L 678 2272 
z
" transform="scale(0.015625)"/>
        <path id="DejaVuSans-34" d="M 2419 4116 
L 825 1625 
L 2419 1625 
L 2419 4116 
z
M 2253 4666 
L 3047 4666 
L 3047 1625 
L 3713 1625 
L 3713 1100 
L 3047 1100 
L 3047 0 
L 2419 0 
L 2419 1100 
L 313 1100 
L 313 1709 
L 2253 4666 
z
" transform="scale(0.015625)"/>
       </defs>
       <use xlink:href="#DejaVuSans-2212"/>
       <use xlink:href="#DejaVuSans-34" x="83.789062"/>
      </g>
     </g>
    </g>
    <g id="xtick_29">
     <g id="line2d_68">
      <path d="M 78.338778 287.898804 
L 78.338778 164.512804 
" clip-path="url(#pea0c61a66e)" style="fill: none; stroke: #e5e5e5; stroke-width: 0.8; stroke-linecap: square"/>
     </g>
     <g id="line2d_69">
      <path d="M 78.338778 287.898804 
" style="fill: none; stroke: #000000; stroke-width: 1.5; stroke-linecap: square"/>
      <g>
       <use xlink:href="#mcc4e1cf4f1" x="78.338778" y="287.898804" style="stroke: #333333"/>
      </g>
     </g>
     <g id="text_11">
      <!-- −2 -->
      <g style="fill: #4d4d4d" transform="translate(71.852216 299.535429) scale(0.088 -0.088)">
       <use xlink:href="#DejaVuSans-2212"/>
       <use xlink:href="#DejaVuSans-32" x="83.789062"/>
      </g>
     </g>
    </g>
    <g id="xtick_30">
     <g id="line2d_70">
      <path d="M 104.629688 287.898804 
L 104.629688 164.512804 
" clip-path="url(#pea0c61a66e)" style="fill: none; stroke: #e5e5e5; stroke-width: 0.8; stroke-linecap: square"/>
     </g>
     <g id="line2d_71">
      <path d="M 104.629688 287.898804 
" style="fill: none; stroke: #000000; stroke-width: 1.5; stroke-linecap: square"/>
      <g>
       <use xlink:href="#mcc4e1cf4f1" x="104.629688" y="287.898804" style="stroke: #333333"/>
      </g>
     </g>
     <g id="text_12">
      <!-- 0 -->
      <g style="fill: #4d4d4d" transform="translate(101.830188 299.535429) scale(0.088 -0.088)">
       <use xlink:href="#DejaVuSans-30"/>
      </g>
     </g>
    </g>
    <g id="xtick_31">
     <g id="line2d_72">
      <path d="M 130.920597 287.898804 
L 130.920597 164.512804 
" clip-path="url(#pea0c61a66e)" style="fill: none; stroke: #e5e5e5; stroke-width: 0.8; stroke-linecap: square"/>
     </g>
     <g id="line2d_73">
      <path d="M 130.920597 287.898804 
" style="fill: none; stroke: #000000; stroke-width: 1.5; stroke-linecap: square"/>
      <g>
       <use xlink:href="#mcc4e1cf4f1" x="130.920597" y="287.898804" style="stroke: #333333"/>
      </g>
     </g>
     <g id="text_13">
      <!-- 2 -->
      <g style="fill: #4d4d4d" transform="translate(128.121097 299.535429) scale(0.088 -0.088)">
       <use xlink:href="#DejaVuSans-32"/>
      </g>
     </g>
    </g>
    <g id="xtick_32">
     <g id="line2d_74">
      <path d="M 157.211506 287.898804 
L 157.211506 164.512804 
" clip-path="url(#pea0c61a66e)" style="fill: none; stroke: #e5e5e5; stroke-width: 0.8; stroke-linecap: square"/>
     </g>
     <g id="line2d_75">
      <path d="M 157.211506 287.898804 
" style="fill: none; stroke: #000000; stroke-width: 1.5; stroke-linecap: square"/>
      <g>
       <use xlink:href="#mcc4e1cf4f1" x="157.211506" y="287.898804" style="stroke: #333333"/>
      </g>
     </g>
     <g id="text_14">
      <!-- 4 -->
      <g style="fill: #4d4d4d" transform="translate(154.412006 299.535429) scale(0.088 -0.088)">
       <use xlink:href="#DejaVuSans-34"/>
      </g>
     </g>
    </g>
    <g id="xtick_33">
     <g id="line2d_76">
      <path d="M 65.193324 287.898804 
L 65.193324 164.512804 
" clip-path="url(#pea0c61a66e)" style="fill: none; stroke: #fafafa; stroke-linecap: square"/>
     </g>
    </g>
    <g id="xtick_34">
     <g id="line2d_77">
      <path d="M 91.484233 287.898804 
L 91.484233 164.512804 
" clip-path="url(#pea0c61a66e)" style="fill: none; stroke: #fafafa; stroke-linecap: square"/>
     </g>
    </g>
    <g id="xtick_35">
     <g id="line2d_78">
      <path d="M 117.775142 287.898804 
L 117.775142 164.512804 
" clip-path="url(#pea0c61a66e)" style="fill: none; stroke: #fafafa; stroke-linecap: square"/>
     </g>
    </g>
    <g id="xtick_36">
     <g id="line2d_79">
      <path d="M 144.066051 287.898804 
L 144.066051 164.512804 
" clip-path="url(#pea0c61a66e)" style="fill: none; stroke: #fafafa; stroke-linecap: square"/>
     </g>
    </g>
   </g>
   <g id="matplotlib.axis_8">
    <g id="ytick_28">
     <g id="line2d_80">
      <path d="M 46.789688 282.290349 
L 162.469688 282.290349 
" clip-path="url(#pea0c61a66e)" style="fill: none; stroke: #e5e5e5; stroke-width: 0.8; stroke-linecap: square"/>
     </g>
     <g id="line2d_81">
      <path d="M 46.789688 282.290349 
" style="fill: none; stroke: #000000; stroke-width: 1.5; stroke-linecap: square"/>
      <g>
       <use xlink:href="#mc29494a062" x="46.789688" y="282.290349" style="stroke: #333333"/>
      </g>
     </g>
     <g id="text_15">
      <!-- 0 -->
      <g style="fill: #4d4d4d" transform="translate(36.240688 284.718599) scale(0.088 -0.088)">
       <use xlink:href="#DejaVuSans-30"/>
      </g>
     </g>
    </g>
    <g id="ytick_29">
     <g id="line2d_82">
      <path d="M 46.789688 254.248077 
L 162.469688 254.248077 
" clip-path="url(#pea0c61a66e)" style="fill: none; stroke: #e5e5e5; stroke-width: 0.8; stroke-linecap: square"/>
     </g>
     <g id="line2d_83">
      <path d="M 46.789688 254.248077 
" style="fill: none; stroke: #000000; stroke-width: 1.5; stroke-linecap: square"/>
      <g>
       <use xlink:href="#mc29494a062" x="46.789688" y="254.248077" style="stroke: #333333"/>
      </g>
     </g>
     <g id="text_16">
      <!-- 0.25 -->
      <g style="fill: #4d4d4d" transform="translate(22.245938 256.676327) scale(0.088 -0.088)">
       <use xlink:href="#DejaVuSans-30"/>
       <use xlink:href="#DejaVuSans-2e" x="63.623047"/>
       <use xlink:href="#DejaVuSans-32" x="95.410156"/>
       <use xlink:href="#DejaVuSans-35" x="159.033203"/>
      </g>
     </g>
    </g>
    <g id="ytick_30">
     <g id="line2d_84">
      <path d="M 46.789688 226.205804 
L 162.469688 226.205804 
" clip-path="url(#pea0c61a66e)" style="fill: none; stroke: #e5e5e5; stroke-width: 0.8; stroke-linecap: square"/>
     </g>
     <g id="line2d_85">
      <path d="M 46.789688 226.205804 
" style="fill: none; stroke: #000000; stroke-width: 1.5; stroke-linecap: square"/>
      <g>
       <use xlink:href="#mc29494a062" x="46.789688" y="226.205804" style="stroke: #333333"/>
      </g>
     </g>
     <g id="text_17">
      <!-- 0.50 -->
      <g style="fill: #4d4d4d" transform="translate(22.245938 228.634054) scale(0.088 -0.088)">
       <use xlink:href="#DejaVuSans-30"/>
       <use xlink:href="#DejaVuSans-2e" x="63.623047"/>
       <use xlink:href="#DejaVuSans-35" x="95.410156"/>
       <use xlink:href="#DejaVuSans-30" x="159.033203"/>
      </g>
     </g>
    </g>
    <g id="ytick_31">
     <g id="line2d_86">
      <path d="M 46.789688 198.163531 
L 162.469688 198.163531 
" clip-path="url(#pea0c61a66e)" style="fill: none; stroke: #e5e5e5; stroke-width: 0.8; stroke-linecap: square"/>
     </g>
     <g id="line2d_87">
      <path d="M 46.789688 198.163531 
" style="fill: none; stroke: #000000; stroke-width: 1.5; stroke-linecap: square"/>
      <g>
       <use xlink:href="#mc29494a062" x="46.789688" y="198.163531" style="stroke: #333333"/>
      </g>
     </g>
     <g id="text_18">
      <!-- 0.75 -->
      <g style="fill: #4d4d4d" transform="translate(22.245938 200.591781) scale(0.088 -0.088)">
       <use xlink:href="#DejaVuSans-30"/>
       <use xlink:href="#DejaVuSans-2e" x="63.623047"/>
       <use xlink:href="#DejaVuSans-37" x="95.410156"/>
       <use xlink:href="#DejaVuSans-35" x="159.033203"/>
      </g>
     </g>
    </g>
    <g id="ytick_32">
     <g id="line2d_88">
      <path d="M 46.789688 170.121258 
L 162.469688 170.121258 
" clip-path="url(#pea0c61a66e)" style="fill: none; stroke: #e5e5e5; stroke-width: 0.8; stroke-linecap: square"/>
     </g>
     <g id="line2d_89">
      <path d="M 46.789688 170.121258 
" style="fill: none; stroke: #000000; stroke-width: 1.5; stroke-linecap: square"/>
      <g>
       <use xlink:href="#mc29494a062" x="46.789688" y="170.121258" style="stroke: #333333"/>
      </g>
     </g>
     <g id="text_19">
      <!-- 1 -->
      <g style="fill: #4d4d4d" transform="translate(36.240688 172.549508) scale(0.088 -0.088)">
       <use xlink:href="#DejaVuSans-31"/>
      </g>
     </g>
    </g>
    <g id="ytick_33">
     <g id="line2d_90">
      <path d="M 46.789688 268.269213 
L 162.469688 268.269213 
" clip-path="url(#pea0c61a66e)" style="fill: none; stroke: #fafafa; stroke-linecap: square"/>
     </g>
    </g>
    <g id="ytick_34">
     <g id="line2d_91">
      <path d="M 46.789688 240.22694 
L 162.469688 240.22694 
" clip-path="url(#pea0c61a66e)" style="fill: none; stroke: #fafafa; stroke-linecap: square"/>
     </g>
    </g>
    <g id="ytick_35">
     <g id="line2d_92">
      <path d="M 46.789688 212.184668 
L 162.469688 212.184668 
" clip-path="url(#pea0c61a66e)" style="fill: none; stroke: #fafafa; stroke-linecap: square"/>
     </g>
    </g>
    <g id="ytick_36">
     <g id="line2d_93">
      <path d="M 46.789688 184.142395 
L 162.469688 184.142395 
" clip-path="url(#pea0c61a66e)" style="fill: none; stroke: #fafafa; stroke-linecap: square"/>
     </g>
    </g>
   </g>
   <g id="line2d_94">
    <path d="M 52.047869 282.286797 
L 64.536051 282.162005 
L 69.13696 281.901462 
L 72.291869 281.511127 
L 74.789506 280.988763 
L 76.892778 280.335334 
L 78.864597 279.486358 
L 80.573506 278.518667 
L 82.282415 277.291482 
L 83.859869 275.890718 
L 85.437324 274.197906 
L 87.014778 272.181371 
L 88.592233 269.813508 
L 90.301142 266.827103 
L 92.010051 263.386761 
L 93.850415 259.171396 
L 95.822233 254.087799 
L 98.05696 247.681974 
L 100.686051 239.431821 
L 104.629687 226.205804 
L 109.493506 210.018822 
L 112.122597 202.015289 
L 114.357324 195.88089 
L 116.329142 191.066923 
L 118.169506 187.115437 
L 120.009869 183.693773 
L 121.718778 180.979281 
L 123.427688 178.686323 
L 125.136597 176.781852 
L 126.845506 175.22652 
L 128.554415 173.977576 
L 130.263324 172.991448 
L 132.103688 172.174951 
L 134.20696 171.492466 
L 136.573142 170.968069 
L 139.465142 170.572693 
L 143.145869 170.311364 
L 148.66696 170.166581 
L 157.211506 170.124811 
L 157.211506 170.124811 
" clip-path="url(#pea0c61a66e)" style="fill: none; stroke-dasharray: 3.27904,1.417963; stroke-dashoffset: 0; stroke: #000000; stroke-width: 0.886227"/>
   </g>
   <g id="line2d_95">
    <path d="M 52.047869 232.005619 
L 52.705142 248.825038 
L 53.362415 260.135832 
L 54.019688 267.70231 
L 54.67696 272.736538 
L 55.334233 276.067253 
L 55.991506 278.258028 
L 56.648778 279.690102 
L 57.306051 280.620017 
L 58.094778 281.310365 
L 58.883506 281.712653 
L 59.935142 281.994443 
L 61.512597 282.151895 
L 64.273142 282.160987 
L 68.479688 281.955856 
L 71.766051 281.593805 
L 74.395142 281.087437 
L 76.629869 280.429935 
L 78.601688 279.614915 
L 80.442051 278.60177 
L 82.15096 277.396087 
L 83.728415 276.018145 
L 85.305869 274.35092 
L 86.883324 272.362487 
L 88.460778 270.024771 
L 90.169688 267.072817 
L 91.878597 263.6677 
L 93.71896 259.48985 
L 95.690778 254.444148 
L 97.925506 248.07586 
L 100.554597 239.859026 
L 104.366778 227.100689 
L 109.493506 210.018795 
L 112.122597 202.015306 
L 114.357324 195.88089 
L 116.329142 191.066929 
L 118.169506 187.115437 
L 120.009869 183.693718 
L 121.718778 180.979226 
L 123.427688 178.686378 
L 125.136597 176.781859 
L 126.845506 175.226522 
L 128.554415 173.977632 
L 130.263324 172.991441 
L 132.103688 172.174962 
L 134.20696 171.492413 
L 136.573142 170.968023 
L 139.465142 170.572739 
L 143.145869 170.313404 
L 147.22096 170.242177 
L 149.192778 170.394951 
L 150.375869 170.698929 
L 151.164597 171.10128 
L 151.821869 171.649674 
L 152.479142 172.501823 
L 153.136415 173.81622 
L 153.662233 175.355966 
L 154.188051 177.513089 
L 154.713869 180.523596 
L 155.239688 184.709297 
L 155.765506 190.508439 
L 156.291324 198.514733 
L 156.817142 209.531083 
L 157.211506 220.405989 
L 157.211506 220.405989 
" clip-path="url(#pea0c61a66e)" style="fill: none; stroke: #ffa500; stroke-opacity: 0.8; stroke-width: 0.886227"/>
   </g>
   <g id="patch_9">
    <path d="M 46.789688 164.512804 
L 162.469688 164.512804 
L 162.469688 149.926 
L 46.789688 149.926 
z
" style="fill: #cccccc; stroke: #7f7f7f; stroke-linejoin: miter"/>
   </g>
   <g id="text_20">
    <!-- TS15 -->
    <g style="fill: #1a1a1a" transform="translate(93.549938 159.647652) scale(0.088 -0.088)">
     <use xlink:href="#DejaVuSans-54"/>
     <use xlink:href="#DejaVuSans-53" x="61.083984"/>
     <use xlink:href="#DejaVuSans-31" x="124.560547"/>
     <use xlink:href="#DejaVuSans-35" x="188.183594"/>
    </g>
   </g>
  </g>
  <g id="axes_5">
   <g id="patch_10">
    <path d="M 167.509688 287.898804 
L 283.189687 287.898804 
L 283.189687 164.512804 
L 167.509688 164.512804 
z
" style="fill: #ffffff; stroke: #7f7f7f; stroke-linejoin: miter"/>
   </g>
   <g id="matplotlib.axis_9">
    <g id="xtick_37">
     <g id="line2d_96">
      <path d="M 172.767869 287.898804 
L 172.767869 164.512804 
" clip-path="url(#pb32fb063e6)" style="fill: none; stroke: #e5e5e5; stroke-width: 0.8; stroke-linecap: square"/>
     </g>
     <g id="line2d_97">
      <path d="M 172.767869 287.898804 
" style="fill: none; stroke: #000000; stroke-width: 1.5; stroke-linecap: square"/>
      <g>
       <use xlink:href="#mcc4e1cf4f1" x="172.767869" y="287.898804" style="stroke: #333333"/>
      </g>
     </g>
     <g id="text_21">
      <!-- −4 -->
      <g style="fill: #4d4d4d" transform="translate(166.281307 299.535429) scale(0.088 -0.088)">
       <use xlink:href="#DejaVuSans-2212"/>
       <use xlink:href="#DejaVuSans-34" x="83.789062"/>
      </g>
     </g>
    </g>
    <g id="xtick_38">
     <g id="line2d_98">
      <path d="M 199.058778 287.898804 
L 199.058778 164.512804 
" clip-path="url(#pb32fb063e6)" style="fill: none; stroke: #e5e5e5; stroke-width: 0.8; stroke-linecap: square"/>
     </g>
     <g id="line2d_99">
      <path d="M 199.058778 287.898804 
" style="fill: none; stroke: #000000; stroke-width: 1.5; stroke-linecap: square"/>
      <g>
       <use xlink:href="#mcc4e1cf4f1" x="199.058778" y="287.898804" style="stroke: #333333"/>
      </g>
     </g>
     <g id="text_22">
      <!-- −2 -->
      <g style="fill: #4d4d4d" transform="translate(192.572216 299.535429) scale(0.088 -0.088)">
       <use xlink:href="#DejaVuSans-2212"/>
       <use xlink:href="#DejaVuSans-32" x="83.789062"/>
      </g>
     </g>
    </g>
    <g id="xtick_39">
     <g id="line2d_100">
      <path d="M 225.349688 287.898804 
L 225.349688 164.512804 
" clip-path="url(#pb32fb063e6)" style="fill: none; stroke: #e5e5e5; stroke-width: 0.8; stroke-linecap: square"/>
     </g>
     <g id="line2d_101">
      <path d="M 225.349688 287.898804 
" style="fill: none; stroke: #000000; stroke-width: 1.5; stroke-linecap: square"/>
      <g>
       <use xlink:href="#mcc4e1cf4f1" x="225.349688" y="287.898804" style="stroke: #333333"/>
      </g>
     </g>
     <g id="text_23">
      <!-- 0 -->
      <g style="fill: #4d4d4d" transform="translate(222.550188 299.535429) scale(0.088 -0.088)">
       <use xlink:href="#DejaVuSans-30"/>
      </g>
     </g>
    </g>
    <g id="xtick_40">
     <g id="line2d_102">
      <path d="M 251.640597 287.898804 
L 251.640597 164.512804 
" clip-path="url(#pb32fb063e6)" style="fill: none; stroke: #e5e5e5; stroke-width: 0.8; stroke-linecap: square"/>
     </g>
     <g id="line2d_103">
      <path d="M 251.640597 287.898804 
" style="fill: none; stroke: #000000; stroke-width: 1.5; stroke-linecap: square"/>
      <g>
       <use xlink:href="#mcc4e1cf4f1" x="251.640597" y="287.898804" style="stroke: #333333"/>
      </g>
     </g>
     <g id="text_24">
      <!-- 2 -->
      <g style="fill: #4d4d4d" transform="translate(248.841097 299.535429) scale(0.088 -0.088)">
       <use xlink:href="#DejaVuSans-32"/>
      </g>
     </g>
    </g>
    <g id="xtick_41">
     <g id="line2d_104">
      <path d="M 277.931506 287.898804 
L 277.931506 164.512804 
" clip-path="url(#pb32fb063e6)" style="fill: none; stroke: #e5e5e5; stroke-width: 0.8; stroke-linecap: square"/>
     </g>
     <g id="line2d_105">
      <path d="M 277.931506 287.898804 
" style="fill: none; stroke: #000000; stroke-width: 1.5; stroke-linecap: square"/>
      <g>
       <use xlink:href="#mcc4e1cf4f1" x="277.931506" y="287.898804" style="stroke: #333333"/>
      </g>
     </g>
     <g id="text_25">
      <!-- 4 -->
      <g style="fill: #4d4d4d" transform="translate(275.132006 299.535429) scale(0.088 -0.088)">
       <use xlink:href="#DejaVuSans-34"/>
      </g>
     </g>
    </g>
    <g id="xtick_42">
     <g id="line2d_106">
      <path d="M 185.913324 287.898804 
L 185.913324 164.512804 
" clip-path="url(#pb32fb063e6)" style="fill: none; stroke: #fafafa; stroke-linecap: square"/>
     </g>
    </g>
    <g id="xtick_43">
     <g id="line2d_107">
      <path d="M 212.204233 287.898804 
L 212.204233 164.512804 
" clip-path="url(#pb32fb063e6)" style="fill: none; stroke: #fafafa; stroke-linecap: square"/>
     </g>
    </g>
    <g id="xtick_44">
     <g id="line2d_108">
      <path d="M 238.495142 287.898804 
L 238.495142 164.512804 
" clip-path="url(#pb32fb063e6)" style="fill: none; stroke: #fafafa; stroke-linecap: square"/>
     </g>
    </g>
    <g id="xtick_45">
     <g id="line2d_109">
      <path d="M 264.786051 287.898804 
L 264.786051 164.512804 
" clip-path="url(#pb32fb063e6)" style="fill: none; stroke: #fafafa; stroke-linecap: square"/>
     </g>
    </g>
   </g>
   <g id="matplotlib.axis_10">
    <g id="ytick_37">
     <g id="line2d_110">
      <path d="M 167.509688 282.290349 
L 283.189687 282.290349 
" clip-path="url(#pb32fb063e6)" style="fill: none; stroke: #e5e5e5; stroke-width: 0.8; stroke-linecap: square"/>
     </g>
    </g>
    <g id="ytick_38">
     <g id="line2d_111">
      <path d="M 167.509688 254.248077 
L 283.189687 254.248077 
" clip-path="url(#pb32fb063e6)" style="fill: none; stroke: #e5e5e5; stroke-width: 0.8; stroke-linecap: square"/>
     </g>
    </g>
    <g id="ytick_39">
     <g id="line2d_112">
      <path d="M 167.509688 226.205804 
L 283.189687 226.205804 
" clip-path="url(#pb32fb063e6)" style="fill: none; stroke: #e5e5e5; stroke-width: 0.8; stroke-linecap: square"/>
     </g>
    </g>
    <g id="ytick_40">
     <g id="line2d_113">
      <path d="M 167.509688 198.163531 
L 283.189687 198.163531 
" clip-path="url(#pb32fb063e6)" style="fill: none; stroke: #e5e5e5; stroke-width: 0.8; stroke-linecap: square"/>
     </g>
    </g>
    <g id="ytick_41">
     <g id="line2d_114">
      <path d="M 167.509688 170.121258 
L 283.189687 170.121258 
" clip-path="url(#pb32fb063e6)" style="fill: none; stroke: #e5e5e5; stroke-width: 0.8; stroke-linecap: square"/>
     </g>
    </g>
    <g id="ytick_42">
     <g id="line2d_115">
      <path d="M 167.509688 268.269213 
L 283.189687 268.269213 
" clip-path="url(#pb32fb063e6)" style="fill: none; stroke: #fafafa; stroke-linecap: square"/>
     </g>
    </g>
    <g id="ytick_43">
     <g id="line2d_116">
      <path d="M 167.509688 240.22694 
L 283.189687 240.22694 
" clip-path="url(#pb32fb063e6)" style="fill: none; stroke: #fafafa; stroke-linecap: square"/>
     </g>
    </g>
    <g id="ytick_44">
     <g id="line2d_117">
      <path d="M 167.509688 212.184668 
L 283.189687 212.184668 
" clip-path="url(#pb32fb063e6)" style="fill: none; stroke: #fafafa; stroke-linecap: square"/>
     </g>
    </g>
    <g id="ytick_45">
     <g id="line2d_118">
      <path d="M 167.509688 184.142395 
L 283.189687 184.142395 
" clip-path="url(#pb32fb063e6)" style="fill: none; stroke: #fafafa; stroke-linecap: square"/>
     </g>
    </g>
   </g>
   <g id="line2d_119">
    <path d="M 172.767869 282.286797 
L 185.256051 282.162005 
L 189.85696 281.901462 
L 193.011869 281.511127 
L 195.509506 280.988763 
L 197.612778 280.335334 
L 199.584597 279.486358 
L 201.293506 278.518667 
L 203.002415 277.291482 
L 204.579869 275.890718 
L 206.157324 274.197906 
L 207.734778 272.181371 
L 209.312233 269.813508 
L 211.021142 266.827103 
L 212.730051 263.386761 
L 214.570415 259.171396 
L 216.542233 254.087799 
L 218.77696 247.681974 
L 221.406051 239.431821 
L 225.349687 226.205804 
L 230.213506 210.018822 
L 232.842597 202.015289 
L 235.077324 195.88089 
L 237.049142 191.066923 
L 238.889506 187.115437 
L 240.729869 183.693773 
L 242.438778 180.979281 
L 244.147688 178.686323 
L 245.856597 176.781852 
L 247.565506 175.22652 
L 249.274415 173.977576 
L 250.983324 172.991448 
L 252.823688 172.174951 
L 254.92696 171.492466 
L 257.293142 170.968069 
L 260.185142 170.572693 
L 263.865869 170.311364 
L 269.38696 170.166581 
L 277.931506 170.124811 
L 277.931506 170.124811 
" clip-path="url(#pb32fb063e6)" style="fill: none; stroke-dasharray: 3.27904,1.417963; stroke-dashoffset: 0; stroke: #000000; stroke-width: 0.886227"/>
   </g>
   <g id="line2d_120">
    <path d="M 177.237324 282.288944 
L 188.41096 282.012499 
L 191.960233 281.668639 
L 194.720778 281.17953 
L 196.955506 280.564482 
L 198.927324 279.798446 
L 200.767688 278.842058 
L 202.476597 277.699325 
L 204.054051 276.388449 
L 205.631506 274.796646 
L 207.20896 272.891331 
L 208.786415 270.643272 
L 210.495324 267.79384 
L 212.204233 264.494162 
L 214.044597 260.429154 
L 216.016415 255.498538 
L 218.119688 249.631197 
L 220.617324 241.974086 
L 223.903688 231.118249 
L 230.739324 208.360038 
L 233.368415 200.511342 
L 235.603142 194.539909 
L 237.57496 189.883882 
L 239.415324 186.084042 
L 241.124233 183.028556 
L 242.833142 180.413782 
L 244.542051 178.213698 
L 246.25096 176.393418 
L 247.959869 174.912673 
L 249.668778 173.72828 
L 251.509142 172.734237 
L 253.48096 171.935818 
L 255.584233 171.32416 
L 258.081869 170.837682 
L 261.105324 170.487378 
L 265.180415 170.258441 
L 271.884597 170.140664 
L 273.462051 170.122717 
L 273.462051 170.122717 
" clip-path="url(#pb32fb063e6)" style="fill: none; stroke: #ffa500; stroke-opacity: 0.8; stroke-width: 0.886227"/>
   </g>
   <g id="patch_11">
    <path d="M 167.509688 164.512804 
L 283.189687 164.512804 
L 283.189687 149.926 
L 167.509688 149.926 
z
" style="fill: #cccccc; stroke: #7f7f7f; stroke-linejoin: miter"/>
   </g>
   <g id="text_26">
    <!-- TS20 -->
    <g style="fill: #1a1a1a" transform="translate(214.269938 159.647652) scale(0.088 -0.088)">
     <use xlink:href="#DejaVuSans-54"/>
     <use xlink:href="#DejaVuSans-53" x="61.083984"/>
     <use xlink:href="#DejaVuSans-32" x="124.560547"/>
     <use xlink:href="#DejaVuSans-30" x="188.183594"/>
    </g>
   </g>
  </g>
  <g id="axes_6">
   <g id="patch_12">
    <path d="M 288.229688 287.898804 
L 403.909687 287.898804 
L 403.909687 164.512804 
L 288.229688 164.512804 
z
" style="fill: #ffffff; stroke: #7f7f7f; stroke-linejoin: miter"/>
   </g>
   <g id="matplotlib.axis_11">
    <g id="xtick_46">
     <g id="line2d_121">
      <path d="M 293.487869 287.898804 
L 293.487869 164.512804 
" clip-path="url(#p4de6771b59)" style="fill: none; stroke: #e5e5e5; stroke-width: 0.8; stroke-linecap: square"/>
     </g>
     <g id="line2d_122">
      <path d="M 293.487869 287.898804 
" style="fill: none; stroke: #000000; stroke-width: 1.5; stroke-linecap: square"/>
      <g>
       <use xlink:href="#mcc4e1cf4f1" x="293.487869" y="287.898804" style="stroke: #333333"/>
      </g>
     </g>
     <g id="text_27">
      <!-- −4 -->
      <g style="fill: #4d4d4d" transform="translate(287.001307 299.535429) scale(0.088 -0.088)">
       <use xlink:href="#DejaVuSans-2212"/>
       <use xlink:href="#DejaVuSans-34" x="83.789062"/>
      </g>
     </g>
    </g>
    <g id="xtick_47">
     <g id="line2d_123">
      <path d="M 319.778778 287.898804 
L 319.778778 164.512804 
" clip-path="url(#p4de6771b59)" style="fill: none; stroke: #e5e5e5; stroke-width: 0.8; stroke-linecap: square"/>
     </g>
     <g id="line2d_124">
      <path d="M 319.778778 287.898804 
" style="fill: none; stroke: #000000; stroke-width: 1.5; stroke-linecap: square"/>
      <g>
       <use xlink:href="#mcc4e1cf4f1" x="319.778778" y="287.898804" style="stroke: #333333"/>
      </g>
     </g>
     <g id="text_28">
      <!-- −2 -->
      <g style="fill: #4d4d4d" transform="translate(313.292216 299.535429) scale(0.088 -0.088)">
       <use xlink:href="#DejaVuSans-2212"/>
       <use xlink:href="#DejaVuSans-32" x="83.789062"/>
      </g>
     </g>
    </g>
    <g id="xtick_48">
     <g id="line2d_125">
      <path d="M 346.069687 287.898804 
L 346.069687 164.512804 
" clip-path="url(#p4de6771b59)" style="fill: none; stroke: #e5e5e5; stroke-width: 0.8; stroke-linecap: square"/>
     </g>
     <g id="line2d_126">
      <path d="M 346.069687 287.898804 
" style="fill: none; stroke: #000000; stroke-width: 1.5; stroke-linecap: square"/>
      <g>
       <use xlink:href="#mcc4e1cf4f1" x="346.069687" y="287.898804" style="stroke: #333333"/>
      </g>
     </g>
     <g id="text_29">
      <!-- 0 -->
      <g style="fill: #4d4d4d" transform="translate(343.270187 299.535429) scale(0.088 -0.088)">
       <use xlink:href="#DejaVuSans-30"/>
      </g>
     </g>
    </g>
    <g id="xtick_49">
     <g id="line2d_127">
      <path d="M 372.360597 287.898804 
L 372.360597 164.512804 
" clip-path="url(#p4de6771b59)" style="fill: none; stroke: #e5e5e5; stroke-width: 0.8; stroke-linecap: square"/>
     </g>
     <g id="line2d_128">
      <path d="M 372.360597 287.898804 
" style="fill: none; stroke: #000000; stroke-width: 1.5; stroke-linecap: square"/>
      <g>
       <use xlink:href="#mcc4e1cf4f1" x="372.360597" y="287.898804" style="stroke: #333333"/>
      </g>
     </g>
     <g id="text_30">
      <!-- 2 -->
      <g style="fill: #4d4d4d" transform="translate(369.561097 299.535429) scale(0.088 -0.088)">
       <use xlink:href="#DejaVuSans-32"/>
      </g>
     </g>
    </g>
    <g id="xtick_50">
     <g id="line2d_129">
      <path d="M 398.651506 287.898804 
L 398.651506 164.512804 
" clip-path="url(#p4de6771b59)" style="fill: none; stroke: #e5e5e5; stroke-width: 0.8; stroke-linecap: square"/>
     </g>
     <g id="line2d_130">
      <path d="M 398.651506 287.898804 
" style="fill: none; stroke: #000000; stroke-width: 1.5; stroke-linecap: square"/>
      <g>
       <use xlink:href="#mcc4e1cf4f1" x="398.651506" y="287.898804" style="stroke: #333333"/>
      </g>
     </g>
     <g id="text_31">
      <!-- 4 -->
      <g style="fill: #4d4d4d" transform="translate(395.852006 299.535429) scale(0.088 -0.088)">
       <use xlink:href="#DejaVuSans-34"/>
      </g>
     </g>
    </g>
    <g id="xtick_51">
     <g id="line2d_131">
      <path d="M 306.633324 287.898804 
L 306.633324 164.512804 
" clip-path="url(#p4de6771b59)" style="fill: none; stroke: #fafafa; stroke-linecap: square"/>
     </g>
    </g>
    <g id="xtick_52">
     <g id="line2d_132">
      <path d="M 332.924233 287.898804 
L 332.924233 164.512804 
" clip-path="url(#p4de6771b59)" style="fill: none; stroke: #fafafa; stroke-linecap: square"/>
     </g>
    </g>
    <g id="xtick_53">
     <g id="line2d_133">
      <path d="M 359.215142 287.898804 
L 359.215142 164.512804 
" clip-path="url(#p4de6771b59)" style="fill: none; stroke: #fafafa; stroke-linecap: square"/>
     </g>
    </g>
    <g id="xtick_54">
     <g id="line2d_134">
      <path d="M 385.506051 287.898804 
L 385.506051 164.512804 
" clip-path="url(#p4de6771b59)" style="fill: none; stroke: #fafafa; stroke-linecap: square"/>
     </g>
    </g>
    <g id="text_32">
     <!-- x -->
     <g transform="translate(216.334375 314.123835) scale(0.11 -0.11)">
      <defs>
       <path id="DejaVuSans-78" d="M 3513 3500 
L 2247 1797 
L 3578 0 
L 2900 0 
L 1881 1375 
L 863 0 
L 184 0 
L 1544 1831 
L 300 3500 
L 978 3500 
L 1906 2253 
L 2834 3500 
L 3513 3500 
z
" transform="scale(0.015625)"/>
      </defs>
      <use xlink:href="#DejaVuSans-78"/>
     </g>
    </g>
   </g>
   <g id="matplotlib.axis_12">
    <g id="ytick_46">
     <g id="line2d_135">
      <path d="M 288.229688 282.290349 
L 403.909687 282.290349 
" clip-path="url(#p4de6771b59)" style="fill: none; stroke: #e5e5e5; stroke-width: 0.8; stroke-linecap: square"/>
     </g>
    </g>
    <g id="ytick_47">
     <g id="line2d_136">
      <path d="M 288.229688 254.248077 
L 403.909687 254.248077 
" clip-path="url(#p4de6771b59)" style="fill: none; stroke: #e5e5e5; stroke-width: 0.8; stroke-linecap: square"/>
     </g>
    </g>
    <g id="ytick_48">
     <g id="line2d_137">
      <path d="M 288.229688 226.205804 
L 403.909687 226.205804 
" clip-path="url(#p4de6771b59)" style="fill: none; stroke: #e5e5e5; stroke-width: 0.8; stroke-linecap: square"/>
     </g>
    </g>
    <g id="ytick_49">
     <g id="line2d_138">
      <path d="M 288.229688 198.163531 
L 403.909687 198.163531 
" clip-path="url(#p4de6771b59)" style="fill: none; stroke: #e5e5e5; stroke-width: 0.8; stroke-linecap: square"/>
     </g>
    </g>
    <g id="ytick_50">
     <g id="line2d_139">
      <path d="M 288.229688 170.121258 
L 403.909687 170.121258 
" clip-path="url(#p4de6771b59)" style="fill: none; stroke: #e5e5e5; stroke-width: 0.8; stroke-linecap: square"/>
     </g>
    </g>
    <g id="ytick_51">
     <g id="line2d_140">
      <path d="M 288.229688 268.269213 
L 403.909687 268.269213 
" clip-path="url(#p4de6771b59)" style="fill: none; stroke: #fafafa; stroke-linecap: square"/>
     </g>
    </g>
    <g id="ytick_52">
     <g id="line2d_141">
      <path d="M 288.229688 240.22694 
L 403.909687 240.22694 
" clip-path="url(#p4de6771b59)" style="fill: none; stroke: #fafafa; stroke-linecap: square"/>
     </g>
    </g>
    <g id="ytick_53">
     <g id="line2d_142">
      <path d="M 288.229688 212.184668 
L 403.909687 212.184668 
" clip-path="url(#p4de6771b59)" style="fill: none; stroke: #fafafa; stroke-linecap: square"/>
     </g>
    </g>
    <g id="ytick_54">
     <g id="line2d_143">
      <path d="M 288.229688 184.142395 
L 403.909687 184.142395 
" clip-path="url(#p4de6771b59)" style="fill: none; stroke: #fafafa; stroke-linecap: square"/>
     </g>
    </g>
   </g>
   <g id="line2d_144">
    <path d="M 293.487869 282.286797 
L 305.976051 282.162005 
L 310.57696 281.901462 
L 313.731869 281.511127 
L 316.229506 280.988763 
L 318.332778 280.335334 
L 320.304597 279.486358 
L 322.013506 278.518667 
L 323.722415 277.291482 
L 325.299869 275.890718 
L 326.877324 274.197906 
L 328.454778 272.181371 
L 330.032233 269.813508 
L 331.741142 266.827103 
L 333.450051 263.386761 
L 335.290415 259.171396 
L 337.262233 254.087799 
L 339.49696 247.681974 
L 342.126051 239.431821 
L 346.069687 226.205804 
L 350.933506 210.018822 
L 353.562597 202.015289 
L 355.797324 195.88089 
L 357.769142 191.066923 
L 359.609506 187.115437 
L 361.449869 183.693773 
L 363.158778 180.979281 
L 364.867687 178.686323 
L 366.576597 176.781852 
L 368.285506 175.22652 
L 369.994415 173.977576 
L 371.703324 172.991448 
L 373.543687 172.174951 
L 375.64696 171.492466 
L 378.013142 170.968069 
L 380.905142 170.572693 
L 384.585869 170.311364 
L 390.10696 170.166581 
L 398.651506 170.124811 
L 398.651506 170.124811 
" clip-path="url(#p4de6771b59)" style="fill: none; stroke-dasharray: 3.27904,1.417963; stroke-dashoffset: 0; stroke: #000000; stroke-width: 0.886227"/>
   </g>
   <g id="line2d_145">
    <path d="M 293.487869 282.2868 
L 305.976051 282.162004 
L 310.57696 281.901462 
L 313.731869 281.511128 
L 316.229506 280.988762 
L 318.332778 280.335332 
L 320.304597 279.486358 
L 322.013506 278.518664 
L 323.722415 277.291478 
L 325.299869 275.890721 
L 326.877324 274.19791 
L 328.454778 272.181368 
L 330.032233 269.813557 
L 331.741142 266.827055 
L 333.450051 263.386717 
L 335.290415 259.171402 
L 337.262233 254.087787 
L 339.49696 247.681922 
L 342.126051 239.431774 
L 346.069687 226.205804 
L 350.933506 210.018795 
L 353.562597 202.015306 
L 355.797324 195.88089 
L 357.769142 191.066929 
L 359.609506 187.115437 
L 361.449869 183.693718 
L 363.158778 180.979226 
L 364.867687 178.686378 
L 366.576597 176.781859 
L 368.285506 175.226522 
L 369.994415 173.977632 
L 371.703324 172.991441 
L 373.543687 172.174962 
L 375.64696 171.492413 
L 378.013142 170.968023 
L 380.905142 170.572739 
L 384.585869 170.311385 
L 390.10696 170.166575 
L 398.651506 170.124848 
L 398.651506 170.124848 
" clip-path="url(#p4de6771b59)" style="fill: none; stroke: #ffa500; stroke-opacity: 0.8; stroke-width: 0.886227"/>
   </g>
   <g id="patch_13">
    <path d="M 288.229688 164.512804 
L 403.909687 164.512804 
L 403.909687 149.926 
L 288.229688 149.926 
z
" style="fill: #cccccc; stroke: #7f7f7f; stroke-linejoin: miter"/>
   </g>
   <g id="text_33">
    <!-- TS30 -->
    <g style="fill: #1a1a1a" transform="translate(334.989937 159.647652) scale(0.088 -0.088)">
     <defs>
      <path id="DejaVuSans-33" d="M 2597 2516 
Q 3050 2419 3304 2112 
Q 3559 1806 3559 1356 
Q 3559 666 3084 287 
Q 2609 -91 1734 -91 
Q 1441 -91 1130 -33 
Q 819 25 488 141 
L 488 750 
Q 750 597 1062 519 
Q 1375 441 1716 441 
Q 2309 441 2620 675 
Q 2931 909 2931 1356 
Q 2931 1769 2642 2001 
Q 2353 2234 1838 2234 
L 1294 2234 
L 1294 2753 
L 1863 2753 
Q 2328 2753 2575 2939 
Q 2822 3125 2822 3475 
Q 2822 3834 2567 4026 
Q 2313 4219 1838 4219 
Q 1578 4219 1281 4162 
Q 984 4106 628 3988 
L 628 4550 
Q 988 4650 1302 4700 
Q 1616 4750 1894 4750 
Q 2613 4750 3031 4423 
Q 3450 4097 3450 3541 
Q 3450 3153 3228 2886 
Q 3006 2619 2597 2516 
z
" transform="scale(0.015625)"/>
     </defs>
     <use xlink:href="#DejaVuSans-54"/>
     <use xlink:href="#DejaVuSans-53" x="61.083984"/>
     <use xlink:href="#DejaVuSans-33" x="124.560547"/>
     <use xlink:href="#DejaVuSans-30" x="188.183594"/>
    </g>
   </g>
  </g>
 </g>
 <defs>
  <clipPath id="p2b8bad131c">
   <rect x="46.789688" y="21.786804" width="115.68" height="123.386"/>
  </clipPath>
  <clipPath id="p828c56e3ac">
   <rect x="167.509688" y="21.786804" width="115.68" height="123.386"/>
  </clipPath>
  <clipPath id="p3d2e91994e">
   <rect x="288.229688" y="21.786804" width="115.68" height="123.386"/>
  </clipPath>
  <clipPath id="pea0c61a66e">
   <rect x="46.789688" y="164.512804" width="115.68" height="123.386"/>
  </clipPath>
  <clipPath id="pb32fb063e6">
   <rect x="167.509688" y="164.512804" width="115.68" height="123.386"/>
  </clipPath>
  <clipPath id="p4de6771b59">
   <rect x="288.229688" y="164.512804" width="115.68" height="123.386"/>
  </clipPath>
 </defs>
</svg>
