<?xml version="1.0" encoding="utf-8" standalone="no"?>
<!DOCTYPE svg PUBLIC "-//W3C//DTD SVG 1.1//EN"
  "http://www.w3.org/Graphics/SVG/1.1/DTD/svg11.dtd">
<svg xmlns:xlink="http://www.w3.org/1999/xlink" width="864pt" height="432pt" viewBox="0 0 864 432" xmlns="http://www.w3.org/2000/svg" version="1.1">
 <metadata>
  <rdf:RDF xmlns:dc="http://purl.org/dc/elements/1.1/" xmlns:cc="http://creativecommons.org/ns#" xmlns:rdf="http://www.w3.org/1999/02/22-rdf-syntax-ns#">
   <cc:Work>
    <dc:type rdf:resource="http://purl.org/dc/dcmitype/StillImage"/>
    <dc:date>2024-03-16T01:06:55.405269</dc:date>
    <dc:format>image/svg+xml</dc:format>
    <dc:creator>
     <cc:Agent>
      <dc:title>Matplotlib v3.8.3, https://matplotlib.org/</dc:title>
     </cc:Agent>
    </dc:creator>
   </cc:Work>
  </rdf:RDF>
 </metadata>
 <defs>
  <style type="text/css">*{stroke-linejoin: round; stroke-linecap: butt}</style>
 </defs>
 <g id="figure_1">
  <g id="patch_1">
   <path d="M 0 432 
L 864 432 
L 864 0 
L 0 0 
z
" style="fill: #ffffff; stroke: #ffffff; stroke-linejoin: miter"/>
  </g>
  <g id="axes_1">
   <g id="patch_2">
    <path d="M 46.670687 390.807313 
L 791.923 390.807313 
L 791.923 8.64 
L 46.670687 8.64 
z
" style="fill: #ffffff"/>
   </g>
   <g id="matplotlib.axis_1">
    <g id="xtick_1">
     <g id="line2d_1">
      <path d="M 80.545793 390.807313 
L 80.545793 8.64 
" clip-path="url(#p12ef326843)" style="fill: none; stroke: #e5e5e5; stroke-linecap: square"/>
     </g>
     <g id="line2d_2">
      <path d="M 80.545793 390.807313 
" style="fill: none; stroke: #333333; stroke-width: 1.5; stroke-linecap: square"/>
      <defs>
       <path id="m55fd648380" d="M 0 0 
L 0 2.75 
" style="stroke: #333333"/>
      </defs>
      <g>
       <use xlink:href="#m55fd648380" x="80.545793" y="390.807313" style="fill: #333333; stroke: #333333"/>
      </g>
     </g>
     <g id="text_1">
      <!-- -1.0 -->
      <g style="fill: #4d4d4d" transform="translate(71.96098 402.243938) scale(0.088 -0.088)">
       <defs>
        <path id="DejaVuSans-2d" d="M 313 2009 
L 1997 2009 
L 1997 1497 
L 313 1497 
L 313 2009 
z
" transform="scale(0.015625)"/>
        <path id="DejaVuSans-31" d="M 794 531 
L 1825 531 
L 1825 4091 
L 703 3866 
L 703 4441 
L 1819 4666 
L 2450 4666 
L 2450 531 
L 3481 531 
L 3481 0 
L 794 0 
L 794 531 
z
" transform="scale(0.015625)"/>
        <path id="DejaVuSans-2e" d="M 684 794 
L 1344 794 
L 1344 0 
L 684 0 
L 684 794 
z
" transform="scale(0.015625)"/>
        <path id="DejaVuSans-30" d="M 2034 4250 
Q 1547 4250 1301 3770 
Q 1056 3291 1056 2328 
Q 1056 1369 1301 889 
Q 1547 409 2034 409 
Q 2525 409 2770 889 
Q 3016 1369 3016 2328 
Q 3016 3291 2770 3770 
Q 2525 4250 2034 4250 
z
M 2034 4750 
Q 2819 4750 3233 4129 
Q 3647 3509 3647 2328 
Q 3647 1150 3233 529 
Q 2819 -91 2034 -91 
Q 1250 -91 836 529 
Q 422 1150 422 2328 
Q 422 3509 836 4129 
Q 1250 4750 2034 4750 
z
" transform="scale(0.015625)"/>
       </defs>
       <use xlink:href="#DejaVuSans-2d"/>
       <use xlink:href="#DejaVuSans-31" x="36.083984"/>
       <use xlink:href="#DejaVuSans-2e" x="99.707031"/>
       <use xlink:href="#DejaVuSans-30" x="131.494141"/>
      </g>
     </g>
    </g>
    <g id="xtick_2">
     <g id="line2d_3">
      <path d="M 249.921318 390.807313 
L 249.921318 8.64 
" clip-path="url(#p12ef326843)" style="fill: none; stroke: #e5e5e5; stroke-linecap: square"/>
     </g>
     <g id="line2d_4">
      <path d="M 249.921318 390.807313 
" style="fill: none; stroke: #333333; stroke-width: 1.5; stroke-linecap: square"/>
      <g>
       <use xlink:href="#m55fd648380" x="249.921318" y="390.807313" style="fill: #333333; stroke: #333333"/>
      </g>
     </g>
     <g id="text_2">
      <!-- -0.5 -->
      <g style="fill: #4d4d4d" transform="translate(241.336506 402.243938) scale(0.088 -0.088)">
       <defs>
        <path id="DejaVuSans-35" d="M 691 4666 
L 3169 4666 
L 3169 4134 
L 1269 4134 
L 1269 2991 
Q 1406 3038 1543 3061 
Q 1681 3084 1819 3084 
Q 2600 3084 3056 2656 
Q 3513 2228 3513 1497 
Q 3513 744 3044 326 
Q 2575 -91 1722 -91 
Q 1428 -91 1123 -41 
Q 819 9 494 109 
L 494 744 
Q 775 591 1075 516 
Q 1375 441 1709 441 
Q 2250 441 2565 725 
Q 2881 1009 2881 1497 
Q 2881 1984 2565 2268 
Q 2250 2553 1709 2553 
Q 1456 2553 1204 2497 
Q 953 2441 691 2322 
L 691 4666 
z
" transform="scale(0.015625)"/>
       </defs>
       <use xlink:href="#DejaVuSans-2d"/>
       <use xlink:href="#DejaVuSans-30" x="36.083984"/>
       <use xlink:href="#DejaVuSans-2e" x="99.707031"/>
       <use xlink:href="#DejaVuSans-35" x="131.494141"/>
      </g>
     </g>
    </g>
    <g id="xtick_3">
     <g id="line2d_5">
      <path d="M 419.296844 390.807313 
L 419.296844 8.64 
" clip-path="url(#p12ef326843)" style="fill: none; stroke: #e5e5e5; stroke-linecap: square"/>
     </g>
     <g id="line2d_6">
      <path d="M 419.296844 390.807313 
" style="fill: none; stroke: #333333; stroke-width: 1.5; stroke-linecap: square"/>
      <g>
       <use xlink:href="#m55fd648380" x="419.296844" y="390.807313" style="fill: #333333; stroke: #333333"/>
      </g>
     </g>
     <g id="text_3">
      <!-- 0.0 -->
      <g style="fill: #4d4d4d" transform="translate(412.299469 402.243938) scale(0.088 -0.088)">
       <use xlink:href="#DejaVuSans-30"/>
       <use xlink:href="#DejaVuSans-2e" x="63.623047"/>
       <use xlink:href="#DejaVuSans-30" x="95.410156"/>
      </g>
     </g>
    </g>
    <g id="xtick_4">
     <g id="line2d_7">
      <path d="M 588.672369 390.807313 
L 588.672369 8.64 
" clip-path="url(#p12ef326843)" style="fill: none; stroke: #e5e5e5; stroke-linecap: square"/>
     </g>
     <g id="line2d_8">
      <path d="M 588.672369 390.807313 
" style="fill: none; stroke: #333333; stroke-width: 1.5; stroke-linecap: square"/>
      <g>
       <use xlink:href="#m55fd648380" x="588.672369" y="390.807313" style="fill: #333333; stroke: #333333"/>
      </g>
     </g>
     <g id="text_4">
      <!-- 0.5 -->
      <g style="fill: #4d4d4d" transform="translate(581.674994 402.243938) scale(0.088 -0.088)">
       <use xlink:href="#DejaVuSans-30"/>
       <use xlink:href="#DejaVuSans-2e" x="63.623047"/>
       <use xlink:href="#DejaVuSans-35" x="95.410156"/>
      </g>
     </g>
    </g>
    <g id="xtick_5">
     <g id="line2d_9">
      <path d="M 758.047895 390.807313 
L 758.047895 8.64 
" clip-path="url(#p12ef326843)" style="fill: none; stroke: #e5e5e5; stroke-linecap: square"/>
     </g>
     <g id="line2d_10">
      <path d="M 758.047895 390.807313 
" style="fill: none; stroke: #333333; stroke-width: 1.5; stroke-linecap: square"/>
      <g>
       <use xlink:href="#m55fd648380" x="758.047895" y="390.807313" style="fill: #333333; stroke: #333333"/>
      </g>
     </g>
     <g id="text_5">
      <!-- 1.0 -->
      <g style="fill: #4d4d4d" transform="translate(751.05052 402.243938) scale(0.088 -0.088)">
       <use xlink:href="#DejaVuSans-31"/>
       <use xlink:href="#DejaVuSans-2e" x="63.623047"/>
       <use xlink:href="#DejaVuSans-30" x="95.410156"/>
      </g>
     </g>
    </g>
    <g id="xtick_6">
     <g id="line2d_11">
      <path d="M 165.233555 390.807313 
L 165.233555 8.64 
" clip-path="url(#p12ef326843)" style="fill: none; stroke: #fafafa; stroke-width: 0.5; stroke-linecap: square"/>
     </g>
    </g>
    <g id="xtick_7">
     <g id="line2d_12">
      <path d="M 334.609081 390.807313 
L 334.609081 8.64 
" clip-path="url(#p12ef326843)" style="fill: none; stroke: #fafafa; stroke-width: 0.5; stroke-linecap: square"/>
     </g>
    </g>
    <g id="xtick_8">
     <g id="line2d_13">
      <path d="M 503.984607 390.807313 
L 503.984607 8.64 
" clip-path="url(#p12ef326843)" style="fill: none; stroke: #fafafa; stroke-width: 0.5; stroke-linecap: square"/>
     </g>
    </g>
    <g id="xtick_9">
     <g id="line2d_14">
      <path d="M 673.360132 390.807313 
L 673.360132 8.64 
" clip-path="url(#p12ef326843)" style="fill: none; stroke: #fafafa; stroke-width: 0.5; stroke-linecap: square"/>
     </g>
    </g>
   </g>
   <g id="matplotlib.axis_2">
    <g id="ytick_1">
     <g id="line2d_15">
      <path d="M 46.670687 333.348591 
L 791.923 333.348591 
" clip-path="url(#p12ef326843)" style="fill: none; stroke: #e5e5e5; stroke-linecap: square"/>
     </g>
     <g id="line2d_16">
      <path d="M 46.670687 333.348591 
" style="fill: none; stroke: #333333; stroke-width: 1.5; stroke-linecap: square"/>
      <defs>
       <path id="m8af778f892" d="M 0 0 
L -2.75 0 
" style="stroke: #333333"/>
      </defs>
      <g>
       <use xlink:href="#m8af778f892" x="46.670687" y="333.348591" style="fill: #333333; stroke: #333333"/>
      </g>
     </g>
     <g id="text_6">
      <!-- 0.0 -->
      <g style="fill: #4d4d4d" transform="translate(27.925937 336.691903) scale(0.088 -0.088)">
       <use xlink:href="#DejaVuSans-30"/>
       <use xlink:href="#DejaVuSans-2e" x="63.623047"/>
       <use xlink:href="#DejaVuSans-30" x="95.410156"/>
      </g>
     </g>
    </g>
    <g id="ytick_2">
     <g id="line2d_17">
      <path d="M 46.670687 226.448643 
L 791.923 226.448643 
" clip-path="url(#p12ef326843)" style="fill: none; stroke: #e5e5e5; stroke-linecap: square"/>
     </g>
     <g id="line2d_18">
      <path d="M 46.670687 226.448643 
" style="fill: none; stroke: #333333; stroke-width: 1.5; stroke-linecap: square"/>
      <g>
       <use xlink:href="#m8af778f892" x="46.670687" y="226.448643" style="fill: #333333; stroke: #333333"/>
      </g>
     </g>
     <g id="text_7">
      <!-- 0.4 -->
      <g style="fill: #4d4d4d" transform="translate(27.925937 229.791956) scale(0.088 -0.088)">
       <defs>
        <path id="DejaVuSans-34" d="M 2419 4116 
L 825 1625 
L 2419 1625 
L 2419 4116 
z
M 2253 4666 
L 3047 4666 
L 3047 1625 
L 3713 1625 
L 3713 1100 
L 3047 1100 
L 3047 0 
L 2419 0 
L 2419 1100 
L 313 1100 
L 313 1709 
L 2253 4666 
z
" transform="scale(0.015625)"/>
       </defs>
       <use xlink:href="#DejaVuSans-30"/>
       <use xlink:href="#DejaVuSans-2e" x="63.623047"/>
       <use xlink:href="#DejaVuSans-34" x="95.410156"/>
      </g>
     </g>
    </g>
    <g id="ytick_3">
     <g id="line2d_19">
      <path d="M 46.670687 119.548696 
L 791.923 119.548696 
" clip-path="url(#p12ef326843)" style="fill: none; stroke: #e5e5e5; stroke-linecap: square"/>
     </g>
     <g id="line2d_20">
      <path d="M 46.670687 119.548696 
" style="fill: none; stroke: #333333; stroke-width: 1.5; stroke-linecap: square"/>
      <g>
       <use xlink:href="#m8af778f892" x="46.670687" y="119.548696" style="fill: #333333; stroke: #333333"/>
      </g>
     </g>
     <g id="text_8">
      <!-- 0.8 -->
      <g style="fill: #4d4d4d" transform="translate(27.925937 122.892008) scale(0.088 -0.088)">
       <defs>
        <path id="DejaVuSans-38" d="M 2034 2216 
Q 1584 2216 1326 1975 
Q 1069 1734 1069 1313 
Q 1069 891 1326 650 
Q 1584 409 2034 409 
Q 2484 409 2743 651 
Q 3003 894 3003 1313 
Q 3003 1734 2745 1975 
Q 2488 2216 2034 2216 
z
M 1403 2484 
Q 997 2584 770 2862 
Q 544 3141 544 3541 
Q 544 4100 942 4425 
Q 1341 4750 2034 4750 
Q 2731 4750 3128 4425 
Q 3525 4100 3525 3541 
Q 3525 3141 3298 2862 
Q 3072 2584 2669 2484 
Q 3125 2378 3379 2068 
Q 3634 1759 3634 1313 
Q 3634 634 3220 271 
Q 2806 -91 2034 -91 
Q 1263 -91 848 271 
Q 434 634 434 1313 
Q 434 1759 690 2068 
Q 947 2378 1403 2484 
z
M 1172 3481 
Q 1172 3119 1398 2916 
Q 1625 2713 2034 2713 
Q 2441 2713 2670 2916 
Q 2900 3119 2900 3481 
Q 2900 3844 2670 4047 
Q 2441 4250 2034 4250 
Q 1625 4250 1398 4047 
Q 1172 3844 1172 3481 
z
" transform="scale(0.015625)"/>
       </defs>
       <use xlink:href="#DejaVuSans-30"/>
       <use xlink:href="#DejaVuSans-2e" x="63.623047"/>
       <use xlink:href="#DejaVuSans-38" x="95.410156"/>
      </g>
     </g>
    </g>
    <g id="ytick_4">
     <g id="line2d_21">
      <path d="M 46.670687 12.648748 
L 791.923 12.648748 
" clip-path="url(#p12ef326843)" style="fill: none; stroke: #e5e5e5; stroke-linecap: square"/>
     </g>
     <g id="line2d_22">
      <path d="M 46.670687 12.648748 
" style="fill: none; stroke: #333333; stroke-width: 1.5; stroke-linecap: square"/>
      <g>
       <use xlink:href="#m8af778f892" x="46.670687" y="12.648748" style="fill: #333333; stroke: #333333"/>
      </g>
     </g>
     <g id="text_9">
      <!-- 1.2 -->
      <g style="fill: #4d4d4d" transform="translate(27.925937 15.992061) scale(0.088 -0.088)">
       <defs>
        <path id="DejaVuSans-32" d="M 1228 531 
L 3431 531 
L 3431 0 
L 469 0 
L 469 531 
Q 828 903 1448 1529 
Q 2069 2156 2228 2338 
Q 2531 2678 2651 2914 
Q 2772 3150 2772 3378 
Q 2772 3750 2511 3984 
Q 2250 4219 1831 4219 
Q 1534 4219 1204 4116 
Q 875 4013 500 3803 
L 500 4441 
Q 881 4594 1212 4672 
Q 1544 4750 1819 4750 
Q 2544 4750 2975 4387 
Q 3406 4025 3406 3419 
Q 3406 3131 3298 2873 
Q 3191 2616 2906 2266 
Q 2828 2175 2409 1742 
Q 1991 1309 1228 531 
z
" transform="scale(0.015625)"/>
       </defs>
       <use xlink:href="#DejaVuSans-31"/>
       <use xlink:href="#DejaVuSans-2e" x="63.623047"/>
       <use xlink:href="#DejaVuSans-32" x="95.410156"/>
      </g>
     </g>
    </g>
    <g id="ytick_5">
     <g id="line2d_23">
      <path d="M 46.670687 386.798564 
L 791.923 386.798564 
" clip-path="url(#p12ef326843)" style="fill: none; stroke: #fafafa; stroke-width: 0.5; stroke-linecap: square"/>
     </g>
    </g>
    <g id="ytick_6">
     <g id="line2d_24">
      <path d="M 46.670687 279.898617 
L 791.923 279.898617 
" clip-path="url(#p12ef326843)" style="fill: none; stroke: #fafafa; stroke-width: 0.5; stroke-linecap: square"/>
     </g>
    </g>
    <g id="ytick_7">
     <g id="line2d_25">
      <path d="M 46.670687 172.998669 
L 791.923 172.998669 
" clip-path="url(#p12ef326843)" style="fill: none; stroke: #fafafa; stroke-width: 0.5; stroke-linecap: square"/>
     </g>
    </g>
    <g id="ytick_8">
     <g id="line2d_26">
      <path d="M 46.670687 66.098722 
L 791.923 66.098722 
" clip-path="url(#p12ef326843)" style="fill: none; stroke: #fafafa; stroke-width: 0.5; stroke-linecap: square"/>
     </g>
    </g>
   </g>
   <g id="line2d_27">
    <path d="M 224.368001 373.436071 
L 225.272543 373.436071 
L 227.081628 368.091074 
L 227.98617 368.091074 
L 228.890712 365.418575 
L 229.795254 365.418575 
L 230.699797 362.746076 
L 231.604339 362.746076 
L 232.508881 360.073578 
L 233.413423 360.073578 
L 234.317965 357.401079 
L 235.222508 357.401079 
L 236.12705 354.72858 
L 237.031592 354.72858 
L 237.936134 352.056082 
L 238.840676 352.056082 
L 240.649761 346.711084 
L 241.554303 346.711084 
L 242.458845 344.038585 
L 243.363387 344.038585 
L 244.267929 341.366087 
L 245.172472 341.366087 
L 246.077014 338.693588 
L 246.981556 338.693588 
L 247.886098 336.021089 
L 248.79064 336.021089 
L 249.695183 333.348591 
L 250.599725 333.348591 
L 251.504267 330.676092 
L 252.408809 330.676092 
L 254.217894 325.331095 
L 255.122436 325.331095 
L 256.026978 322.658596 
L 256.93152 322.658596 
L 257.836062 319.986097 
L 258.740605 319.986097 
L 259.645147 317.313599 
L 260.549689 317.313599 
L 261.454231 314.6411 
L 262.358773 314.6411 
L 263.263316 311.968601 
L 264.167858 311.968601 
L 265.0724 309.296102 
L 265.976942 309.296102 
L 267.786026 303.951105 
L 268.690569 303.951105 
L 269.595111 301.278606 
L 270.499653 301.278606 
L 271.404195 298.606108 
L 272.308737 298.606108 
L 273.21328 295.933609 
L 274.117822 295.933609 
L 275.022364 293.26111 
L 275.926906 293.26111 
L 276.831448 290.588612 
L 277.735991 290.588612 
L 278.640533 287.916113 
L 279.545075 287.916113 
L 281.354159 282.571116 
L 282.258702 282.571116 
L 283.163244 279.898617 
L 284.067786 279.898617 
L 284.972328 277.226118 
L 285.87687 277.226118 
L 286.781413 274.55362 
L 287.685955 274.55362 
L 288.590497 271.881121 
L 289.495039 271.881121 
L 290.399581 269.208622 
L 291.304123 269.208622 
L 293.113208 263.863625 
L 294.01775 263.863625 
L 294.922292 261.191126 
L 295.826834 261.191126 
L 296.731377 258.518627 
L 297.635919 258.518627 
L 298.540461 255.846129 
L 299.445003 255.846129 
L 300.349545 253.17363 
L 301.254088 253.17363 
L 302.15863 250.501131 
L 303.063172 250.501131 
L 303.967714 247.828633 
L 304.872256 247.828633 
L 306.681341 242.483635 
L 307.585883 242.483635 
L 308.490425 239.811137 
L 309.394967 239.811137 
L 310.29951 237.138638 
L 311.204052 237.138638 
L 312.108594 234.466139 
L 313.013136 234.466139 
L 313.917678 231.793641 
L 314.822221 231.793641 
L 315.726763 229.121142 
L 316.631305 229.121142 
L 317.535847 226.448643 
L 318.440389 226.448643 
L 320.249474 221.103646 
L 321.154016 221.103646 
L 322.058558 218.431147 
L 322.9631 218.431147 
L 323.867642 215.758648 
L 324.772185 215.758648 
L 325.676727 213.08615 
L 326.581269 213.08615 
L 327.485811 210.413651 
L 328.390353 210.413651 
L 329.294896 207.741152 
L 330.199438 207.741152 
L 331.10398 205.068654 
L 332.008522 205.068654 
L 333.817607 199.723656 
L 334.722149 199.723656 
L 335.626691 197.051158 
L 336.531233 197.051158 
L 337.435775 194.378659 
L 338.340318 194.378659 
L 339.24486 191.70616 
L 340.149402 191.70616 
L 341.053944 189.033661 
L 341.958486 189.033661 
L 342.863028 186.361163 
L 343.767571 186.361163 
L 344.672113 183.688664 
L 345.576655 183.688664 
L 347.385739 178.343667 
L 348.290282 178.343667 
L 349.194824 175.671168 
L 350.099366 175.671168 
L 351.003908 172.998669 
L 351.90845 172.998669 
L 352.812993 170.326171 
L 353.717535 170.326171 
L 354.622077 167.653672 
L 355.526619 167.653672 
L 356.431161 164.981173 
L 357.335704 164.981173 
L 358.240246 162.308675 
L 359.144788 162.308675 
L 360.953872 156.963677 
L 361.858415 156.963677 
L 362.762957 154.291179 
L 363.667499 154.291179 
L 364.572041 151.61868 
L 365.476583 151.61868 
L 366.381125 148.946181 
L 367.285668 148.946181 
L 368.19021 146.273682 
L 369.094752 146.273682 
L 369.999294 143.601184 
L 370.903836 143.601184 
L 371.808379 140.928685 
L 372.712921 140.928685 
L 374.522005 135.583688 
L 375.426547 135.583688 
L 376.33109 132.911189 
L 377.235632 132.911189 
L 378.140174 130.23869 
L 379.044716 130.23869 
L 379.949258 127.566192 
L 380.853801 127.566192 
L 381.758343 124.893693 
L 382.662885 124.893693 
L 383.567427 122.221194 
L 384.471969 122.221194 
L 386.281054 116.876197 
L 387.185596 116.876197 
L 388.090138 114.203698 
L 388.99468 114.203698 
L 389.899222 111.5312 
L 390.803765 111.5312 
L 391.708307 108.858701 
L 392.612849 108.858701 
L 393.517391 106.186202 
L 394.421933 106.186202 
L 395.326476 103.513703 
L 396.231018 103.513703 
L 397.13556 100.841205 
L 398.040102 100.841205 
L 399.849187 95.496207 
L 400.753729 95.496207 
L 401.658271 92.823709 
L 402.562813 92.823709 
L 403.467355 90.15121 
L 404.371898 90.15121 
L 405.27644 87.478711 
L 406.180982 87.478711 
L 407.085524 84.806213 
L 407.990066 84.806213 
L 408.894609 82.133714 
L 409.799151 82.133714 
L 410.703693 79.461215 
L 411.608235 79.461215 
L 413.417319 74.116218 
L 414.321862 74.116218 
L 415.226404 71.443719 
L 416.130946 71.443719 
L 417.035488 68.77122 
L 417.94003 68.77122 
L 418.844573 66.098722 
L 420.653657 66.098722 
L 421.558199 68.77122 
L 424.271826 68.77122 
L 425.176368 71.443719 
L 426.985452 71.443719 
L 427.889995 74.116218 
L 430.603621 74.116218 
L 431.508163 76.788717 
L 434.22179 76.788717 
L 435.126332 79.461215 
L 437.839959 79.461215 
L 438.744501 82.133714 
L 440.553585 82.133714 
L 441.458127 84.806213 
L 444.171754 84.806213 
L 445.076296 87.478711 
L 447.789923 87.478711 
L 448.694465 90.15121 
L 451.408092 90.15121 
L 452.312634 92.823709 
L 454.121718 92.823709 
L 455.02626 95.496207 
L 457.739887 95.496207 
L 458.644429 98.168706 
L 461.358056 98.168706 
L 462.262598 100.841205 
L 464.976224 100.841205 
L 465.880767 103.513703 
L 467.689851 103.513703 
L 468.594393 106.186202 
L 471.30802 106.186202 
L 472.212562 108.858701 
L 474.926189 108.858701 
L 475.830731 111.5312 
L 478.544357 111.5312 
L 479.4489 114.203698 
L 481.257984 114.203698 
L 482.162526 116.876197 
L 484.876153 116.876197 
L 485.780695 119.548696 
L 488.494321 119.548696 
L 489.398864 122.221194 
L 492.11249 122.221194 
L 493.017032 124.893693 
L 494.826117 124.893693 
L 495.730659 127.566192 
L 498.444286 127.566192 
L 499.348828 130.23869 
L 502.062454 130.23869 
L 502.966997 132.911189 
L 504.776081 132.911189 
L 505.680623 135.583688 
L 508.39425 135.583688 
L 509.298792 138.256186 
L 512.012418 138.256186 
L 512.916961 140.928685 
L 515.630587 140.928685 
L 516.535129 143.601184 
L 518.344214 143.601184 
L 519.248756 146.273682 
L 521.962383 146.273682 
L 522.866925 148.946181 
L 525.580551 148.946181 
L 526.485094 151.61868 
L 529.19872 151.61868 
L 530.103262 154.291179 
L 531.912347 154.291179 
L 532.816889 156.963677 
L 535.530516 156.963677 
L 536.435058 159.636176 
L 539.148684 159.636176 
L 540.053226 162.308675 
L 542.766853 162.308675 
L 543.671395 164.981173 
L 545.48048 164.981173 
L 546.385022 167.653672 
L 549.098648 167.653672 
L 550.003191 170.326171 
L 552.716817 170.326171 
L 553.621359 172.998669 
L 556.334986 172.998669 
L 557.239528 175.671168 
L 559.048613 175.671168 
L 559.953155 178.343667 
L 562.666781 178.343667 
L 563.571323 181.016165 
L 566.28495 181.016165 
L 567.189492 183.688664 
L 569.903119 183.688664 
L 570.807661 186.361163 
L 572.616745 186.361163 
L 573.521288 189.033661 
L 576.234914 189.033661 
L 577.139456 191.70616 
L 579.853083 191.70616 
L 580.757625 194.378659 
L 583.471252 194.378659 
L 584.375794 197.051158 
L 586.184878 197.051158 
L 587.08942 199.723656 
L 589.803047 199.723656 
L 590.707589 202.396155 
L 593.421216 202.396155 
L 594.325758 205.068654 
L 597.039385 205.068654 
L 597.943927 207.741152 
L 599.753011 207.741152 
L 600.657553 210.413651 
L 603.37118 210.413651 
L 604.275722 213.08615 
L 606.989349 213.08615 
L 607.893891 215.758648 
L 610.607517 215.758648 
L 611.51206 218.431147 
L 613.321144 218.431147 
L 614.225686 221.103646 
L 616.939313 221.103646 
L 617.843855 223.776144 
L 620.557482 223.776144 
L 621.462024 226.448643 
L 624.17565 226.448643 
L 625.080193 229.121142 
L 626.889277 229.121142 
L 627.793819 231.793641 
L 630.507446 231.793641 
L 631.411988 234.466139 
L 634.125614 234.466139 
L 635.030157 237.138638 
L 637.743783 237.138638 
L 638.648325 239.811137 
L 640.45741 239.811137 
L 641.361952 242.483635 
L 644.075579 242.483635 
L 644.980121 245.156134 
L 647.693747 245.156134 
L 648.59829 247.828633 
L 651.311916 247.828633 
L 652.216458 250.501131 
L 654.025543 250.501131 
L 654.930085 253.17363 
L 657.643712 253.17363 
L 658.548254 255.846129 
L 661.26188 255.846129 
L 662.166422 258.518627 
L 664.880049 258.518627 
L 665.784591 261.191126 
L 667.593676 261.191126 
L 668.498218 263.863625 
L 671.211844 263.863625 
L 672.116387 266.536123 
L 674.830013 266.536123 
L 675.734555 269.208622 
L 677.54364 269.208622 
L 678.448182 271.881121 
L 681.161809 271.881121 
L 682.066351 274.55362 
L 684.779977 274.55362 
L 685.684519 277.226118 
L 688.398146 277.226118 
L 689.302688 279.898617 
L 691.111773 279.898617 
L 692.016315 282.571116 
L 694.729941 282.571116 
L 695.634484 285.243614 
L 698.34811 285.243614 
L 699.252652 287.916113 
L 701.966279 287.916113 
L 702.870821 290.588612 
L 704.679906 290.588612 
L 705.584448 293.26111 
L 708.298074 293.26111 
L 709.202616 295.933609 
L 711.916243 295.933609 
L 712.820785 298.606108 
L 715.534412 298.606108 
L 716.438954 301.278606 
L 718.248038 301.278606 
L 719.152581 303.951105 
L 721.866207 303.951105 
L 722.770749 306.623604 
L 725.484376 306.623604 
L 726.388918 309.296102 
L 729.102545 309.296102 
L 730.007087 311.968601 
L 731.816171 311.968601 
L 732.720713 314.6411 
L 735.43434 314.6411 
L 736.338882 317.313599 
L 739.052509 317.313599 
L 739.957051 319.986097 
L 742.670678 319.986097 
L 743.57522 322.658596 
L 745.384304 322.658596 
L 746.288846 325.331095 
L 749.002473 325.331095 
L 749.907015 328.003593 
L 752.620642 328.003593 
L 753.525184 330.676092 
L 756.238811 330.676092 
L 757.143353 333.348591 
L 758.047895 333.348591 
L 758.047895 333.348591 
" clip-path="url(#p12ef326843)" style="fill: none; stroke: #db5f57; stroke-width: 1.32934"/>
   </g>
   <g id="line2d_28">
    <path d="M 322.058558 373.436071 
L 325.676727 362.746076 
L 326.581269 357.401079 
L 339.24486 319.986097 
L 340.149402 314.6411 
L 352.812993 277.226118 
L 353.717535 271.881121 
L 365.476583 237.138638 
L 366.381125 231.793641 
L 379.044716 194.378659 
L 379.949258 189.033661 
L 392.612849 151.61868 
L 393.517391 146.273682 
L 405.27644 111.5312 
L 406.180982 106.186202 
L 419.749115 66.098722 
L 420.653657 66.098722 
L 421.558199 68.77122 
L 424.271826 68.77122 
L 425.176368 71.443719 
L 426.985452 71.443719 
L 427.889995 74.116218 
L 430.603621 74.116218 
L 431.508163 76.788717 
L 434.22179 76.788717 
L 435.126332 79.461215 
L 437.839959 79.461215 
L 438.744501 82.133714 
L 440.553585 82.133714 
L 441.458127 84.806213 
L 444.171754 84.806213 
L 445.076296 87.478711 
L 447.789923 87.478711 
L 448.694465 90.15121 
L 451.408092 90.15121 
L 452.312634 92.823709 
L 454.121718 92.823709 
L 455.02626 95.496207 
L 457.739887 95.496207 
L 458.644429 98.168706 
L 461.358056 98.168706 
L 462.262598 100.841205 
L 464.976224 100.841205 
L 465.880767 103.513703 
L 467.689851 103.513703 
L 468.594393 106.186202 
L 471.30802 106.186202 
L 472.212562 108.858701 
L 474.926189 108.858701 
L 475.830731 111.5312 
L 478.544357 111.5312 
L 479.4489 114.203698 
L 481.257984 114.203698 
L 482.162526 116.876197 
L 484.876153 116.876197 
L 485.780695 119.548696 
L 488.494321 119.548696 
L 489.398864 122.221194 
L 492.11249 122.221194 
L 493.017032 124.893693 
L 494.826117 124.893693 
L 495.730659 127.566192 
L 498.444286 127.566192 
L 499.348828 130.23869 
L 502.062454 130.23869 
L 502.966997 132.911189 
L 504.776081 132.911189 
L 505.680623 135.583688 
L 508.39425 135.583688 
L 509.298792 138.256186 
L 512.012418 138.256186 
L 512.916961 140.928685 
L 515.630587 140.928685 
L 516.535129 143.601184 
L 518.344214 143.601184 
L 519.248756 146.273682 
L 521.962383 146.273682 
L 522.866925 148.946181 
L 525.580551 148.946181 
L 526.485094 151.61868 
L 529.19872 151.61868 
L 530.103262 154.291179 
L 531.912347 154.291179 
L 532.816889 156.963677 
L 535.530516 156.963677 
L 536.435058 159.636176 
L 539.148684 159.636176 
L 540.053226 162.308675 
L 542.766853 162.308675 
L 543.671395 164.981173 
L 545.48048 164.981173 
L 546.385022 167.653672 
L 549.098648 167.653672 
L 550.003191 170.326171 
L 552.716817 170.326171 
L 553.621359 172.998669 
L 556.334986 172.998669 
L 557.239528 175.671168 
L 559.048613 175.671168 
L 559.953155 178.343667 
L 562.666781 178.343667 
L 563.571323 181.016165 
L 566.28495 181.016165 
L 567.189492 183.688664 
L 569.903119 183.688664 
L 570.807661 186.361163 
L 572.616745 186.361163 
L 573.521288 189.033661 
L 576.234914 189.033661 
L 577.139456 191.70616 
L 579.853083 191.70616 
L 580.757625 194.378659 
L 583.471252 194.378659 
L 584.375794 197.051158 
L 586.184878 197.051158 
L 587.08942 199.723656 
L 589.803047 199.723656 
L 590.707589 202.396155 
L 593.421216 202.396155 
L 594.325758 205.068654 
L 597.039385 205.068654 
L 597.943927 207.741152 
L 599.753011 207.741152 
L 600.657553 210.413651 
L 603.37118 210.413651 
L 604.275722 213.08615 
L 606.989349 213.08615 
L 607.893891 215.758648 
L 610.607517 215.758648 
L 611.51206 218.431147 
L 613.321144 218.431147 
L 614.225686 221.103646 
L 616.939313 221.103646 
L 617.843855 223.776144 
L 620.557482 223.776144 
L 621.462024 226.448643 
L 624.17565 226.448643 
L 625.080193 229.121142 
L 626.889277 229.121142 
L 627.793819 231.793641 
L 630.507446 231.793641 
L 631.411988 234.466139 
L 634.125614 234.466139 
L 635.030157 237.138638 
L 637.743783 237.138638 
L 638.648325 239.811137 
L 640.45741 239.811137 
L 641.361952 242.483635 
L 644.075579 242.483635 
L 644.980121 245.156134 
L 647.693747 245.156134 
L 648.59829 247.828633 
L 651.311916 247.828633 
L 652.216458 250.501131 
L 654.025543 250.501131 
L 654.930085 253.17363 
L 657.643712 253.17363 
L 658.548254 255.846129 
L 661.26188 255.846129 
L 662.166422 258.518627 
L 664.880049 258.518627 
L 665.784591 261.191126 
L 667.593676 261.191126 
L 668.498218 263.863625 
L 671.211844 263.863625 
L 672.116387 266.536123 
L 674.830013 266.536123 
L 675.734555 269.208622 
L 677.54364 269.208622 
L 678.448182 271.881121 
L 681.161809 271.881121 
L 682.066351 274.55362 
L 684.779977 274.55362 
L 685.684519 277.226118 
L 688.398146 277.226118 
L 689.302688 279.898617 
L 691.111773 279.898617 
L 692.016315 282.571116 
L 694.729941 282.571116 
L 695.634484 285.243614 
L 698.34811 285.243614 
L 699.252652 287.916113 
L 701.966279 287.916113 
L 702.870821 290.588612 
L 704.679906 290.588612 
L 705.584448 293.26111 
L 708.298074 293.26111 
L 709.202616 295.933609 
L 711.916243 295.933609 
L 712.820785 298.606108 
L 715.534412 298.606108 
L 716.438954 301.278606 
L 718.248038 301.278606 
L 719.152581 303.951105 
L 721.866207 303.951105 
L 722.770749 306.623604 
L 725.484376 306.623604 
L 726.388918 309.296102 
L 729.102545 309.296102 
L 730.007087 311.968601 
L 731.816171 311.968601 
L 732.720713 314.6411 
L 735.43434 314.6411 
L 736.338882 317.313599 
L 739.052509 317.313599 
L 739.957051 319.986097 
L 742.670678 319.986097 
L 743.57522 322.658596 
L 745.384304 322.658596 
L 746.288846 325.331095 
L 749.002473 325.331095 
L 749.907015 328.003593 
L 752.620642 328.003593 
L 753.525184 330.676092 
L 756.238811 330.676092 
L 757.143353 333.348591 
L 758.047895 333.348591 
L 758.047895 333.348591 
" clip-path="url(#p12ef326843)" style="fill: none; stroke: #d3db57; stroke-width: 1.32934"/>
   </g>
   <g id="line2d_29">
    <path d="M 376.33109 370.763572 
L 377.235632 365.418575 
L 378.140174 357.401079 
L 379.949258 346.711084 
L 380.853801 338.693588 
L 381.758343 333.348591 
L 382.662885 325.331095 
L 384.471969 314.6411 
L 385.376512 306.623604 
L 386.281054 301.278606 
L 387.185596 293.26111 
L 388.99468 282.571116 
L 389.899222 274.55362 
L 390.803765 269.208622 
L 391.708307 261.191126 
L 392.612849 255.846129 
L 393.517391 247.828633 
L 395.326476 237.138638 
L 396.231018 229.121142 
L 397.13556 223.776144 
L 398.040102 215.758648 
L 399.849187 205.068654 
L 400.753729 197.051158 
L 401.658271 191.70616 
L 402.562813 183.688664 
L 404.371898 172.998669 
L 405.27644 164.981173 
L 406.180982 159.636176 
L 407.085524 151.61868 
L 408.894609 140.928685 
L 409.799151 132.911189 
L 410.703693 127.566192 
L 411.608235 119.548696 
L 413.417319 108.858701 
L 414.321862 100.841205 
L 415.226404 95.496207 
L 416.130946 87.478711 
L 417.94003 76.788717 
L 418.844573 68.77122 
L 419.749115 66.098722 
L 420.653657 66.098722 
L 421.558199 68.77122 
L 424.271826 68.77122 
L 425.176368 71.443719 
L 426.985452 71.443719 
L 427.889995 74.116218 
L 430.603621 74.116218 
L 431.508163 76.788717 
L 434.22179 76.788717 
L 435.126332 79.461215 
L 437.839959 79.461215 
L 438.744501 82.133714 
L 440.553585 82.133714 
L 441.458127 84.806213 
L 444.171754 84.806213 
L 445.076296 87.478711 
L 447.789923 87.478711 
L 448.694465 90.15121 
L 451.408092 90.15121 
L 452.312634 92.823709 
L 454.121718 92.823709 
L 455.02626 95.496207 
L 457.739887 95.496207 
L 458.644429 98.168706 
L 461.358056 98.168706 
L 462.262598 100.841205 
L 464.976224 100.841205 
L 465.880767 103.513703 
L 467.689851 103.513703 
L 468.594393 106.186202 
L 471.30802 106.186202 
L 472.212562 108.858701 
L 474.926189 108.858701 
L 475.830731 111.5312 
L 478.544357 111.5312 
L 479.4489 114.203698 
L 481.257984 114.203698 
L 482.162526 116.876197 
L 484.876153 116.876197 
L 485.780695 119.548696 
L 488.494321 119.548696 
L 489.398864 122.221194 
L 492.11249 122.221194 
L 493.017032 124.893693 
L 494.826117 124.893693 
L 495.730659 127.566192 
L 498.444286 127.566192 
L 499.348828 130.23869 
L 502.062454 130.23869 
L 502.966997 132.911189 
L 504.776081 132.911189 
L 505.680623 135.583688 
L 508.39425 135.583688 
L 509.298792 138.256186 
L 512.012418 138.256186 
L 512.916961 140.928685 
L 515.630587 140.928685 
L 516.535129 143.601184 
L 518.344214 143.601184 
L 519.248756 146.273682 
L 521.962383 146.273682 
L 522.866925 148.946181 
L 525.580551 148.946181 
L 526.485094 151.61868 
L 529.19872 151.61868 
L 530.103262 154.291179 
L 531.912347 154.291179 
L 532.816889 156.963677 
L 535.530516 156.963677 
L 536.435058 159.636176 
L 539.148684 159.636176 
L 540.053226 162.308675 
L 542.766853 162.308675 
L 543.671395 164.981173 
L 545.48048 164.981173 
L 546.385022 167.653672 
L 549.098648 167.653672 
L 550.003191 170.326171 
L 552.716817 170.326171 
L 553.621359 172.998669 
L 556.334986 172.998669 
L 557.239528 175.671168 
L 559.048613 175.671168 
L 559.953155 178.343667 
L 562.666781 178.343667 
L 563.571323 181.016165 
L 566.28495 181.016165 
L 567.189492 183.688664 
L 569.903119 183.688664 
L 570.807661 186.361163 
L 572.616745 186.361163 
L 573.521288 189.033661 
L 576.234914 189.033661 
L 577.139456 191.70616 
L 579.853083 191.70616 
L 580.757625 194.378659 
L 583.471252 194.378659 
L 584.375794 197.051158 
L 586.184878 197.051158 
L 587.08942 199.723656 
L 589.803047 199.723656 
L 590.707589 202.396155 
L 593.421216 202.396155 
L 594.325758 205.068654 
L 597.039385 205.068654 
L 597.943927 207.741152 
L 599.753011 207.741152 
L 600.657553 210.413651 
L 603.37118 210.413651 
L 604.275722 213.08615 
L 606.989349 213.08615 
L 607.893891 215.758648 
L 610.607517 215.758648 
L 611.51206 218.431147 
L 613.321144 218.431147 
L 614.225686 221.103646 
L 616.939313 221.103646 
L 617.843855 223.776144 
L 620.557482 223.776144 
L 621.462024 226.448643 
L 624.17565 226.448643 
L 625.080193 229.121142 
L 626.889277 229.121142 
L 627.793819 231.793641 
L 630.507446 231.793641 
L 631.411988 234.466139 
L 634.125614 234.466139 
L 635.030157 237.138638 
L 637.743783 237.138638 
L 638.648325 239.811137 
L 640.45741 239.811137 
L 641.361952 242.483635 
L 644.075579 242.483635 
L 644.980121 245.156134 
L 647.693747 245.156134 
L 648.59829 247.828633 
L 651.311916 247.828633 
L 652.216458 250.501131 
L 654.025543 250.501131 
L 654.930085 253.17363 
L 657.643712 253.17363 
L 658.548254 255.846129 
L 661.26188 255.846129 
L 662.166422 258.518627 
L 664.880049 258.518627 
L 665.784591 261.191126 
L 667.593676 261.191126 
L 668.498218 263.863625 
L 671.211844 263.863625 
L 672.116387 266.536123 
L 674.830013 266.536123 
L 675.734555 269.208622 
L 677.54364 269.208622 
L 678.448182 271.881121 
L 681.161809 271.881121 
L 682.066351 274.55362 
L 684.779977 274.55362 
L 685.684519 277.226118 
L 688.398146 277.226118 
L 689.302688 279.898617 
L 691.111773 279.898617 
L 692.016315 282.571116 
L 694.729941 282.571116 
L 695.634484 285.243614 
L 698.34811 285.243614 
L 699.252652 287.916113 
L 701.966279 287.916113 
L 702.870821 290.588612 
L 704.679906 290.588612 
L 705.584448 293.26111 
L 708.298074 293.26111 
L 709.202616 295.933609 
L 711.916243 295.933609 
L 712.820785 298.606108 
L 715.534412 298.606108 
L 716.438954 301.278606 
L 718.248038 301.278606 
L 719.152581 303.951105 
L 721.866207 303.951105 
L 722.770749 306.623604 
L 725.484376 306.623604 
L 726.388918 309.296102 
L 729.102545 309.296102 
L 730.007087 311.968601 
L 731.816171 311.968601 
L 732.720713 314.6411 
L 735.43434 314.6411 
L 736.338882 317.313599 
L 739.052509 317.313599 
L 739.957051 319.986097 
L 742.670678 319.986097 
L 743.57522 322.658596 
L 745.384304 322.658596 
L 746.288846 325.331095 
L 749.002473 325.331095 
L 749.907015 328.003593 
L 752.620642 328.003593 
L 753.525184 330.676092 
L 756.238811 330.676092 
L 757.143353 333.348591 
L 758.047895 333.348591 
L 758.047895 333.348591 
" clip-path="url(#p12ef326843)" style="fill: none; stroke: #57db5f; stroke-width: 1.32934"/>
   </g>
   <g id="line2d_30">
    <path d="M 403.467355 365.418575 
L 404.371898 349.383583 
L 405.27644 330.676092 
L 407.085524 298.606108 
L 407.990066 279.898617 
L 408.894609 263.863625 
L 409.799151 245.156134 
L 410.703693 229.121142 
L 411.608235 210.413651 
L 413.417319 178.343667 
L 414.321862 159.636176 
L 415.226404 143.601184 
L 416.130946 124.893693 
L 417.94003 92.823709 
L 418.844573 74.116218 
L 419.749115 66.098722 
L 420.653657 66.098722 
L 421.558199 68.77122 
L 424.271826 68.77122 
L 425.176368 71.443719 
L 426.985452 71.443719 
L 427.889995 74.116218 
L 430.603621 74.116218 
L 431.508163 76.788717 
L 434.22179 76.788717 
L 435.126332 79.461215 
L 437.839959 79.461215 
L 438.744501 82.133714 
L 440.553585 82.133714 
L 441.458127 84.806213 
L 444.171754 84.806213 
L 445.076296 87.478711 
L 447.789923 87.478711 
L 448.694465 90.15121 
L 451.408092 90.15121 
L 452.312634 92.823709 
L 454.121718 92.823709 
L 455.02626 95.496207 
L 457.739887 95.496207 
L 458.644429 98.168706 
L 461.358056 98.168706 
L 462.262598 100.841205 
L 464.976224 100.841205 
L 465.880767 103.513703 
L 467.689851 103.513703 
L 468.594393 106.186202 
L 471.30802 106.186202 
L 472.212562 108.858701 
L 474.926189 108.858701 
L 475.830731 111.5312 
L 478.544357 111.5312 
L 479.4489 114.203698 
L 481.257984 114.203698 
L 482.162526 116.876197 
L 484.876153 116.876197 
L 485.780695 119.548696 
L 488.494321 119.548696 
L 489.398864 122.221194 
L 492.11249 122.221194 
L 493.017032 124.893693 
L 494.826117 124.893693 
L 495.730659 127.566192 
L 498.444286 127.566192 
L 499.348828 130.23869 
L 502.062454 130.23869 
L 502.966997 132.911189 
L 504.776081 132.911189 
L 505.680623 135.583688 
L 508.39425 135.583688 
L 509.298792 138.256186 
L 512.012418 138.256186 
L 512.916961 140.928685 
L 515.630587 140.928685 
L 516.535129 143.601184 
L 518.344214 143.601184 
L 519.248756 146.273682 
L 521.962383 146.273682 
L 522.866925 148.946181 
L 525.580551 148.946181 
L 526.485094 151.61868 
L 529.19872 151.61868 
L 530.103262 154.291179 
L 531.912347 154.291179 
L 532.816889 156.963677 
L 535.530516 156.963677 
L 536.435058 159.636176 
L 539.148684 159.636176 
L 540.053226 162.308675 
L 542.766853 162.308675 
L 543.671395 164.981173 
L 545.48048 164.981173 
L 546.385022 167.653672 
L 549.098648 167.653672 
L 550.003191 170.326171 
L 552.716817 170.326171 
L 553.621359 172.998669 
L 556.334986 172.998669 
L 557.239528 175.671168 
L 559.048613 175.671168 
L 559.953155 178.343667 
L 562.666781 178.343667 
L 563.571323 181.016165 
L 566.28495 181.016165 
L 567.189492 183.688664 
L 569.903119 183.688664 
L 570.807661 186.361163 
L 572.616745 186.361163 
L 573.521288 189.033661 
L 576.234914 189.033661 
L 577.139456 191.70616 
L 579.853083 191.70616 
L 580.757625 194.378659 
L 583.471252 194.378659 
L 584.375794 197.051158 
L 586.184878 197.051158 
L 587.08942 199.723656 
L 589.803047 199.723656 
L 590.707589 202.396155 
L 593.421216 202.396155 
L 594.325758 205.068654 
L 597.039385 205.068654 
L 597.943927 207.741152 
L 599.753011 207.741152 
L 600.657553 210.413651 
L 603.37118 210.413651 
L 604.275722 213.08615 
L 606.989349 213.08615 
L 607.893891 215.758648 
L 610.607517 215.758648 
L 611.51206 218.431147 
L 613.321144 218.431147 
L 614.225686 221.103646 
L 616.939313 221.103646 
L 617.843855 223.776144 
L 620.557482 223.776144 
L 621.462024 226.448643 
L 624.17565 226.448643 
L 625.080193 229.121142 
L 626.889277 229.121142 
L 627.793819 231.793641 
L 630.507446 231.793641 
L 631.411988 234.466139 
L 634.125614 234.466139 
L 635.030157 237.138638 
L 637.743783 237.138638 
L 638.648325 239.811137 
L 640.45741 239.811137 
L 641.361952 242.483635 
L 644.075579 242.483635 
L 644.980121 245.156134 
L 647.693747 245.156134 
L 648.59829 247.828633 
L 651.311916 247.828633 
L 652.216458 250.501131 
L 654.025543 250.501131 
L 654.930085 253.17363 
L 657.643712 253.17363 
L 658.548254 255.846129 
L 661.26188 255.846129 
L 662.166422 258.518627 
L 664.880049 258.518627 
L 665.784591 261.191126 
L 667.593676 261.191126 
L 668.498218 263.863625 
L 671.211844 263.863625 
L 672.116387 266.536123 
L 674.830013 266.536123 
L 675.734555 269.208622 
L 677.54364 269.208622 
L 678.448182 271.881121 
L 681.161809 271.881121 
L 682.066351 274.55362 
L 684.779977 274.55362 
L 685.684519 277.226118 
L 688.398146 277.226118 
L 689.302688 279.898617 
L 691.111773 279.898617 
L 692.016315 282.571116 
L 694.729941 282.571116 
L 695.634484 285.243614 
L 698.34811 285.243614 
L 699.252652 287.916113 
L 701.966279 287.916113 
L 702.870821 290.588612 
L 704.679906 290.588612 
L 705.584448 293.26111 
L 708.298074 293.26111 
L 709.202616 295.933609 
L 711.916243 295.933609 
L 712.820785 298.606108 
L 715.534412 298.606108 
L 716.438954 301.278606 
L 718.248038 301.278606 
L 719.152581 303.951105 
L 721.866207 303.951105 
L 722.770749 306.623604 
L 725.484376 306.623604 
L 726.388918 309.296102 
L 729.102545 309.296102 
L 730.007087 311.968601 
L 731.816171 311.968601 
L 732.720713 314.6411 
L 735.43434 314.6411 
L 736.338882 317.313599 
L 739.052509 317.313599 
L 739.957051 319.986097 
L 742.670678 319.986097 
L 743.57522 322.658596 
L 745.384304 322.658596 
L 746.288846 325.331095 
L 749.002473 325.331095 
L 749.907015 328.003593 
L 752.620642 328.003593 
L 753.525184 330.676092 
L 756.238811 330.676092 
L 757.143353 333.348591 
L 758.047895 333.348591 
L 758.047895 333.348591 
" clip-path="url(#p12ef326843)" style="fill: none; stroke: #57d3db; stroke-width: 1.32934"/>
   </g>
   <g id="line2d_31">
    <path d="M 411.608235 362.746076 
L 418.844573 84.806213 
L 419.749115 66.098722 
L 420.653657 66.098722 
L 421.558199 68.77122 
L 424.271826 68.77122 
L 425.176368 71.443719 
L 426.985452 71.443719 
L 427.889995 74.116218 
L 430.603621 74.116218 
L 431.508163 76.788717 
L 434.22179 76.788717 
L 435.126332 79.461215 
L 437.839959 79.461215 
L 438.744501 82.133714 
L 440.553585 82.133714 
L 441.458127 84.806213 
L 444.171754 84.806213 
L 445.076296 87.478711 
L 447.789923 87.478711 
L 448.694465 90.15121 
L 451.408092 90.15121 
L 452.312634 92.823709 
L 454.121718 92.823709 
L 455.02626 95.496207 
L 457.739887 95.496207 
L 458.644429 98.168706 
L 461.358056 98.168706 
L 462.262598 100.841205 
L 464.976224 100.841205 
L 465.880767 103.513703 
L 467.689851 103.513703 
L 468.594393 106.186202 
L 471.30802 106.186202 
L 472.212562 108.858701 
L 474.926189 108.858701 
L 475.830731 111.5312 
L 478.544357 111.5312 
L 479.4489 114.203698 
L 481.257984 114.203698 
L 482.162526 116.876197 
L 484.876153 116.876197 
L 485.780695 119.548696 
L 488.494321 119.548696 
L 489.398864 122.221194 
L 492.11249 122.221194 
L 493.017032 124.893693 
L 494.826117 124.893693 
L 495.730659 127.566192 
L 498.444286 127.566192 
L 499.348828 130.23869 
L 502.062454 130.23869 
L 502.966997 132.911189 
L 504.776081 132.911189 
L 505.680623 135.583688 
L 508.39425 135.583688 
L 509.298792 138.256186 
L 512.012418 138.256186 
L 512.916961 140.928685 
L 515.630587 140.928685 
L 516.535129 143.601184 
L 518.344214 143.601184 
L 519.248756 146.273682 
L 521.962383 146.273682 
L 522.866925 148.946181 
L 525.580551 148.946181 
L 526.485094 151.61868 
L 529.19872 151.61868 
L 530.103262 154.291179 
L 531.912347 154.291179 
L 532.816889 156.963677 
L 535.530516 156.963677 
L 536.435058 159.636176 
L 539.148684 159.636176 
L 540.053226 162.308675 
L 542.766853 162.308675 
L 543.671395 164.981173 
L 545.48048 164.981173 
L 546.385022 167.653672 
L 549.098648 167.653672 
L 550.003191 170.326171 
L 552.716817 170.326171 
L 553.621359 172.998669 
L 556.334986 172.998669 
L 557.239528 175.671168 
L 559.048613 175.671168 
L 559.953155 178.343667 
L 562.666781 178.343667 
L 563.571323 181.016165 
L 566.28495 181.016165 
L 567.189492 183.688664 
L 569.903119 183.688664 
L 570.807661 186.361163 
L 572.616745 186.361163 
L 573.521288 189.033661 
L 576.234914 189.033661 
L 577.139456 191.70616 
L 579.853083 191.70616 
L 580.757625 194.378659 
L 583.471252 194.378659 
L 584.375794 197.051158 
L 586.184878 197.051158 
L 587.08942 199.723656 
L 589.803047 199.723656 
L 590.707589 202.396155 
L 593.421216 202.396155 
L 594.325758 205.068654 
L 597.039385 205.068654 
L 597.943927 207.741152 
L 599.753011 207.741152 
L 600.657553 210.413651 
L 603.37118 210.413651 
L 604.275722 213.08615 
L 606.989349 213.08615 
L 607.893891 215.758648 
L 610.607517 215.758648 
L 611.51206 218.431147 
L 613.321144 218.431147 
L 614.225686 221.103646 
L 616.939313 221.103646 
L 617.843855 223.776144 
L 620.557482 223.776144 
L 621.462024 226.448643 
L 624.17565 226.448643 
L 625.080193 229.121142 
L 626.889277 229.121142 
L 627.793819 231.793641 
L 630.507446 231.793641 
L 631.411988 234.466139 
L 634.125614 234.466139 
L 635.030157 237.138638 
L 637.743783 237.138638 
L 638.648325 239.811137 
L 640.45741 239.811137 
L 641.361952 242.483635 
L 644.075579 242.483635 
L 644.980121 245.156134 
L 647.693747 245.156134 
L 648.59829 247.828633 
L 651.311916 247.828633 
L 652.216458 250.501131 
L 654.025543 250.501131 
L 654.930085 253.17363 
L 657.643712 253.17363 
L 658.548254 255.846129 
L 661.26188 255.846129 
L 662.166422 258.518627 
L 664.880049 258.518627 
L 665.784591 261.191126 
L 667.593676 261.191126 
L 668.498218 263.863625 
L 671.211844 263.863625 
L 672.116387 266.536123 
L 674.830013 266.536123 
L 675.734555 269.208622 
L 677.54364 269.208622 
L 678.448182 271.881121 
L 681.161809 271.881121 
L 682.066351 274.55362 
L 684.779977 274.55362 
L 685.684519 277.226118 
L 688.398146 277.226118 
L 689.302688 279.898617 
L 691.111773 279.898617 
L 692.016315 282.571116 
L 694.729941 282.571116 
L 695.634484 285.243614 
L 698.34811 285.243614 
L 699.252652 287.916113 
L 701.966279 287.916113 
L 702.870821 290.588612 
L 704.679906 290.588612 
L 705.584448 293.26111 
L 708.298074 293.26111 
L 709.202616 295.933609 
L 711.916243 295.933609 
L 712.820785 298.606108 
L 715.534412 298.606108 
L 716.438954 301.278606 
L 718.248038 301.278606 
L 719.152581 303.951105 
L 721.866207 303.951105 
L 722.770749 306.623604 
L 725.484376 306.623604 
L 726.388918 309.296102 
L 729.102545 309.296102 
L 730.007087 311.968601 
L 731.816171 311.968601 
L 732.720713 314.6411 
L 735.43434 314.6411 
L 736.338882 317.313599 
L 739.052509 317.313599 
L 739.957051 319.986097 
L 742.670678 319.986097 
L 743.57522 322.658596 
L 745.384304 322.658596 
L 746.288846 325.331095 
L 749.002473 325.331095 
L 749.907015 328.003593 
L 752.620642 328.003593 
L 753.525184 330.676092 
L 756.238811 330.676092 
L 757.143353 333.348591 
L 758.047895 333.348591 
L 758.047895 333.348591 
" clip-path="url(#p12ef326843)" style="fill: none; stroke: #5f57db; stroke-width: 1.32934"/>
   </g>
   <g id="line2d_32">
    <path d="M 416.130946 314.6411 
L 418.844573 100.841205 
L 419.749115 66.098722 
L 420.653657 66.098722 
L 421.558199 68.77122 
L 424.271826 68.77122 
L 425.176368 71.443719 
L 426.985452 71.443719 
L 427.889995 74.116218 
L 430.603621 74.116218 
L 431.508163 76.788717 
L 434.22179 76.788717 
L 435.126332 79.461215 
L 437.839959 79.461215 
L 438.744501 82.133714 
L 440.553585 82.133714 
L 441.458127 84.806213 
L 444.171754 84.806213 
L 445.076296 87.478711 
L 447.789923 87.478711 
L 448.694465 90.15121 
L 451.408092 90.15121 
L 452.312634 92.823709 
L 454.121718 92.823709 
L 455.02626 95.496207 
L 457.739887 95.496207 
L 458.644429 98.168706 
L 461.358056 98.168706 
L 462.262598 100.841205 
L 464.976224 100.841205 
L 465.880767 103.513703 
L 467.689851 103.513703 
L 468.594393 106.186202 
L 471.30802 106.186202 
L 472.212562 108.858701 
L 474.926189 108.858701 
L 475.830731 111.5312 
L 478.544357 111.5312 
L 479.4489 114.203698 
L 481.257984 114.203698 
L 482.162526 116.876197 
L 484.876153 116.876197 
L 485.780695 119.548696 
L 488.494321 119.548696 
L 489.398864 122.221194 
L 492.11249 122.221194 
L 493.017032 124.893693 
L 494.826117 124.893693 
L 495.730659 127.566192 
L 498.444286 127.566192 
L 499.348828 130.23869 
L 502.062454 130.23869 
L 502.966997 132.911189 
L 504.776081 132.911189 
L 505.680623 135.583688 
L 508.39425 135.583688 
L 509.298792 138.256186 
L 512.012418 138.256186 
L 512.916961 140.928685 
L 515.630587 140.928685 
L 516.535129 143.601184 
L 518.344214 143.601184 
L 519.248756 146.273682 
L 521.962383 146.273682 
L 522.866925 148.946181 
L 525.580551 148.946181 
L 526.485094 151.61868 
L 529.19872 151.61868 
L 530.103262 154.291179 
L 531.912347 154.291179 
L 532.816889 156.963677 
L 535.530516 156.963677 
L 536.435058 159.636176 
L 539.148684 159.636176 
L 540.053226 162.308675 
L 542.766853 162.308675 
L 543.671395 164.981173 
L 545.48048 164.981173 
L 546.385022 167.653672 
L 549.098648 167.653672 
L 550.003191 170.326171 
L 552.716817 170.326171 
L 553.621359 172.998669 
L 556.334986 172.998669 
L 557.239528 175.671168 
L 559.048613 175.671168 
L 559.953155 178.343667 
L 562.666781 178.343667 
L 563.571323 181.016165 
L 566.28495 181.016165 
L 567.189492 183.688664 
L 569.903119 183.688664 
L 570.807661 186.361163 
L 572.616745 186.361163 
L 573.521288 189.033661 
L 576.234914 189.033661 
L 577.139456 191.70616 
L 579.853083 191.70616 
L 580.757625 194.378659 
L 583.471252 194.378659 
L 584.375794 197.051158 
L 586.184878 197.051158 
L 587.08942 199.723656 
L 589.803047 199.723656 
L 590.707589 202.396155 
L 593.421216 202.396155 
L 594.325758 205.068654 
L 597.039385 205.068654 
L 597.943927 207.741152 
L 599.753011 207.741152 
L 600.657553 210.413651 
L 603.37118 210.413651 
L 604.275722 213.08615 
L 606.989349 213.08615 
L 607.893891 215.758648 
L 610.607517 215.758648 
L 611.51206 218.431147 
L 613.321144 218.431147 
L 614.225686 221.103646 
L 616.939313 221.103646 
L 617.843855 223.776144 
L 620.557482 223.776144 
L 621.462024 226.448643 
L 624.17565 226.448643 
L 625.080193 229.121142 
L 626.889277 229.121142 
L 627.793819 231.793641 
L 630.507446 231.793641 
L 631.411988 234.466139 
L 634.125614 234.466139 
L 635.030157 237.138638 
L 637.743783 237.138638 
L 638.648325 239.811137 
L 640.45741 239.811137 
L 641.361952 242.483635 
L 644.075579 242.483635 
L 644.980121 245.156134 
L 647.693747 245.156134 
L 648.59829 247.828633 
L 651.311916 247.828633 
L 652.216458 250.501131 
L 654.025543 250.501131 
L 654.930085 253.17363 
L 657.643712 253.17363 
L 658.548254 255.846129 
L 661.26188 255.846129 
L 662.166422 258.518627 
L 664.880049 258.518627 
L 665.784591 261.191126 
L 667.593676 261.191126 
L 668.498218 263.863625 
L 671.211844 263.863625 
L 672.116387 266.536123 
L 674.830013 266.536123 
L 675.734555 269.208622 
L 677.54364 269.208622 
L 678.448182 271.881121 
L 681.161809 271.881121 
L 682.066351 274.55362 
L 684.779977 274.55362 
L 685.684519 277.226118 
L 688.398146 277.226118 
L 689.302688 279.898617 
L 691.111773 279.898617 
L 692.016315 282.571116 
L 694.729941 282.571116 
L 695.634484 285.243614 
L 698.34811 285.243614 
L 699.252652 287.916113 
L 701.966279 287.916113 
L 702.870821 290.588612 
L 704.679906 290.588612 
L 705.584448 293.26111 
L 708.298074 293.26111 
L 709.202616 295.933609 
L 711.916243 295.933609 
L 712.820785 298.606108 
L 715.534412 298.606108 
L 716.438954 301.278606 
L 718.248038 301.278606 
L 719.152581 303.951105 
L 721.866207 303.951105 
L 722.770749 306.623604 
L 725.484376 306.623604 
L 726.388918 309.296102 
L 729.102545 309.296102 
L 730.007087 311.968601 
L 731.816171 311.968601 
L 732.720713 314.6411 
L 735.43434 314.6411 
L 736.338882 317.313599 
L 739.052509 317.313599 
L 739.957051 319.986097 
L 742.670678 319.986097 
L 743.57522 322.658596 
L 745.384304 322.658596 
L 746.288846 325.331095 
L 749.002473 325.331095 
L 749.907015 328.003593 
L 752.620642 328.003593 
L 753.525184 330.676092 
L 756.238811 330.676092 
L 757.143353 333.348591 
L 758.047895 333.348591 
L 758.047895 333.348591 
" clip-path="url(#p12ef326843)" style="fill: none; stroke: #db57d3; stroke-width: 1.32934"/>
   </g>
   <g id="LineCollection_1">
    <path d="M 46.670687 333.348591 
L 791.923 333.348591 
" clip-path="url(#p12ef326843)" style="fill: none; stroke-dasharray: 3.27904,1.417963; stroke-dashoffset: 0; stroke: #000000; stroke-width: 0.886227"/>
   </g>
  </g>
  <g id="patch_3">
   <path d="M 46.670687 390.807313 
L 791.923 390.807313 
L 791.923 8.64 
L 46.670687 8.64 
L 46.670687 390.807313 
z
" style="fill: none; stroke: #7f7f7f; stroke-linejoin: miter"/>
  </g>
  <g id="text_10">
   <!-- Rho -->
   <g transform="translate(408.624266 421.072344) scale(0.11 -0.11)">
    <defs>
     <path id="DejaVuSans-52" d="M 2841 2188 
Q 3044 2119 3236 1894 
Q 3428 1669 3622 1275 
L 4263 0 
L 3584 0 
L 2988 1197 
Q 2756 1666 2539 1819 
Q 2322 1972 1947 1972 
L 1259 1972 
L 1259 0 
L 628 0 
L 628 4666 
L 2053 4666 
Q 2853 4666 3247 4331 
Q 3641 3997 3641 3322 
Q 3641 2881 3436 2590 
Q 3231 2300 2841 2188 
z
M 1259 4147 
L 1259 2491 
L 2053 2491 
Q 2509 2491 2742 2702 
Q 2975 2913 2975 3322 
Q 2975 3731 2742 3939 
Q 2509 4147 2053 4147 
L 1259 4147 
z
" transform="scale(0.015625)"/>
     <path id="DejaVuSans-68" d="M 3513 2113 
L 3513 0 
L 2938 0 
L 2938 2094 
Q 2938 2591 2744 2837 
Q 2550 3084 2163 3084 
Q 1697 3084 1428 2787 
Q 1159 2491 1159 1978 
L 1159 0 
L 581 0 
L 581 4863 
L 1159 4863 
L 1159 2956 
Q 1366 3272 1645 3428 
Q 1925 3584 2291 3584 
Q 2894 3584 3203 3211 
Q 3513 2838 3513 2113 
z
" transform="scale(0.015625)"/>
     <path id="DejaVuSans-6f" d="M 1959 3097 
Q 1497 3097 1228 2736 
Q 959 2375 959 1747 
Q 959 1119 1226 758 
Q 1494 397 1959 397 
Q 2419 397 2687 759 
Q 2956 1122 2956 1747 
Q 2956 2369 2687 2733 
Q 2419 3097 1959 3097 
z
M 1959 3584 
Q 2709 3584 3137 3096 
Q 3566 2609 3566 1747 
Q 3566 888 3137 398 
Q 2709 -91 1959 -91 
Q 1206 -91 779 398 
Q 353 888 353 1747 
Q 353 2609 779 3096 
Q 1206 3584 1959 3584 
z
" transform="scale(0.015625)"/>
    </defs>
    <use xlink:href="#DejaVuSans-52"/>
    <use xlink:href="#DejaVuSans-68" x="69.482422"/>
    <use xlink:href="#DejaVuSans-6f" x="132.861328"/>
   </g>
  </g>
  <g id="text_11">
   <!-- MinEigenvalue -->
   <g transform="translate(16.998281 239.871078) rotate(-90) scale(0.11 -0.11)">
    <defs>
     <path id="DejaVuSans-4d" d="M 628 4666 
L 1569 4666 
L 2759 1491 
L 3956 4666 
L 4897 4666 
L 4897 0 
L 4281 0 
L 4281 4097 
L 3078 897 
L 2444 897 
L 1241 4097 
L 1241 0 
L 628 0 
L 628 4666 
z
" transform="scale(0.015625)"/>
     <path id="DejaVuSans-69" d="M 603 3500 
L 1178 3500 
L 1178 0 
L 603 0 
L 603 3500 
z
M 603 4863 
L 1178 4863 
L 1178 4134 
L 603 4134 
L 603 4863 
z
" transform="scale(0.015625)"/>
     <path id="DejaVuSans-6e" d="M 3513 2113 
L 3513 0 
L 2938 0 
L 2938 2094 
Q 2938 2591 2744 2837 
Q 2550 3084 2163 3084 
Q 1697 3084 1428 2787 
Q 1159 2491 1159 1978 
L 1159 0 
L 581 0 
L 581 3500 
L 1159 3500 
L 1159 2956 
Q 1366 3272 1645 3428 
Q 1925 3584 2291 3584 
Q 2894 3584 3203 3211 
Q 3513 2838 3513 2113 
z
" transform="scale(0.015625)"/>
     <path id="DejaVuSans-45" d="M 628 4666 
L 3578 4666 
L 3578 4134 
L 1259 4134 
L 1259 2753 
L 3481 2753 
L 3481 2222 
L 1259 2222 
L 1259 531 
L 3634 531 
L 3634 0 
L 628 0 
L 628 4666 
z
" transform="scale(0.015625)"/>
     <path id="DejaVuSans-67" d="M 2906 1791 
Q 2906 2416 2648 2759 
Q 2391 3103 1925 3103 
Q 1463 3103 1205 2759 
Q 947 2416 947 1791 
Q 947 1169 1205 825 
Q 1463 481 1925 481 
Q 2391 481 2648 825 
Q 2906 1169 2906 1791 
z
M 3481 434 
Q 3481 -459 3084 -895 
Q 2688 -1331 1869 -1331 
Q 1566 -1331 1297 -1286 
Q 1028 -1241 775 -1147 
L 775 -588 
Q 1028 -725 1275 -790 
Q 1522 -856 1778 -856 
Q 2344 -856 2625 -561 
Q 2906 -266 2906 331 
L 2906 616 
Q 2728 306 2450 153 
Q 2172 0 1784 0 
Q 1141 0 747 490 
Q 353 981 353 1791 
Q 353 2603 747 3093 
Q 1141 3584 1784 3584 
Q 2172 3584 2450 3431 
Q 2728 3278 2906 2969 
L 2906 3500 
L 3481 3500 
L 3481 434 
z
" transform="scale(0.015625)"/>
     <path id="DejaVuSans-65" d="M 3597 1894 
L 3597 1613 
L 953 1613 
Q 991 1019 1311 708 
Q 1631 397 2203 397 
Q 2534 397 2845 478 
Q 3156 559 3463 722 
L 3463 178 
Q 3153 47 2828 -22 
Q 2503 -91 2169 -91 
Q 1331 -91 842 396 
Q 353 884 353 1716 
Q 353 2575 817 3079 
Q 1281 3584 2069 3584 
Q 2775 3584 3186 3129 
Q 3597 2675 3597 1894 
z
M 3022 2063 
Q 3016 2534 2758 2815 
Q 2500 3097 2075 3097 
Q 1594 3097 1305 2825 
Q 1016 2553 972 2059 
L 3022 2063 
z
" transform="scale(0.015625)"/>
     <path id="DejaVuSans-76" d="M 191 3500 
L 800 3500 
L 1894 563 
L 2988 3500 
L 3597 3500 
L 2284 0 
L 1503 0 
L 191 3500 
z
" transform="scale(0.015625)"/>
     <path id="DejaVuSans-61" d="M 2194 1759 
Q 1497 1759 1228 1600 
Q 959 1441 959 1056 
Q 959 750 1161 570 
Q 1363 391 1709 391 
Q 2188 391 2477 730 
Q 2766 1069 2766 1631 
L 2766 1759 
L 2194 1759 
z
M 3341 1997 
L 3341 0 
L 2766 0 
L 2766 531 
Q 2569 213 2275 61 
Q 1981 -91 1556 -91 
Q 1019 -91 701 211 
Q 384 513 384 1019 
Q 384 1609 779 1909 
Q 1175 2209 1959 2209 
L 2766 2209 
L 2766 2266 
Q 2766 2663 2505 2880 
Q 2244 3097 1772 3097 
Q 1472 3097 1187 3025 
Q 903 2953 641 2809 
L 641 3341 
Q 956 3463 1253 3523 
Q 1550 3584 1831 3584 
Q 2591 3584 2966 3190 
Q 3341 2797 3341 1997 
z
" transform="scale(0.015625)"/>
     <path id="DejaVuSans-6c" d="M 603 4863 
L 1178 4863 
L 1178 0 
L 603 0 
L 603 4863 
z
" transform="scale(0.015625)"/>
     <path id="DejaVuSans-75" d="M 544 1381 
L 544 3500 
L 1119 3500 
L 1119 1403 
Q 1119 906 1312 657 
Q 1506 409 1894 409 
Q 2359 409 2629 706 
Q 2900 1003 2900 1516 
L 2900 3500 
L 3475 3500 
L 3475 0 
L 2900 0 
L 2900 538 
Q 2691 219 2414 64 
Q 2138 -91 1772 -91 
Q 1169 -91 856 284 
Q 544 659 544 1381 
z
M 1991 3584 
L 1991 3584 
z
" transform="scale(0.015625)"/>
    </defs>
    <use xlink:href="#DejaVuSans-4d"/>
    <use xlink:href="#DejaVuSans-69" x="86.279297"/>
    <use xlink:href="#DejaVuSans-6e" x="114.0625"/>
    <use xlink:href="#DejaVuSans-45" x="177.441406"/>
    <use xlink:href="#DejaVuSans-69" x="240.625"/>
    <use xlink:href="#DejaVuSans-67" x="268.408203"/>
    <use xlink:href="#DejaVuSans-65" x="331.884766"/>
    <use xlink:href="#DejaVuSans-6e" x="393.408203"/>
    <use xlink:href="#DejaVuSans-76" x="456.787109"/>
    <use xlink:href="#DejaVuSans-61" x="515.966797"/>
    <use xlink:href="#DejaVuSans-6c" x="577.246094"/>
    <use xlink:href="#DejaVuSans-75" x="605.029297"/>
    <use xlink:href="#DejaVuSans-65" x="668.408203"/>
   </g>
  </g>
  <g id="patch_4">
   <path d="M 817.843 260.726625 
L 855.36 260.726625 
L 855.36 138.720687 
L 817.843 138.720687 
z
" style="fill: #ffffff"/>
  </g>
  <g id="text_12">
   <!-- N -->
   <g transform="translate(818.843 148.078969) scale(0.11 -0.11)">
    <defs>
     <path id="DejaVuSans-4e" d="M 628 4666 
L 1478 4666 
L 3547 763 
L 3547 4666 
L 4159 4666 
L 4159 0 
L 3309 0 
L 1241 3903 
L 1241 0 
L 628 0 
L 628 4666 
z
" transform="scale(0.015625)"/>
    </defs>
    <use xlink:href="#DejaVuSans-4e"/>
   </g>
  </g>
  <g id="patch_5">
   <path d="M 819.843 169.526625 
L 833.683 169.526625 
L 833.683 155.686625 
L 819.843 155.686625 
L 819.843 169.526625 
z
" clip-path="url(#p6c4fcf10a7)" style="fill: none; stroke: #cccccc; stroke-linejoin: miter"/>
  </g>
  <g id="line2d_33">
   <path d="M 818.843 162.606625 
L 834.683 162.606625 
" clip-path="url(#p6c4fcf10a7)" style="fill: none; stroke: #db5f57; stroke-width: 1.32934"/>
  </g>
  <g id="text_13">
   <!-- 003 -->
   <g transform="translate(837.563 165.034875) scale(0.088 -0.088)">
    <defs>
     <path id="DejaVuSans-33" d="M 2597 2516 
Q 3050 2419 3304 2112 
Q 3559 1806 3559 1356 
Q 3559 666 3084 287 
Q 2609 -91 1734 -91 
Q 1441 -91 1130 -33 
Q 819 25 488 141 
L 488 750 
Q 750 597 1062 519 
Q 1375 441 1716 441 
Q 2309 441 2620 675 
Q 2931 909 2931 1356 
Q 2931 1769 2642 2001 
Q 2353 2234 1838 2234 
L 1294 2234 
L 1294 2753 
L 1863 2753 
Q 2328 2753 2575 2939 
Q 2822 3125 2822 3475 
Q 2822 3834 2567 4026 
Q 2313 4219 1838 4219 
Q 1578 4219 1281 4162 
Q 984 4106 628 3988 
L 628 4550 
Q 988 4650 1302 4700 
Q 1616 4750 1894 4750 
Q 2613 4750 3031 4423 
Q 3450 4097 3450 3541 
Q 3450 3153 3228 2886 
Q 3006 2619 2597 2516 
z
" transform="scale(0.015625)"/>
    </defs>
    <use xlink:href="#DejaVuSans-30"/>
    <use xlink:href="#DejaVuSans-30" x="63.623047"/>
    <use xlink:href="#DejaVuSans-33" x="127.246094"/>
   </g>
  </g>
  <g id="patch_6">
   <path d="M 819.843 187.366625 
L 833.683 187.366625 
L 833.683 173.526625 
L 819.843 173.526625 
L 819.843 187.366625 
z
" clip-path="url(#p665a21697b)" style="fill: none; stroke: #cccccc; stroke-linejoin: miter"/>
  </g>
  <g id="line2d_34">
   <path d="M 818.843 180.446625 
L 834.683 180.446625 
" clip-path="url(#p665a21697b)" style="fill: none; stroke: #d3db57; stroke-width: 1.32934"/>
  </g>
  <g id="text_14">
   <!-- 005 -->
   <g transform="translate(837.563 182.874875) scale(0.088 -0.088)">
    <use xlink:href="#DejaVuSans-30"/>
    <use xlink:href="#DejaVuSans-30" x="63.623047"/>
    <use xlink:href="#DejaVuSans-35" x="127.246094"/>
   </g>
  </g>
  <g id="patch_7">
   <path d="M 819.843 205.206625 
L 833.683 205.206625 
L 833.683 191.366625 
L 819.843 191.366625 
L 819.843 205.206625 
z
" clip-path="url(#pdd070ab623)" style="fill: none; stroke: #cccccc; stroke-linejoin: miter"/>
  </g>
  <g id="line2d_35">
   <path d="M 818.843 198.286625 
L 834.683 198.286625 
" clip-path="url(#pdd070ab623)" style="fill: none; stroke: #57db5f; stroke-width: 1.32934"/>
  </g>
  <g id="text_15">
   <!-- 010 -->
   <g transform="translate(837.563 200.714875) scale(0.088 -0.088)">
    <use xlink:href="#DejaVuSans-30"/>
    <use xlink:href="#DejaVuSans-31" x="63.623047"/>
    <use xlink:href="#DejaVuSans-30" x="127.246094"/>
   </g>
  </g>
  <g id="patch_8">
   <path d="M 819.843 223.046625 
L 833.683 223.046625 
L 833.683 209.206625 
L 819.843 209.206625 
L 819.843 223.046625 
z
" clip-path="url(#p88a1041778)" style="fill: none; stroke: #cccccc; stroke-linejoin: miter"/>
  </g>
  <g id="line2d_36">
   <path d="M 818.843 216.126625 
L 834.683 216.126625 
" clip-path="url(#p88a1041778)" style="fill: none; stroke: #57d3db; stroke-width: 1.32934"/>
  </g>
  <g id="text_16">
   <!-- 025 -->
   <g transform="translate(837.563 218.554875) scale(0.088 -0.088)">
    <use xlink:href="#DejaVuSans-30"/>
    <use xlink:href="#DejaVuSans-32" x="63.623047"/>
    <use xlink:href="#DejaVuSans-35" x="127.246094"/>
   </g>
  </g>
  <g id="patch_9">
   <path d="M 819.843 240.886625 
L 833.683 240.886625 
L 833.683 227.046625 
L 819.843 227.046625 
L 819.843 240.886625 
z
" clip-path="url(#p986aa17c2f)" style="fill: none; stroke: #cccccc; stroke-linejoin: miter"/>
  </g>
  <g id="line2d_37">
   <path d="M 818.843 233.966625 
L 834.683 233.966625 
" clip-path="url(#p986aa17c2f)" style="fill: none; stroke: #5f57db; stroke-width: 1.32934"/>
  </g>
  <g id="text_17">
   <!-- 050 -->
   <g transform="translate(837.563 236.394875) scale(0.088 -0.088)">
    <use xlink:href="#DejaVuSans-30"/>
    <use xlink:href="#DejaVuSans-35" x="63.623047"/>
    <use xlink:href="#DejaVuSans-30" x="127.246094"/>
   </g>
  </g>
  <g id="patch_10">
   <path d="M 819.843 258.726625 
L 833.683 258.726625 
L 833.683 244.886625 
L 819.843 244.886625 
L 819.843 258.726625 
z
" clip-path="url(#pd23936c116)" style="fill: none; stroke: #cccccc; stroke-linejoin: miter"/>
  </g>
  <g id="line2d_38">
   <path d="M 818.843 251.806625 
L 834.683 251.806625 
" clip-path="url(#pd23936c116)" style="fill: none; stroke: #db57d3; stroke-width: 1.32934"/>
  </g>
  <g id="text_18">
   <!-- 100 -->
   <g transform="translate(837.563 254.234875) scale(0.088 -0.088)">
    <use xlink:href="#DejaVuSans-31"/>
    <use xlink:href="#DejaVuSans-30" x="63.623047"/>
    <use xlink:href="#DejaVuSans-30" x="127.246094"/>
   </g>
  </g>
 </g>
 <defs>
  <clipPath id="p12ef326843">
   <rect x="46.670687" y="8.64" width="745.252313" height="382.167313"/>
  </clipPath>
  <clipPath id="p6c4fcf10a7">
   <path d="M 818.843 170.526625 
L 818.843 154.686625 
L 834.683 154.686625 
L 834.683 170.526625 
"/>
  </clipPath>
  <clipPath id="p665a21697b">
   <path d="M 818.843 188.366625 
L 818.843 172.526625 
L 834.683 172.526625 
L 834.683 188.366625 
"/>
  </clipPath>
  <clipPath id="pdd070ab623">
   <path d="M 818.843 206.206625 
L 818.843 190.366625 
L 834.683 190.366625 
L 834.683 206.206625 
"/>
  </clipPath>
  <clipPath id="p88a1041778">
   <path d="M 818.843 224.046625 
L 818.843 208.206625 
L 834.683 208.206625 
L 834.683 224.046625 
"/>
  </clipPath>
  <clipPath id="p986aa17c2f">
   <path d="M 818.843 241.886625 
L 818.843 226.046625 
L 834.683 226.046625 
L 834.683 241.886625 
"/>
  </clipPath>
  <clipPath id="pd23936c116">
   <path d="M 818.843 259.726625 
L 818.843 243.886625 
L 834.683 243.886625 
L 834.683 259.726625 
"/>
  </clipPath>
 </defs>
</svg>
