<?xml version="1.0" encoding="utf-8" standalone="no"?>
<!DOCTYPE svg PUBLIC "-//W3C//DTD SVG 1.1//EN"
  "http://www.w3.org/Graphics/SVG/1.1/DTD/svg11.dtd">
<svg xmlns:xlink="http://www.w3.org/1999/xlink" width="511.587687pt" height="283.578058pt" viewBox="0 0 511.587687 283.578058" xmlns="http://www.w3.org/2000/svg" version="1.1">
 <metadata>
  <rdf:RDF xmlns:dc="http://purl.org/dc/elements/1.1/" xmlns:cc="http://creativecommons.org/ns#" xmlns:rdf="http://www.w3.org/1999/02/22-rdf-syntax-ns#">
   <cc:Work>
    <dc:type rdf:resource="http://purl.org/dc/dcmitype/StillImage"/>
    <dc:date>2023-12-25T05:56:29.778724</dc:date>
    <dc:format>image/svg+xml</dc:format>
    <dc:creator>
     <cc:Agent>
      <dc:title>Matplotlib v3.6.2, https://matplotlib.org/</dc:title>
     </cc:Agent>
    </dc:creator>
   </cc:Work>
  </rdf:RDF>
 </metadata>
 <defs>
  <style type="text/css">*{stroke-linejoin: round; stroke-linecap: butt}</style>
 </defs>
 <g id="figure_1">
  <g id="patch_1">
   <path d="M 0 283.578058 
L 511.587687 283.578058 
L 511.587687 0 
L 0 0 
z
" style="fill: #ffffff; stroke: #ffffff; stroke-linejoin: miter"/>
  </g>
  <g id="axes_1">
   <g id="patch_2">
    <path d="M 57.987688 247.865371 
L 504.387687 247.865371 
L 504.387687 26.105371 
L 57.987688 26.105371 
z
" style="fill: #ffffff; stroke: #7f7f7f; stroke-linejoin: miter"/>
   </g>
   <g id="matplotlib.axis_1">
    <g id="xtick_1">
     <g id="line2d_1">
      <path d="M 82.336778 247.865371 
L 82.336778 26.105371 
" clip-path="url(#p3f00669cbc)" style="fill: none; stroke: #e5e5e5; stroke-width: 0.8"/>
     </g>
     <g id="line2d_2">
      <path d="M 82.336778 247.865371 
" style="fill: none; stroke: #000000; stroke-width: 1.5"/>
      <defs>
       <path id="mff83e4a208" d="M 0 0 
L 0 2.75 
" style="stroke: #333333"/>
      </defs>
      <g>
       <use xlink:href="#mff83e4a208" x="82.336778" y="247.865371" style="stroke: #333333"/>
      </g>
     </g>
     <g id="text_1">
      <!-- 0 -->
      <g style="fill: #4d4d4d" transform="translate(79.537278 259.501996) scale(0.088 -0.088)">
       <defs>
        <path id="DejaVuSans-30" d="M 2034 4250 
Q 1547 4250 1301 3770 
Q 1056 3291 1056 2328 
Q 1056 1369 1301 889 
Q 1547 409 2034 409 
Q 2525 409 2770 889 
Q 3016 1369 3016 2328 
Q 3016 3291 2770 3770 
Q 2525 4250 2034 4250 
z
M 2034 4750 
Q 2819 4750 3233 4129 
Q 3647 3509 3647 2328 
Q 3647 1150 3233 529 
Q 2819 -91 2034 -91 
Q 1250 -91 836 529 
Q 422 1150 422 2328 
Q 422 3509 836 4129 
Q 1250 4750 2034 4750 
z
" transform="scale(0.015625)"/>
       </defs>
       <use xlink:href="#DejaVuSans-30"/>
      </g>
     </g>
    </g>
    <g id="xtick_2">
     <g id="line2d_3">
      <path d="M 162.196581 247.865371 
L 162.196581 26.105371 
" clip-path="url(#p3f00669cbc)" style="fill: none; stroke: #e5e5e5; stroke-width: 0.8"/>
     </g>
     <g id="line2d_4">
      <path d="M 162.196581 247.865371 
" style="fill: none; stroke: #000000; stroke-width: 1.5"/>
      <g>
       <use xlink:href="#mff83e4a208" x="162.196581" y="247.865371" style="stroke: #333333"/>
      </g>
     </g>
     <g id="text_2">
      <!-- 100 -->
      <g style="fill: #4d4d4d" transform="translate(153.798081 259.501996) scale(0.088 -0.088)">
       <defs>
        <path id="DejaVuSans-31" d="M 794 531 
L 1825 531 
L 1825 4091 
L 703 3866 
L 703 4441 
L 1819 4666 
L 2450 4666 
L 2450 531 
L 3481 531 
L 3481 0 
L 794 0 
L 794 531 
z
" transform="scale(0.015625)"/>
       </defs>
       <use xlink:href="#DejaVuSans-31"/>
       <use xlink:href="#DejaVuSans-30" x="63.623047"/>
       <use xlink:href="#DejaVuSans-30" x="127.246094"/>
      </g>
     </g>
    </g>
    <g id="xtick_3">
     <g id="line2d_5">
      <path d="M 242.056384 247.865371 
L 242.056384 26.105371 
" clip-path="url(#p3f00669cbc)" style="fill: none; stroke: #e5e5e5; stroke-width: 0.8"/>
     </g>
     <g id="line2d_6">
      <path d="M 242.056384 247.865371 
" style="fill: none; stroke: #000000; stroke-width: 1.5"/>
      <g>
       <use xlink:href="#mff83e4a208" x="242.056384" y="247.865371" style="stroke: #333333"/>
      </g>
     </g>
     <g id="text_3">
      <!-- 200 -->
      <g style="fill: #4d4d4d" transform="translate(233.657884 259.501996) scale(0.088 -0.088)">
       <defs>
        <path id="DejaVuSans-32" d="M 1228 531 
L 3431 531 
L 3431 0 
L 469 0 
L 469 531 
Q 828 903 1448 1529 
Q 2069 2156 2228 2338 
Q 2531 2678 2651 2914 
Q 2772 3150 2772 3378 
Q 2772 3750 2511 3984 
Q 2250 4219 1831 4219 
Q 1534 4219 1204 4116 
Q 875 4013 500 3803 
L 500 4441 
Q 881 4594 1212 4672 
Q 1544 4750 1819 4750 
Q 2544 4750 2975 4387 
Q 3406 4025 3406 3419 
Q 3406 3131 3298 2873 
Q 3191 2616 2906 2266 
Q 2828 2175 2409 1742 
Q 1991 1309 1228 531 
z
" transform="scale(0.015625)"/>
       </defs>
       <use xlink:href="#DejaVuSans-32"/>
       <use xlink:href="#DejaVuSans-30" x="63.623047"/>
       <use xlink:href="#DejaVuSans-30" x="127.246094"/>
      </g>
     </g>
    </g>
    <g id="xtick_4">
     <g id="line2d_7">
      <path d="M 321.916187 247.865371 
L 321.916187 26.105371 
" clip-path="url(#p3f00669cbc)" style="fill: none; stroke: #e5e5e5; stroke-width: 0.8"/>
     </g>
     <g id="line2d_8">
      <path d="M 321.916187 247.865371 
" style="fill: none; stroke: #000000; stroke-width: 1.5"/>
      <g>
       <use xlink:href="#mff83e4a208" x="321.916187" y="247.865371" style="stroke: #333333"/>
      </g>
     </g>
     <g id="text_4">
      <!-- 300 -->
      <g style="fill: #4d4d4d" transform="translate(313.517687 259.501996) scale(0.088 -0.088)">
       <defs>
        <path id="DejaVuSans-33" d="M 2597 2516 
Q 3050 2419 3304 2112 
Q 3559 1806 3559 1356 
Q 3559 666 3084 287 
Q 2609 -91 1734 -91 
Q 1441 -91 1130 -33 
Q 819 25 488 141 
L 488 750 
Q 750 597 1062 519 
Q 1375 441 1716 441 
Q 2309 441 2620 675 
Q 2931 909 2931 1356 
Q 2931 1769 2642 2001 
Q 2353 2234 1838 2234 
L 1294 2234 
L 1294 2753 
L 1863 2753 
Q 2328 2753 2575 2939 
Q 2822 3125 2822 3475 
Q 2822 3834 2567 4026 
Q 2313 4219 1838 4219 
Q 1578 4219 1281 4162 
Q 984 4106 628 3988 
L 628 4550 
Q 988 4650 1302 4700 
Q 1616 4750 1894 4750 
Q 2613 4750 3031 4423 
Q 3450 4097 3450 3541 
Q 3450 3153 3228 2886 
Q 3006 2619 2597 2516 
z
" transform="scale(0.015625)"/>
       </defs>
       <use xlink:href="#DejaVuSans-33"/>
       <use xlink:href="#DejaVuSans-30" x="63.623047"/>
       <use xlink:href="#DejaVuSans-30" x="127.246094"/>
      </g>
     </g>
    </g>
    <g id="xtick_5">
     <g id="line2d_9">
      <path d="M 401.77599 247.865371 
L 401.77599 26.105371 
" clip-path="url(#p3f00669cbc)" style="fill: none; stroke: #e5e5e5; stroke-width: 0.8"/>
     </g>
     <g id="line2d_10">
      <path d="M 401.77599 247.865371 
" style="fill: none; stroke: #000000; stroke-width: 1.5"/>
      <g>
       <use xlink:href="#mff83e4a208" x="401.77599" y="247.865371" style="stroke: #333333"/>
      </g>
     </g>
     <g id="text_5">
      <!-- 400 -->
      <g style="fill: #4d4d4d" transform="translate(393.37749 259.501996) scale(0.088 -0.088)">
       <defs>
        <path id="DejaVuSans-34" d="M 2419 4116 
L 825 1625 
L 2419 1625 
L 2419 4116 
z
M 2253 4666 
L 3047 4666 
L 3047 1625 
L 3713 1625 
L 3713 1100 
L 3047 1100 
L 3047 0 
L 2419 0 
L 2419 1100 
L 313 1100 
L 313 1709 
L 2253 4666 
z
" transform="scale(0.015625)"/>
       </defs>
       <use xlink:href="#DejaVuSans-34"/>
       <use xlink:href="#DejaVuSans-30" x="63.623047"/>
       <use xlink:href="#DejaVuSans-30" x="127.246094"/>
      </g>
     </g>
    </g>
    <g id="xtick_6">
     <g id="line2d_11">
      <path d="M 481.635793 247.865371 
L 481.635793 26.105371 
" clip-path="url(#p3f00669cbc)" style="fill: none; stroke: #e5e5e5; stroke-width: 0.8"/>
     </g>
     <g id="line2d_12">
      <path d="M 481.635793 247.865371 
" style="fill: none; stroke: #000000; stroke-width: 1.5"/>
      <g>
       <use xlink:href="#mff83e4a208" x="481.635793" y="247.865371" style="stroke: #333333"/>
      </g>
     </g>
     <g id="text_6">
      <!-- 500 -->
      <g style="fill: #4d4d4d" transform="translate(473.237293 259.501996) scale(0.088 -0.088)">
       <defs>
        <path id="DejaVuSans-35" d="M 691 4666 
L 3169 4666 
L 3169 4134 
L 1269 4134 
L 1269 2991 
Q 1406 3038 1543 3061 
Q 1681 3084 1819 3084 
Q 2600 3084 3056 2656 
Q 3513 2228 3513 1497 
Q 3513 744 3044 326 
Q 2575 -91 1722 -91 
Q 1428 -91 1123 -41 
Q 819 9 494 109 
L 494 744 
Q 775 591 1075 516 
Q 1375 441 1709 441 
Q 2250 441 2565 725 
Q 2881 1009 2881 1497 
Q 2881 1984 2565 2268 
Q 2250 2553 1709 2553 
Q 1456 2553 1204 2497 
Q 953 2441 691 2322 
L 691 4666 
z
" transform="scale(0.015625)"/>
       </defs>
       <use xlink:href="#DejaVuSans-35"/>
       <use xlink:href="#DejaVuSans-30" x="63.623047"/>
       <use xlink:href="#DejaVuSans-30" x="127.246094"/>
      </g>
     </g>
    </g>
    <g id="xtick_7">
     <g id="line2d_13">
      <path d="M 122.26668 247.865371 
L 122.26668 26.105371 
" clip-path="url(#p3f00669cbc)" style="fill: none; stroke: #fafafa"/>
     </g>
    </g>
    <g id="xtick_8">
     <g id="line2d_14">
      <path d="M 202.126483 247.865371 
L 202.126483 26.105371 
" clip-path="url(#p3f00669cbc)" style="fill: none; stroke: #fafafa"/>
     </g>
    </g>
    <g id="xtick_9">
     <g id="line2d_15">
      <path d="M 281.986286 247.865371 
L 281.986286 26.105371 
" clip-path="url(#p3f00669cbc)" style="fill: none; stroke: #fafafa"/>
     </g>
    </g>
    <g id="xtick_10">
     <g id="line2d_16">
      <path d="M 361.846088 247.865371 
L 361.846088 26.105371 
" clip-path="url(#p3f00669cbc)" style="fill: none; stroke: #fafafa"/>
     </g>
    </g>
    <g id="xtick_11">
     <g id="line2d_17">
      <path d="M 441.705891 247.865371 
L 441.705891 26.105371 
" clip-path="url(#p3f00669cbc)" style="fill: none; stroke: #fafafa"/>
     </g>
    </g>
    <g id="text_7">
     <!-- K -->
     <g transform="translate(270.380891 274.090402) scale(0.11 -0.11)">
      <defs>
       <path id="DejaVuSans-4b" d="M 628 4666 
L 1259 4666 
L 1259 2694 
L 3353 4666 
L 4166 4666 
L 1850 2491 
L 4331 0 
L 3500 0 
L 1259 2247 
L 1259 0 
L 628 0 
L 628 4666 
z
" transform="scale(0.015625)"/>
      </defs>
      <use xlink:href="#DejaVuSans-4b"/>
     </g>
    </g>
   </g>
   <g id="matplotlib.axis_2">
    <g id="ytick_1">
     <g id="line2d_18">
      <path d="M 57.987688 237.785371 
L 504.387687 237.785371 
" clip-path="url(#p3f00669cbc)" style="fill: none; stroke: #e5e5e5; stroke-width: 0.8"/>
     </g>
     <g id="line2d_19">
      <path d="M 57.987688 237.785371 
" style="fill: none; stroke: #000000; stroke-width: 1.5"/>
      <defs>
       <path id="m869ffe3b5b" d="M 0 0 
L -2.75 0 
" style="stroke: #333333"/>
      </defs>
      <g>
       <use xlink:href="#m869ffe3b5b" x="57.987688" y="237.785371" style="stroke: #333333"/>
      </g>
     </g>
     <g id="text_8">
      <!-- 0 -->
      <g style="fill: #4d4d4d" transform="translate(47.438688 240.213621) scale(0.088 -0.088)">
       <use xlink:href="#DejaVuSans-30"/>
      </g>
     </g>
    </g>
    <g id="ytick_2">
     <g id="line2d_20">
      <path d="M 57.987688 195.970793 
L 504.387687 195.970793 
" clip-path="url(#p3f00669cbc)" style="fill: none; stroke: #e5e5e5; stroke-width: 0.8"/>
     </g>
     <g id="line2d_21">
      <path d="M 57.987688 195.970793 
" style="fill: none; stroke: #000000; stroke-width: 1.5"/>
      <g>
       <use xlink:href="#m869ffe3b5b" x="57.987688" y="195.970793" style="stroke: #333333"/>
      </g>
     </g>
     <g id="text_9">
      <!-- 0.0005 -->
      <g style="fill: #4d4d4d" transform="translate(22.245938 198.399043) scale(0.088 -0.088)">
       <defs>
        <path id="DejaVuSans-2e" d="M 684 794 
L 1344 794 
L 1344 0 
L 684 0 
L 684 794 
z
" transform="scale(0.015625)"/>
       </defs>
       <use xlink:href="#DejaVuSans-30"/>
       <use xlink:href="#DejaVuSans-2e" x="63.623047"/>
       <use xlink:href="#DejaVuSans-30" x="95.410156"/>
       <use xlink:href="#DejaVuSans-30" x="159.033203"/>
       <use xlink:href="#DejaVuSans-30" x="222.65625"/>
       <use xlink:href="#DejaVuSans-35" x="286.279297"/>
      </g>
     </g>
    </g>
    <g id="ytick_3">
     <g id="line2d_22">
      <path d="M 57.987688 154.156216 
L 504.387687 154.156216 
" clip-path="url(#p3f00669cbc)" style="fill: none; stroke: #e5e5e5; stroke-width: 0.8"/>
     </g>
     <g id="line2d_23">
      <path d="M 57.987688 154.156216 
" style="fill: none; stroke: #000000; stroke-width: 1.5"/>
      <g>
       <use xlink:href="#m869ffe3b5b" x="57.987688" y="154.156216" style="stroke: #333333"/>
      </g>
     </g>
     <g id="text_10">
      <!-- 0.0010 -->
      <g style="fill: #4d4d4d" transform="translate(22.245938 156.584466) scale(0.088 -0.088)">
       <use xlink:href="#DejaVuSans-30"/>
       <use xlink:href="#DejaVuSans-2e" x="63.623047"/>
       <use xlink:href="#DejaVuSans-30" x="95.410156"/>
       <use xlink:href="#DejaVuSans-30" x="159.033203"/>
       <use xlink:href="#DejaVuSans-31" x="222.65625"/>
       <use xlink:href="#DejaVuSans-30" x="286.279297"/>
      </g>
     </g>
    </g>
    <g id="ytick_4">
     <g id="line2d_24">
      <path d="M 57.987688 112.341639 
L 504.387687 112.341639 
" clip-path="url(#p3f00669cbc)" style="fill: none; stroke: #e5e5e5; stroke-width: 0.8"/>
     </g>
     <g id="line2d_25">
      <path d="M 57.987688 112.341639 
" style="fill: none; stroke: #000000; stroke-width: 1.5"/>
      <g>
       <use xlink:href="#m869ffe3b5b" x="57.987688" y="112.341639" style="stroke: #333333"/>
      </g>
     </g>
     <g id="text_11">
      <!-- 0.0015 -->
      <g style="fill: #4d4d4d" transform="translate(22.245938 114.769889) scale(0.088 -0.088)">
       <use xlink:href="#DejaVuSans-30"/>
       <use xlink:href="#DejaVuSans-2e" x="63.623047"/>
       <use xlink:href="#DejaVuSans-30" x="95.410156"/>
       <use xlink:href="#DejaVuSans-30" x="159.033203"/>
       <use xlink:href="#DejaVuSans-31" x="222.65625"/>
       <use xlink:href="#DejaVuSans-35" x="286.279297"/>
      </g>
     </g>
    </g>
    <g id="ytick_5">
     <g id="line2d_26">
      <path d="M 57.987688 70.527062 
L 504.387687 70.527062 
" clip-path="url(#p3f00669cbc)" style="fill: none; stroke: #e5e5e5; stroke-width: 0.8"/>
     </g>
     <g id="line2d_27">
      <path d="M 57.987688 70.527062 
" style="fill: none; stroke: #000000; stroke-width: 1.5"/>
      <g>
       <use xlink:href="#m869ffe3b5b" x="57.987688" y="70.527062" style="stroke: #333333"/>
      </g>
     </g>
     <g id="text_12">
      <!-- 0.0020 -->
      <g style="fill: #4d4d4d" transform="translate(22.245938 72.955312) scale(0.088 -0.088)">
       <use xlink:href="#DejaVuSans-30"/>
       <use xlink:href="#DejaVuSans-2e" x="63.623047"/>
       <use xlink:href="#DejaVuSans-30" x="95.410156"/>
       <use xlink:href="#DejaVuSans-30" x="159.033203"/>
       <use xlink:href="#DejaVuSans-32" x="222.65625"/>
       <use xlink:href="#DejaVuSans-30" x="286.279297"/>
      </g>
     </g>
    </g>
    <g id="ytick_6">
     <g id="line2d_28">
      <path d="M 57.987688 28.712484 
L 504.387687 28.712484 
" clip-path="url(#p3f00669cbc)" style="fill: none; stroke: #e5e5e5; stroke-width: 0.8"/>
     </g>
     <g id="line2d_29">
      <path d="M 57.987688 28.712484 
" style="fill: none; stroke: #000000; stroke-width: 1.5"/>
      <g>
       <use xlink:href="#m869ffe3b5b" x="57.987688" y="28.712484" style="stroke: #333333"/>
      </g>
     </g>
     <g id="text_13">
      <!-- 0.0025 -->
      <g style="fill: #4d4d4d" transform="translate(22.245938 31.140734) scale(0.088 -0.088)">
       <use xlink:href="#DejaVuSans-30"/>
       <use xlink:href="#DejaVuSans-2e" x="63.623047"/>
       <use xlink:href="#DejaVuSans-30" x="95.410156"/>
       <use xlink:href="#DejaVuSans-30" x="159.033203"/>
       <use xlink:href="#DejaVuSans-32" x="222.65625"/>
       <use xlink:href="#DejaVuSans-35" x="286.279297"/>
      </g>
     </g>
    </g>
    <g id="ytick_7">
     <g id="line2d_30">
      <path d="M 57.987688 216.878082 
L 504.387687 216.878082 
" clip-path="url(#p3f00669cbc)" style="fill: none; stroke: #fafafa"/>
     </g>
    </g>
    <g id="ytick_8">
     <g id="line2d_31">
      <path d="M 57.987688 175.063505 
L 504.387687 175.063505 
" clip-path="url(#p3f00669cbc)" style="fill: none; stroke: #fafafa"/>
     </g>
    </g>
    <g id="ytick_9">
     <g id="line2d_32">
      <path d="M 57.987688 133.248928 
L 504.387687 133.248928 
" clip-path="url(#p3f00669cbc)" style="fill: none; stroke: #fafafa"/>
     </g>
    </g>
    <g id="ytick_10">
     <g id="line2d_33">
      <path d="M 57.987688 91.43435 
L 504.387687 91.43435 
" clip-path="url(#p3f00669cbc)" style="fill: none; stroke: #fafafa"/>
     </g>
    </g>
    <g id="ytick_11">
     <g id="line2d_34">
      <path d="M 57.987688 49.619773 
L 504.387687 49.619773 
" clip-path="url(#p3f00669cbc)" style="fill: none; stroke: #fafafa"/>
     </g>
    </g>
    <g id="text_14">
     <!-- density -->
     <g transform="translate(15.558281 155.711464) rotate(-90) scale(0.11 -0.11)">
      <defs>
       <path id="DejaVuSans-64" d="M 2906 2969 
L 2906 4863 
L 3481 4863 
L 3481 0 
L 2906 0 
L 2906 525 
Q 2725 213 2448 61 
Q 2172 -91 1784 -91 
Q 1150 -91 751 415 
Q 353 922 353 1747 
Q 353 2572 751 3078 
Q 1150 3584 1784 3584 
Q 2172 3584 2448 3432 
Q 2725 3281 2906 2969 
z
M 947 1747 
Q 947 1113 1208 752 
Q 1469 391 1925 391 
Q 2381 391 2643 752 
Q 2906 1113 2906 1747 
Q 2906 2381 2643 2742 
Q 2381 3103 1925 3103 
Q 1469 3103 1208 2742 
Q 947 2381 947 1747 
z
" transform="scale(0.015625)"/>
       <path id="DejaVuSans-65" d="M 3597 1894 
L 3597 1613 
L 953 1613 
Q 991 1019 1311 708 
Q 1631 397 2203 397 
Q 2534 397 2845 478 
Q 3156 559 3463 722 
L 3463 178 
Q 3153 47 2828 -22 
Q 2503 -91 2169 -91 
Q 1331 -91 842 396 
Q 353 884 353 1716 
Q 353 2575 817 3079 
Q 1281 3584 2069 3584 
Q 2775 3584 3186 3129 
Q 3597 2675 3597 1894 
z
M 3022 2063 
Q 3016 2534 2758 2815 
Q 2500 3097 2075 3097 
Q 1594 3097 1305 2825 
Q 1016 2553 972 2059 
L 3022 2063 
z
" transform="scale(0.015625)"/>
       <path id="DejaVuSans-6e" d="M 3513 2113 
L 3513 0 
L 2938 0 
L 2938 2094 
Q 2938 2591 2744 2837 
Q 2550 3084 2163 3084 
Q 1697 3084 1428 2787 
Q 1159 2491 1159 1978 
L 1159 0 
L 581 0 
L 581 3500 
L 1159 3500 
L 1159 2956 
Q 1366 3272 1645 3428 
Q 1925 3584 2291 3584 
Q 2894 3584 3203 3211 
Q 3513 2838 3513 2113 
z
" transform="scale(0.015625)"/>
       <path id="DejaVuSans-73" d="M 2834 3397 
L 2834 2853 
Q 2591 2978 2328 3040 
Q 2066 3103 1784 3103 
Q 1356 3103 1142 2972 
Q 928 2841 928 2578 
Q 928 2378 1081 2264 
Q 1234 2150 1697 2047 
L 1894 2003 
Q 2506 1872 2764 1633 
Q 3022 1394 3022 966 
Q 3022 478 2636 193 
Q 2250 -91 1575 -91 
Q 1294 -91 989 -36 
Q 684 19 347 128 
L 347 722 
Q 666 556 975 473 
Q 1284 391 1588 391 
Q 1994 391 2212 530 
Q 2431 669 2431 922 
Q 2431 1156 2273 1281 
Q 2116 1406 1581 1522 
L 1381 1569 
Q 847 1681 609 1914 
Q 372 2147 372 2553 
Q 372 3047 722 3315 
Q 1072 3584 1716 3584 
Q 2034 3584 2315 3537 
Q 2597 3491 2834 3397 
z
" transform="scale(0.015625)"/>
       <path id="DejaVuSans-69" d="M 603 3500 
L 1178 3500 
L 1178 0 
L 603 0 
L 603 3500 
z
M 603 4863 
L 1178 4863 
L 1178 4134 
L 603 4134 
L 603 4863 
z
" transform="scale(0.015625)"/>
       <path id="DejaVuSans-74" d="M 1172 4494 
L 1172 3500 
L 2356 3500 
L 2356 3053 
L 1172 3053 
L 1172 1153 
Q 1172 725 1289 603 
Q 1406 481 1766 481 
L 2356 481 
L 2356 0 
L 1766 0 
Q 1100 0 847 248 
Q 594 497 594 1153 
L 594 3053 
L 172 3053 
L 172 3500 
L 594 3500 
L 594 4494 
L 1172 4494 
z
" transform="scale(0.015625)"/>
       <path id="DejaVuSans-79" d="M 2059 -325 
Q 1816 -950 1584 -1140 
Q 1353 -1331 966 -1331 
L 506 -1331 
L 506 -850 
L 844 -850 
Q 1081 -850 1212 -737 
Q 1344 -625 1503 -206 
L 1606 56 
L 191 3500 
L 800 3500 
L 1894 763 
L 2988 3500 
L 3597 3500 
L 2059 -325 
z
" transform="scale(0.015625)"/>
      </defs>
      <use xlink:href="#DejaVuSans-64"/>
      <use xlink:href="#DejaVuSans-65" x="63.476562"/>
      <use xlink:href="#DejaVuSans-6e" x="125"/>
      <use xlink:href="#DejaVuSans-73" x="188.378906"/>
      <use xlink:href="#DejaVuSans-69" x="240.478516"/>
      <use xlink:href="#DejaVuSans-74" x="268.261719"/>
      <use xlink:href="#DejaVuSans-79" x="307.470703"/>
     </g>
    </g>
   </g>
   <g id="PolyCollection_1">
    <path d="M 78.278597 237.785371 
L 78.278597 154.676799 
L 86.39496 154.676799 
L 86.39496 237.785371 
z
" clip-path="url(#p3f00669cbc)" style="fill: #595959; stroke: #808080; stroke-width: 0.886227"/>
    <path d="M 86.39496 237.785371 
L 86.39496 96.253942 
L 94.511324 96.253942 
L 94.511324 237.785371 
z
" clip-path="url(#p3f00669cbc)" style="fill: #595959; stroke: #808080; stroke-width: 0.886227"/>
    <path d="M 94.511324 237.785371 
L 94.511324 69.922514 
L 102.627688 69.922514 
L 102.627688 237.785371 
z
" clip-path="url(#p3f00669cbc)" style="fill: #595959; stroke: #808080; stroke-width: 0.886227"/>
    <path d="M 102.627688 237.785371 
L 102.627688 78.973942 
L 110.744051 78.973942 
L 110.744051 237.785371 
z
" clip-path="url(#p3f00669cbc)" style="fill: #595959; stroke: #808080; stroke-width: 0.886227"/>
    <path d="M 110.744051 237.785371 
L 110.744051 69.922514 
L 118.860415 69.922514 
L 118.860415 237.785371 
z
" clip-path="url(#p3f00669cbc)" style="fill: #595959; stroke: #808080; stroke-width: 0.886227"/>
    <path d="M 118.860415 237.785371 
L 118.860415 93.785371 
L 126.976778 93.785371 
L 126.976778 237.785371 
z
" clip-path="url(#p3f00669cbc)" style="fill: #595959; stroke: #808080; stroke-width: 0.886227"/>
    <path d="M 126.976778 237.785371 
L 126.976778 36.185371 
L 135.093142 36.185371 
L 135.093142 237.785371 
z
" clip-path="url(#p3f00669cbc)" style="fill: #595959; stroke: #808080; stroke-width: 0.886227"/>
    <path d="M 135.093142 237.785371 
L 135.093142 69.922514 
L 143.209506 69.922514 
L 143.209506 237.785371 
z
" clip-path="url(#p3f00669cbc)" style="fill: #595959; stroke: #808080; stroke-width: 0.886227"/>
    <path d="M 143.209506 237.785371 
L 143.209506 85.556799 
L 151.325869 85.556799 
L 151.325869 237.785371 
z
" clip-path="url(#p3f00669cbc)" style="fill: #595959; stroke: #808080; stroke-width: 0.886227"/>
    <path d="M 151.325869 237.785371 
L 151.325869 67.453942 
L 159.442233 67.453942 
L 159.442233 237.785371 
z
" clip-path="url(#p3f00669cbc)" style="fill: #595959; stroke: #808080; stroke-width: 0.886227"/>
    <path d="M 159.442233 237.785371 
L 159.442233 50.173942 
L 167.558597 50.173942 
L 167.558597 237.785371 
z
" clip-path="url(#p3f00669cbc)" style="fill: #595959; stroke: #808080; stroke-width: 0.886227"/>
    <path d="M 167.558597 237.785371 
L 167.558597 54.288228 
L 175.67496 54.288228 
L 175.67496 237.785371 
z
" clip-path="url(#p3f00669cbc)" style="fill: #595959; stroke: #808080; stroke-width: 0.886227"/>
    <path d="M 175.67496 237.785371 
L 175.67496 65.808228 
L 183.791324 65.808228 
L 183.791324 237.785371 
z
" clip-path="url(#p3f00669cbc)" style="fill: #595959; stroke: #808080; stroke-width: 0.886227"/>
    <path d="M 183.791324 237.785371 
L 183.791324 68.276799 
L 191.907688 68.276799 
L 191.907688 237.785371 
z
" clip-path="url(#p3f00669cbc)" style="fill: #595959; stroke: #808080; stroke-width: 0.886227"/>
    <path d="M 191.907688 237.785371 
L 191.907688 65.808228 
L 200.024051 65.808228 
L 200.024051 237.785371 
z
" clip-path="url(#p3f00669cbc)" style="fill: #595959; stroke: #808080; stroke-width: 0.886227"/>
    <path d="M 200.024051 237.785371 
L 200.024051 76.505371 
L 208.140415 76.505371 
L 208.140415 237.785371 
z
" clip-path="url(#p3f00669cbc)" style="fill: #595959; stroke: #808080; stroke-width: 0.886227"/>
    <path d="M 208.140415 237.785371 
L 208.140415 78.973942 
L 216.256778 78.973942 
L 216.256778 237.785371 
z
" clip-path="url(#p3f00669cbc)" style="fill: #595959; stroke: #808080; stroke-width: 0.886227"/>
    <path d="M 216.256778 237.785371 
L 216.256778 56.756799 
L 224.373142 56.756799 
L 224.373142 237.785371 
z
" clip-path="url(#p3f00669cbc)" style="fill: #595959; stroke: #808080; stroke-width: 0.886227"/>
    <path d="M 224.373142 237.785371 
L 224.373142 64.162514 
L 232.489506 64.162514 
L 232.489506 237.785371 
z
" clip-path="url(#p3f00669cbc)" style="fill: #595959; stroke: #808080; stroke-width: 0.886227"/>
    <path d="M 232.489506 237.785371 
L 232.489506 81.442514 
L 240.605869 81.442514 
L 240.605869 237.785371 
z
" clip-path="url(#p3f00669cbc)" style="fill: #595959; stroke: #808080; stroke-width: 0.886227"/>
    <path d="M 240.605869 237.785371 
L 240.605869 67.453942 
L 248.722233 67.453942 
L 248.722233 237.785371 
z
" clip-path="url(#p3f00669cbc)" style="fill: #595959; stroke: #808080; stroke-width: 0.886227"/>
    <path d="M 248.722233 237.785371 
L 248.722233 47.705371 
L 256.838597 47.705371 
L 256.838597 237.785371 
z
" clip-path="url(#p3f00669cbc)" style="fill: #595959; stroke: #808080; stroke-width: 0.886227"/>
    <path d="M 256.838597 237.785371 
L 256.838597 43.591085 
L 264.95496 43.591085 
L 264.95496 237.785371 
z
" clip-path="url(#p3f00669cbc)" style="fill: #595959; stroke: #808080; stroke-width: 0.886227"/>
    <path d="M 264.95496 237.785371 
L 264.95496 69.922514 
L 273.071324 69.922514 
L 273.071324 237.785371 
z
" clip-path="url(#p3f00669cbc)" style="fill: #595959; stroke: #808080; stroke-width: 0.886227"/>
    <path d="M 273.071324 237.785371 
L 273.071324 53.465371 
L 281.187687 53.465371 
L 281.187687 237.785371 
z
" clip-path="url(#p3f00669cbc)" style="fill: #595959; stroke: #808080; stroke-width: 0.886227"/>
    <path d="M 281.187687 237.785371 
L 281.187687 102.836799 
L 289.304051 102.836799 
L 289.304051 237.785371 
z
" clip-path="url(#p3f00669cbc)" style="fill: #595959; stroke: #808080; stroke-width: 0.886227"/>
    <path d="M 289.304051 237.785371 
L 289.304051 99.545371 
L 297.420415 99.545371 
L 297.420415 237.785371 
z
" clip-path="url(#p3f00669cbc)" style="fill: #595959; stroke: #808080; stroke-width: 0.886227"/>
    <path d="M 297.420415 237.785371 
L 297.420415 74.036799 
L 305.536778 74.036799 
L 305.536778 237.785371 
z
" clip-path="url(#p3f00669cbc)" style="fill: #595959; stroke: #808080; stroke-width: 0.886227"/>
    <path d="M 305.536778 237.785371 
L 305.536778 78.151085 
L 313.653142 78.151085 
L 313.653142 237.785371 
z
" clip-path="url(#p3f00669cbc)" style="fill: #595959; stroke: #808080; stroke-width: 0.886227"/>
    <path d="M 313.653142 237.785371 
L 313.653142 72.391085 
L 321.769506 72.391085 
L 321.769506 237.785371 
z
" clip-path="url(#p3f00669cbc)" style="fill: #595959; stroke: #808080; stroke-width: 0.886227"/>
    <path d="M 321.769506 237.785371 
L 321.769506 79.796799 
L 329.885869 79.796799 
L 329.885869 237.785371 
z
" clip-path="url(#p3f00669cbc)" style="fill: #595959; stroke: #808080; stroke-width: 0.886227"/>
    <path d="M 329.885869 237.785371 
L 329.885869 59.225371 
L 338.002233 59.225371 
L 338.002233 237.785371 
z
" clip-path="url(#p3f00669cbc)" style="fill: #595959; stroke: #808080; stroke-width: 0.886227"/>
    <path d="M 338.002233 237.785371 
L 338.002233 83.088228 
L 346.118597 83.088228 
L 346.118597 237.785371 
z
" clip-path="url(#p3f00669cbc)" style="fill: #595959; stroke: #808080; stroke-width: 0.886227"/>
    <path d="M 346.118597 237.785371 
L 346.118597 63.339656 
L 354.23496 63.339656 
L 354.23496 237.785371 
z
" clip-path="url(#p3f00669cbc)" style="fill: #595959; stroke: #808080; stroke-width: 0.886227"/>
    <path d="M 354.23496 237.785371 
L 354.23496 62.516799 
L 362.351324 62.516799 
L 362.351324 237.785371 
z
" clip-path="url(#p3f00669cbc)" style="fill: #595959; stroke: #808080; stroke-width: 0.886227"/>
    <path d="M 362.351324 237.785371 
L 362.351324 68.276799 
L 370.467688 68.276799 
L 370.467688 237.785371 
z
" clip-path="url(#p3f00669cbc)" style="fill: #595959; stroke: #808080; stroke-width: 0.886227"/>
    <path d="M 370.467688 237.785371 
L 370.467688 70.745371 
L 378.584051 70.745371 
L 378.584051 237.785371 
z
" clip-path="url(#p3f00669cbc)" style="fill: #595959; stroke: #808080; stroke-width: 0.886227"/>
    <path d="M 378.584051 237.785371 
L 378.584051 52.642514 
L 386.700415 52.642514 
L 386.700415 237.785371 
z
" clip-path="url(#p3f00669cbc)" style="fill: #595959; stroke: #808080; stroke-width: 0.886227"/>
    <path d="M 386.700415 237.785371 
L 386.700415 71.568228 
L 394.816778 71.568228 
L 394.816778 237.785371 
z
" clip-path="url(#p3f00669cbc)" style="fill: #595959; stroke: #808080; stroke-width: 0.886227"/>
    <path d="M 394.816778 237.785371 
L 394.816778 59.225371 
L 402.933142 59.225371 
L 402.933142 237.785371 
z
" clip-path="url(#p3f00669cbc)" style="fill: #595959; stroke: #808080; stroke-width: 0.886227"/>
    <path d="M 402.933142 237.785371 
L 402.933142 60.871085 
L 411.049506 60.871085 
L 411.049506 237.785371 
z
" clip-path="url(#p3f00669cbc)" style="fill: #595959; stroke: #808080; stroke-width: 0.886227"/>
    <path d="M 411.049506 237.785371 
L 411.049506 87.202514 
L 419.165869 87.202514 
L 419.165869 237.785371 
z
" clip-path="url(#p3f00669cbc)" style="fill: #595959; stroke: #808080; stroke-width: 0.886227"/>
    <path d="M 419.165869 237.785371 
L 419.165869 70.745371 
L 427.282233 70.745371 
L 427.282233 237.785371 
z
" clip-path="url(#p3f00669cbc)" style="fill: #595959; stroke: #808080; stroke-width: 0.886227"/>
    <path d="M 427.282233 237.785371 
L 427.282233 68.276799 
L 435.398597 68.276799 
L 435.398597 237.785371 
z
" clip-path="url(#p3f00669cbc)" style="fill: #595959; stroke: #808080; stroke-width: 0.886227"/>
    <path d="M 435.398597 237.785371 
L 435.398597 86.379656 
L 443.51496 86.379656 
L 443.51496 237.785371 
z
" clip-path="url(#p3f00669cbc)" style="fill: #595959; stroke: #808080; stroke-width: 0.886227"/>
    <path d="M 443.51496 237.785371 
L 443.51496 58.402514 
L 451.631324 58.402514 
L 451.631324 237.785371 
z
" clip-path="url(#p3f00669cbc)" style="fill: #595959; stroke: #808080; stroke-width: 0.886227"/>
    <path d="M 451.631324 237.785371 
L 451.631324 83.088228 
L 459.747687 83.088228 
L 459.747687 237.785371 
z
" clip-path="url(#p3f00669cbc)" style="fill: #595959; stroke: #808080; stroke-width: 0.886227"/>
    <path d="M 459.747688 237.785371 
L 459.747688 89.671085 
L 467.864051 89.671085 
L 467.864051 237.785371 
z
" clip-path="url(#p3f00669cbc)" style="fill: #595959; stroke: #808080; stroke-width: 0.886227"/>
    <path d="M 467.864051 237.785371 
L 467.864051 70.745371 
L 475.980415 70.745371 
L 475.980415 237.785371 
z
" clip-path="url(#p3f00669cbc)" style="fill: #595959; stroke: #808080; stroke-width: 0.886227"/>
    <path d="M 475.980415 237.785371 
L 475.980415 120.939656 
L 484.096778 120.939656 
L 484.096778 237.785371 
z
" clip-path="url(#p3f00669cbc)" style="fill: #595959; stroke: #808080; stroke-width: 0.886227"/>
   </g>
   <g id="LineCollection_1">
    <path d="M 57.987688 70.191875 
L 504.387687 70.191875 
" clip-path="url(#p3f00669cbc)" style="fill: none; stroke: #ff0000; stroke-width: 0.886227"/>
   </g>
  </g>
  <g id="text_15">
   <!-- Density histogram for K(499) -->
   <g transform="translate(177.995844 17.229938) scale(0.132 -0.132)">
    <defs>
     <path id="DejaVuSans-44" d="M 1259 4147 
L 1259 519 
L 2022 519 
Q 2988 519 3436 956 
Q 3884 1394 3884 2338 
Q 3884 3275 3436 3711 
Q 2988 4147 2022 4147 
L 1259 4147 
z
M 628 4666 
L 1925 4666 
Q 3281 4666 3915 4102 
Q 4550 3538 4550 2338 
Q 4550 1131 3912 565 
Q 3275 0 1925 0 
L 628 0 
L 628 4666 
z
" transform="scale(0.015625)"/>
     <path id="DejaVuSans-20" transform="scale(0.015625)"/>
     <path id="DejaVuSans-68" d="M 3513 2113 
L 3513 0 
L 2938 0 
L 2938 2094 
Q 2938 2591 2744 2837 
Q 2550 3084 2163 3084 
Q 1697 3084 1428 2787 
Q 1159 2491 1159 1978 
L 1159 0 
L 581 0 
L 581 4863 
L 1159 4863 
L 1159 2956 
Q 1366 3272 1645 3428 
Q 1925 3584 2291 3584 
Q 2894 3584 3203 3211 
Q 3513 2838 3513 2113 
z
" transform="scale(0.015625)"/>
     <path id="DejaVuSans-6f" d="M 1959 3097 
Q 1497 3097 1228 2736 
Q 959 2375 959 1747 
Q 959 1119 1226 758 
Q 1494 397 1959 397 
Q 2419 397 2687 759 
Q 2956 1122 2956 1747 
Q 2956 2369 2687 2733 
Q 2419 3097 1959 3097 
z
M 1959 3584 
Q 2709 3584 3137 3096 
Q 3566 2609 3566 1747 
Q 3566 888 3137 398 
Q 2709 -91 1959 -91 
Q 1206 -91 779 398 
Q 353 888 353 1747 
Q 353 2609 779 3096 
Q 1206 3584 1959 3584 
z
" transform="scale(0.015625)"/>
     <path id="DejaVuSans-67" d="M 2906 1791 
Q 2906 2416 2648 2759 
Q 2391 3103 1925 3103 
Q 1463 3103 1205 2759 
Q 947 2416 947 1791 
Q 947 1169 1205 825 
Q 1463 481 1925 481 
Q 2391 481 2648 825 
Q 2906 1169 2906 1791 
z
M 3481 434 
Q 3481 -459 3084 -895 
Q 2688 -1331 1869 -1331 
Q 1566 -1331 1297 -1286 
Q 1028 -1241 775 -1147 
L 775 -588 
Q 1028 -725 1275 -790 
Q 1522 -856 1778 -856 
Q 2344 -856 2625 -561 
Q 2906 -266 2906 331 
L 2906 616 
Q 2728 306 2450 153 
Q 2172 0 1784 0 
Q 1141 0 747 490 
Q 353 981 353 1791 
Q 353 2603 747 3093 
Q 1141 3584 1784 3584 
Q 2172 3584 2450 3431 
Q 2728 3278 2906 2969 
L 2906 3500 
L 3481 3500 
L 3481 434 
z
" transform="scale(0.015625)"/>
     <path id="DejaVuSans-72" d="M 2631 2963 
Q 2534 3019 2420 3045 
Q 2306 3072 2169 3072 
Q 1681 3072 1420 2755 
Q 1159 2438 1159 1844 
L 1159 0 
L 581 0 
L 581 3500 
L 1159 3500 
L 1159 2956 
Q 1341 3275 1631 3429 
Q 1922 3584 2338 3584 
Q 2397 3584 2469 3576 
Q 2541 3569 2628 3553 
L 2631 2963 
z
" transform="scale(0.015625)"/>
     <path id="DejaVuSans-61" d="M 2194 1759 
Q 1497 1759 1228 1600 
Q 959 1441 959 1056 
Q 959 750 1161 570 
Q 1363 391 1709 391 
Q 2188 391 2477 730 
Q 2766 1069 2766 1631 
L 2766 1759 
L 2194 1759 
z
M 3341 1997 
L 3341 0 
L 2766 0 
L 2766 531 
Q 2569 213 2275 61 
Q 1981 -91 1556 -91 
Q 1019 -91 701 211 
Q 384 513 384 1019 
Q 384 1609 779 1909 
Q 1175 2209 1959 2209 
L 2766 2209 
L 2766 2266 
Q 2766 2663 2505 2880 
Q 2244 3097 1772 3097 
Q 1472 3097 1187 3025 
Q 903 2953 641 2809 
L 641 3341 
Q 956 3463 1253 3523 
Q 1550 3584 1831 3584 
Q 2591 3584 2966 3190 
Q 3341 2797 3341 1997 
z
" transform="scale(0.015625)"/>
     <path id="DejaVuSans-6d" d="M 3328 2828 
Q 3544 3216 3844 3400 
Q 4144 3584 4550 3584 
Q 5097 3584 5394 3201 
Q 5691 2819 5691 2113 
L 5691 0 
L 5113 0 
L 5113 2094 
Q 5113 2597 4934 2840 
Q 4756 3084 4391 3084 
Q 3944 3084 3684 2787 
Q 3425 2491 3425 1978 
L 3425 0 
L 2847 0 
L 2847 2094 
Q 2847 2600 2669 2842 
Q 2491 3084 2119 3084 
Q 1678 3084 1418 2786 
Q 1159 2488 1159 1978 
L 1159 0 
L 581 0 
L 581 3500 
L 1159 3500 
L 1159 2956 
Q 1356 3278 1631 3431 
Q 1906 3584 2284 3584 
Q 2666 3584 2933 3390 
Q 3200 3197 3328 2828 
z
" transform="scale(0.015625)"/>
     <path id="DejaVuSans-66" d="M 2375 4863 
L 2375 4384 
L 1825 4384 
Q 1516 4384 1395 4259 
Q 1275 4134 1275 3809 
L 1275 3500 
L 2222 3500 
L 2222 3053 
L 1275 3053 
L 1275 0 
L 697 0 
L 697 3053 
L 147 3053 
L 147 3500 
L 697 3500 
L 697 3744 
Q 697 4328 969 4595 
Q 1241 4863 1831 4863 
L 2375 4863 
z
" transform="scale(0.015625)"/>
     <path id="DejaVuSans-28" d="M 1984 4856 
Q 1566 4138 1362 3434 
Q 1159 2731 1159 2009 
Q 1159 1288 1364 580 
Q 1569 -128 1984 -844 
L 1484 -844 
Q 1016 -109 783 600 
Q 550 1309 550 2009 
Q 550 2706 781 3412 
Q 1013 4119 1484 4856 
L 1984 4856 
z
" transform="scale(0.015625)"/>
     <path id="DejaVuSans-39" d="M 703 97 
L 703 672 
Q 941 559 1184 500 
Q 1428 441 1663 441 
Q 2288 441 2617 861 
Q 2947 1281 2994 2138 
Q 2813 1869 2534 1725 
Q 2256 1581 1919 1581 
Q 1219 1581 811 2004 
Q 403 2428 403 3163 
Q 403 3881 828 4315 
Q 1253 4750 1959 4750 
Q 2769 4750 3195 4129 
Q 3622 3509 3622 2328 
Q 3622 1225 3098 567 
Q 2575 -91 1691 -91 
Q 1453 -91 1209 -44 
Q 966 3 703 97 
z
M 1959 2075 
Q 2384 2075 2632 2365 
Q 2881 2656 2881 3163 
Q 2881 3666 2632 3958 
Q 2384 4250 1959 4250 
Q 1534 4250 1286 3958 
Q 1038 3666 1038 3163 
Q 1038 2656 1286 2365 
Q 1534 2075 1959 2075 
z
" transform="scale(0.015625)"/>
     <path id="DejaVuSans-29" d="M 513 4856 
L 1013 4856 
Q 1481 4119 1714 3412 
Q 1947 2706 1947 2009 
Q 1947 1309 1714 600 
Q 1481 -109 1013 -844 
L 513 -844 
Q 928 -128 1133 580 
Q 1338 1288 1338 2009 
Q 1338 2731 1133 3434 
Q 928 4138 513 4856 
z
" transform="scale(0.015625)"/>
    </defs>
    <use xlink:href="#DejaVuSans-44"/>
    <use xlink:href="#DejaVuSans-65" x="77.001953"/>
    <use xlink:href="#DejaVuSans-6e" x="138.525391"/>
    <use xlink:href="#DejaVuSans-73" x="201.904297"/>
    <use xlink:href="#DejaVuSans-69" x="254.003906"/>
    <use xlink:href="#DejaVuSans-74" x="281.787109"/>
    <use xlink:href="#DejaVuSans-79" x="320.996094"/>
    <use xlink:href="#DejaVuSans-20" x="380.175781"/>
    <use xlink:href="#DejaVuSans-68" x="411.962891"/>
    <use xlink:href="#DejaVuSans-69" x="475.341797"/>
    <use xlink:href="#DejaVuSans-73" x="503.125"/>
    <use xlink:href="#DejaVuSans-74" x="555.224609"/>
    <use xlink:href="#DejaVuSans-6f" x="594.433594"/>
    <use xlink:href="#DejaVuSans-67" x="655.615234"/>
    <use xlink:href="#DejaVuSans-72" x="719.091797"/>
    <use xlink:href="#DejaVuSans-61" x="760.205078"/>
    <use xlink:href="#DejaVuSans-6d" x="821.484375"/>
    <use xlink:href="#DejaVuSans-20" x="918.896484"/>
    <use xlink:href="#DejaVuSans-66" x="950.683594"/>
    <use xlink:href="#DejaVuSans-6f" x="985.888672"/>
    <use xlink:href="#DejaVuSans-72" x="1047.070312"/>
    <use xlink:href="#DejaVuSans-20" x="1088.183594"/>
    <use xlink:href="#DejaVuSans-4b" x="1119.970703"/>
    <use xlink:href="#DejaVuSans-28" x="1185.546875"/>
    <use xlink:href="#DejaVuSans-34" x="1224.560547"/>
    <use xlink:href="#DejaVuSans-39" x="1288.183594"/>
    <use xlink:href="#DejaVuSans-39" x="1351.806641"/>
    <use xlink:href="#DejaVuSans-29" x="1415.429688"/>
   </g>
  </g>
 </g>
 <defs>
  <clipPath id="p3f00669cbc">
   <rect x="57.987688" y="26.105371" width="446.4" height="221.76"/>
  </clipPath>
 </defs>
</svg>
